<svg preserveAspectRatio="none" width="100%" height="100%" overflow="visible" style="display: block;" viewBox="0 0 10.9912 6.0608" fill="none" xmlns="http://www.w3.org/2000/svg">
<g id="Vector" style="mix-blend-mode:multiply">
<path d="M10.1057 0.225324L8.01214 3.04998C7.88579 3.2205 7.75671 3.46156 7.56908 3.56975C7.36443 3.68781 7.07347 3.708 6.84766 3.75976C6.2712 3.8921 5.69465 4.02436 5.11818 4.15671C4.57372 4.28164 4.02927 4.40658 3.48472 4.53161C3.12745 4.61361 2.46837 4.91498 2.14654 4.71695C1.89058 4.55938 1.7175 4.25458 1.46833 4.07647C1.15541 3.85287 0.819478 3.77704 0.443515 3.87191C-0.302238 4.06016 -0.0345475 5.63156 0.705562 5.46623C1.55316 6.51628 2.85255 5.91376 4.09372 5.6289C4.73428 5.48192 5.37485 5.33494 6.01541 5.18787C6.59629 5.05455 7.19823 4.95413 7.76826 4.78008C8.24315 4.63512 8.53041 4.3595 8.82129 3.97287C9.60398 2.93227 10.0699 2.05973 10.8452 1.01358C11.3079 0.38933 10.5635 -0.392228 10.1057 0.225324Z" fill="var(--fill-0, #DEEDFF)"/>
</g>
</svg>
