<svg preserveAspectRatio="none" width="100%" height="100%" overflow="visible" style="display: block;" viewBox="0 0 35.4101 34.667" fill="none" xmlns="http://www.w3.org/2000/svg">
<g id="Group">
<path id="Vector" d="M32.2943 10.2779C32.6161 9.69568 32.6329 8.98133 32.2718 8.42263C31.6469 7.45595 30.9288 6.55524 30.1297 5.73359C29.6662 5.257 28.9668 5.11353 28.3279 5.29712C27.6527 5.49111 26.8992 5.69475 26.3322 5.84534C25.7625 5.99664 25.2677 6.34758 24.9492 6.8435C23.9187 8.44749 21.6498 12.0817 21.6811 12.9361C21.7249 14.1295 22.2247 14.5727 23.1431 14.8581C23.9251 15.1011 28.0843 13.832 29.9605 13.234C30.5525 13.0452 31.0387 12.6268 31.328 12.0768C31.601 11.5577 31.9606 10.8817 32.2943 10.2779Z" stroke="var(--stroke-0, #396AB4)" stroke-width="0.960186" stroke-linecap="round" stroke-linejoin="round"/>
<path id="Vector_2" d="M24.9638 17.9077C24.3769 18.0147 23.9676 18.5165 23.825 19.0958C23.1593 21.8 20.4646 23.6154 17.5039 23.5266C14.3653 23.4324 11.7917 20.9028 11.6473 17.7661C11.4875 14.2951 14.2543 11.4308 17.6901 11.4308C18.1576 11.4308 18.6116 11.2886 18.822 10.8712C19.4626 9.60032 20.6865 7.11997 21.3972 5.67702C21.7473 4.96617 21.7736 4.14511 21.4968 3.40262L20.7963 1.5228C20.6081 1.01799 20.1641 0.647859 19.6287 0.588051C18.9926 0.516993 18.3462 0.480093 17.6911 0.480093C17.1864 0.480093 16.6868 0.501956 16.193 0.544477C15.4037 0.612453 14.7498 1.15916 14.4718 1.901L13.9116 3.39574C13.1383 5.45904 10.8759 6.54601 8.78193 5.86031L7.26542 5.36371C6.51326 5.11741 5.67862 5.2857 5.13245 5.85851C4.43554 6.58941 3.80188 7.38113 3.24001 8.22479C2.801 8.88398 2.82083 9.73586 3.22736 10.4156L4.04722 11.7863C5.17828 13.6773 4.61751 16.1238 2.77579 17.3335L1.441 18.2102C0.780304 18.6441 0.391482 19.4003 0.497559 20.1836C0.635272 21.2006 0.861058 22.1895 1.16702 23.1425C1.40883 23.8956 2.08674 24.4101 2.87068 24.5159L4.45695 24.73C6.6406 25.0248 8.2037 26.9885 8.00117 29.1827L7.85425 30.7742C7.78158 31.5614 8.13044 32.3369 8.80925 32.7421C9.67368 33.2581 10.5868 33.701 11.54 34.0623C12.2796 34.3427 13.1044 34.1335 13.6759 33.5866L14.8322 32.48C16.4242 30.9565 18.9341 30.9588 20.5233 32.4852L21.2718 33.2042C22.0933 33.9932 23.2839 34.3029 24.336 33.8665C25.0382 33.5751 25.7172 33.239 26.3694 32.8617C27.1631 32.4024 27.5686 31.5016 27.4859 30.5883L27.3603 29.2004C27.1618 27.0059 28.7285 25.045 30.9127 24.7542L32.6515 24.5227C33.3415 24.4309 33.9377 23.979 34.1576 23.3185C34.5211 22.2268 34.779 21.0869 34.9193 19.9107C34.9905 19.3142 34.6981 18.7394 34.1966 18.4087L32.6073 17.3607C32.124 17.0419 31.5791 16.7652 31.0082 16.8616C29.5193 17.1132 26.5964 17.6101 24.9638 17.9077Z" stroke="var(--stroke-0, #396AB4)" stroke-width="0.960186" stroke-linecap="round" stroke-linejoin="round"/>
<g id="Frame 3">
</g>
</g>
</svg>
