<svg preserveAspectRatio="none" width="100%" height="100%" overflow="visible" style="display: block;" viewBox="0 0 34.6348 34" fill="none" xmlns="http://www.w3.org/2000/svg">
<g id="Group">
<path id="Vector" d="M32.455 8.86368C31.5364 7.22934 30.3619 5.7582 28.9841 4.50635L26.2492 5.39635C25.8597 5.52314 25.4645 5.58821 25.0742 5.59738C24.8428 5.60285 24.6351 5.74039 24.5323 5.94786L21.3084 12.456C21.3084 13.429 21.5285 13.7817 22.7704 14.378L30.0193 12.9222C30.2586 12.8742 30.4483 12.6925 30.5072 12.4557C30.6034 12.0689 30.7577 11.6898 30.9732 11.3311L32.455 8.86368Z" fill="var(--fill-0, #559BFE)"/>
<path id="Vector_2" d="M29.7285 16.515L23.7329 17.6612C23.5547 20.9064 20.4432 23.1458 17.1312 23.0465C13.9926 22.9523 11.4191 20.4227 11.2746 17.286C11.1148 13.815 13.8816 10.9507 17.3174 10.9507C17.764 10.9507 18.3321 10.5598 18.7512 10.6516L21.5286 4.61189C21.6265 4.4143 21.6048 4.17685 21.468 4.00395C21.2083 3.67569 21.2779 3.33508 21.1242 2.92253L20.1193 0.226159C19.2074 0.0782078 18.2721 0 17.3184 0C16.3757 0 15.4509 0.0762682 14.5488 0.220957L13.5389 2.91565C12.7656 4.97895 10.5032 6.06592 8.40925 5.38021L5.67629 4.48527C4.29615 5.73475 3.11862 7.20351 2.19714 8.83609L3.67454 11.3062C4.8056 13.1972 4.24483 15.6437 2.40311 16.8534L0 18.4318C0.117268 20.343 0.543753 22.1703 1.23025 23.8647L4.08427 24.2499C6.26792 24.5447 7.83102 26.5084 7.62849 28.7026L7.36407 31.567C8.87638 32.6281 10.5657 33.4534 12.3791 33.9909L14.4596 31.9999C16.0515 30.4764 18.5614 30.4787 20.1506 32.0051L22.2275 34C24.042 33.4658 25.7327 32.6432 27.2469 31.585L26.9876 28.7203C26.7891 26.5258 28.3558 24.5649 30.54 24.2741L33.3946 23.8941C34.0844 22.2007 34.514 20.3741 34.6348 18.4633L32.2346 16.8806C31.8771 16.6448 31.8198 16.7618 31.5623 16.4458C31.429 16.2822 31.214 16.209 31.007 16.2505L29.7285 16.515Z" fill="var(--fill-0, #559BFE)"/>
</g>
</svg>
