<svg preserveAspectRatio="none" width="100%" height="100%" overflow="visible" style="display: block;" viewBox="0 0 14.3333 18.9167" fill="none" xmlns="http://www.w3.org/2000/svg">
<g id="Vector">
<path d="M3.95833 11.2917C4.56612 11.2917 5.14902 11.0502 5.57879 10.6205C6.00856 10.1907 6.25 9.6078 6.25 9.00001C6.25 7.73501 5.79167 7.16668 5.33333 6.25001C4.35067 4.2856 5.128 2.53385 7.16667 0.750013C7.625 3.04168 9 5.24168 10.8333 6.70835C12.6667 8.17501 13.5833 9.91668 13.5833 11.75C13.5833 12.5927 13.4174 13.4271 13.0949 14.2056C12.7724 14.9841 12.2998 15.6914 11.7039 16.2873C11.1081 16.8831 10.4007 17.3558 9.62222 17.6782C8.84371 18.0007 8.00932 18.1667 7.16667 18.1667C6.32402 18.1667 5.48962 18.0007 4.71111 17.6782C3.93261 17.3558 3.22524 16.8831 2.6294 16.2873C2.03356 15.6914 1.56091 14.9841 1.23844 14.2056C0.915972 13.4271 0.75 12.5927 0.75 11.75C0.75 10.6931 1.14692 9.64718 1.66667 9.00001C1.66667 9.6078 1.90811 10.1907 2.33788 10.6205C2.76765 11.0502 3.35055 11.2917 3.95833 11.2917Z" fill="var(--fill-0, #FDC04E)"/>
<path d="M3.95833 11.2917C4.56612 11.2917 5.14902 11.0502 5.57879 10.6205C6.00856 10.1907 6.25 9.6078 6.25 9.00001C6.25 7.73501 5.79167 7.16668 5.33333 6.25001C4.35067 4.2856 5.128 2.53385 7.16667 0.750013C7.625 3.04168 9 5.24168 10.8333 6.70835C12.6667 8.17501 13.5833 9.91668 13.5833 11.75C13.5833 12.5927 13.4174 13.4271 13.0949 14.2056C12.7724 14.9841 12.2998 15.6914 11.7039 16.2873C11.1081 16.8831 10.4007 17.3558 9.62222 17.6782C8.84371 18.0007 8.00932 18.1667 7.16667 18.1667C6.32402 18.1667 5.48962 18.0007 4.71111 17.6782C3.93261 17.3558 3.22524 16.8831 2.6294 16.2873C2.03356 15.6914 1.56091 14.9841 1.23844 14.2056C0.915972 13.4271 0.75 12.5927 0.75 11.75C0.75 10.6931 1.14692 9.64718 1.66667 9.00001C1.66667 9.6078 1.90811 10.1907 2.33788 10.6205C2.76765 11.0502 3.35055 11.2917 3.95833 11.2917Z" fill="url(#paint0_linear_0_425)" fill-opacity="0.2"/>
<path d="M3.95833 11.2917C4.56612 11.2917 5.14902 11.0502 5.57879 10.6205C6.00856 10.1907 6.25 9.6078 6.25 9.00001C6.25 7.73501 5.79167 7.16668 5.33333 6.25001C4.35067 4.2856 5.128 2.53385 7.16667 0.750013C7.625 3.04168 9 5.24168 10.8333 6.70835C12.6667 8.17501 13.5833 9.91668 13.5833 11.75C13.5833 12.5927 13.4174 13.4271 13.0949 14.2056C12.7724 14.9841 12.2998 15.6914 11.7039 16.2873C11.1081 16.8831 10.4007 17.3558 9.62222 17.6782C8.84371 18.0007 8.00932 18.1667 7.16667 18.1667C6.32402 18.1667 5.48962 18.0007 4.71111 17.6782C3.93261 17.3558 3.22524 16.8831 2.6294 16.2873C2.03356 15.6914 1.56091 14.9841 1.23844 14.2056C0.915972 13.4271 0.75 12.5927 0.75 11.75C0.75 10.6931 1.14692 9.64718 1.66667 9.00001C1.66667 9.6078 1.90811 10.1907 2.33788 10.6205C2.76765 11.0502 3.35055 11.2917 3.95833 11.2917Z" stroke="var(--stroke-0, #FDC04E)" stroke-width="1.5" stroke-linecap="round" stroke-linejoin="round"/>
</g>
<defs>
<linearGradient id="paint0_linear_0_425" x1="0.75" y1="0.750013" x2="13.5833" y2="18.625" gradientUnits="userSpaceOnUse">
<stop stop-color="white" stop-opacity="0"/>
<stop offset="1" stop-color="white"/>
</linearGradient>
</defs>
</svg>
