<svg preserveAspectRatio="none" width="100%" height="100%" overflow="visible" style="display: block;" viewBox="0 0 120 120" fill="none" xmlns="http://www.w3.org/2000/svg">
<g id="uuid-cb55bcde-ae40-40f7-9769-4bddf90d0862">
<path id="Vector" d="M60 104.1C54.0468 104.1 48.2712 102.934 42.834 100.634C37.5828 98.4132 32.8662 95.2338 28.8168 91.1838C24.7674 87.1338 21.5874 82.4178 19.3662 77.1666C17.0664 71.7294 15.9006 65.9538 15.9006 60.0006C15.9006 56.2782 16.3656 52.5792 17.2824 49.0068C18.1722 45.5388 19.4898 42.1812 21.198 39.0276C24.5544 32.8308 29.415 27.4596 35.2542 23.4936L35.9286 24.486C30.2472 28.3446 25.5186 33.5706 22.2534 39.5988C20.592 42.6666 19.3104 45.9318 18.4452 49.305C17.5536 52.7802 17.1012 56.3784 17.1012 60.0006C17.1012 65.7924 18.2352 71.4108 20.472 76.6992C22.6326 81.8076 25.7262 86.3958 29.6658 90.3354C33.606 94.2756 38.1936 97.3686 43.302 99.5292C48.5904 101.766 54.2088 102.9 60.0006 102.9C65.7924 102.9 71.4108 101.766 76.6992 99.5292C81.8076 97.3686 86.3958 94.275 90.3354 90.3354C94.2756 86.3952 97.3686 81.8076 99.5292 76.6992C101.766 71.4108 102.9 65.7924 102.9 60.0006C102.9 54.2088 101.766 48.5904 99.5292 43.302C97.3686 38.1936 94.275 33.6054 90.3354 29.6658L91.1838 28.8174C95.2338 32.8674 98.4132 37.5834 100.634 42.8346C102.934 48.2718 104.1 54.0474 104.1 60.0006C104.1 65.9538 102.934 71.7294 100.634 77.1666C98.4132 82.4178 95.2338 87.1344 91.1838 91.1838C87.1338 95.2332 82.4178 98.4132 77.1666 100.634C71.7294 102.934 65.9538 104.1 60.0006 104.1H60Z" fill="var(--fill-0, #236CBA)"/>
<g id="Vector_2">
</g>
</g>
</svg>
