<svg width="130" height="130" viewBox="0 0 130 130" fill="none" xmlns="http://www.w3.org/2000/svg">
<path d="M62.6392 72.2219C63.997 71.9041 67.4637 71.1241 69.5726 73.0886C72.057 75.3997 71.1037 79.9641 69.977 82.3041C68.417 85.5685 65.2392 87.2152 64.4015 87.6774C64.1992 87.793 62.7548 88.5152 62.6681 88.4286L63.6792 86.2619C63.737 86.0019 63.5926 85.7997 63.3037 85.8286C59.7504 87.8797 55.937 89.5841 51.8926 90.3641C53.0192 86.7819 54.4059 83.1419 56.457 79.993C56.6015 79.7619 57.8726 78.3752 56.9481 78.5774L54.1459 79.8485C54.2326 79.6174 54.377 79.2997 54.5504 78.9241C54.7815 78.433 57.2948 73.4352 62.6392 72.193V72.2219Z" fill="#FFD37A"/>
<path d="M69.0532 74.3017C70.2377 75.6595 70.3243 77.9417 69.1977 79.8773C68.591 80.8595 67.9555 81.5817 67.4355 81.9862C66.8866 82.4195 64.8643 83.6329 64.2288 83.5462C63.5643 83.4595 64.1132 82.4484 64.1421 82.044C64.1421 81.9284 64.1421 81.9284 64.0266 81.9284C62.9577 82.304 60.8488 83.5751 59.751 83.344C59.0866 83.1995 59.5488 82.2173 59.6932 81.8129C59.9821 80.9751 60.4732 80.224 60.8488 79.4151C60.7621 79.3284 59.4332 80.1662 59.0288 79.7906C58.9421 79.704 58.9421 79.5884 58.9421 79.5306C58.9132 78.9817 59.5199 75.3706 62.7555 73.8684C63.0443 73.724 67.0021 71.9617 69.0243 74.3017H69.0532Z" fill="#FFEFAD"/>
<path d="M65.7563 71.7882C67.0852 71.7882 68.5007 72.0771 69.5985 73.0882C72.083 75.3993 71.1296 79.9638 70.003 82.3038C68.443 85.5682 65.2652 87.2149 64.4274 87.6771C64.283 87.7638 63.5607 88.1104 63.0985 88.3127C63.0985 88.3127 63.0407 88.3127 63.0119 88.3127C62.8963 88.3127 62.7807 88.1682 62.8385 88.0526L63.6763 86.2326C63.7341 86.0015 63.5896 85.7993 63.3874 85.7993H63.3296C59.863 87.7927 56.1652 89.4682 52.2074 90.2771C52.2074 90.2771 52.2074 90.2771 52.1785 90.2771C52.063 90.2771 51.9763 90.1615 52.0052 90.046C53.103 86.5793 54.4896 83.0549 56.483 79.9638C56.6274 79.7326 57.7252 78.5482 57.1474 78.5482C57.0896 78.5482 57.0319 78.5482 56.9741 78.5482L54.6052 79.646C54.6052 79.646 54.5474 79.646 54.5185 79.646C54.403 79.646 54.2874 79.5304 54.3452 79.386C54.403 79.2415 54.4896 79.0682 54.5763 78.8949C54.8074 78.4038 57.3207 73.406 62.6652 72.1638C63.3296 72.0193 64.5141 71.7304 65.7852 71.7304M65.7563 70.6327C64.3407 70.6327 63.0696 70.9215 62.3763 71.0949C56.5407 72.4238 53.8252 77.826 53.5074 78.4327C53.4207 78.606 53.3341 78.8082 53.2474 78.9815C53.0741 79.386 53.103 79.8771 53.363 80.2526C53.623 80.6282 54.0274 80.8593 54.4896 80.8593C54.9519 80.8593 54.5474 80.8593 54.5763 80.8593C53.1896 83.286 52.0052 86.146 50.8785 89.7282C50.763 90.1327 50.8207 90.566 51.0807 90.9127C51.3407 91.2593 51.7452 91.4615 52.1496 91.4615C52.5541 91.4615 52.323 91.4615 52.4096 91.4615C55.3563 90.8549 58.3896 89.7282 61.6541 88.0526C61.6541 88.3415 61.7119 88.6304 61.8563 88.8904C62.1163 89.266 62.5207 89.4971 62.983 89.4971C63.4452 89.4971 63.3296 89.4682 63.503 89.3815C64.023 89.1793 64.7452 88.7749 64.9185 88.6882C67.8074 87.1571 69.8296 85.1638 70.9563 82.7949C71.6785 81.2927 72.1696 79.386 72.2274 77.7104C72.3141 75.3704 71.6496 73.4927 70.2919 72.2215C69.1363 71.1527 67.5763 70.6038 65.6696 70.6038L65.7563 70.6327Z" fill="#FE952D"/>
<path d="M19.2124 81.2642C14.4169 79.2131 9.10132 80.3397 6.18354 83.8353C3.17909 87.4464 2.80354 93.4842 5.69243 96.3442C6.5302 97.1819 7.54131 97.6153 8.40798 97.8753C6.29909 101.486 6.5302 105.82 8.78354 108.506C11.8169 112.118 18.3458 112.58 22.7369 108.391C22.2458 113.158 25.7124 117.404 30.3058 117.866C34.6391 118.329 38.7702 115.238 39.5502 110.76C41.9191 113.793 45.7902 115.035 49.1124 113.938C52.8969 112.666 54.2258 108.969 54.3702 108.506C59.8591 110.413 65.3191 108.304 67.1391 104.462C68.2658 102.093 68.0058 99.0597 66.5324 96.7197C64.7413 93.8597 61.3035 92.3286 57.7502 92.8486C57.8369 92.6753 59.4258 89.8153 57.8658 86.8975C56.4213 84.1819 53.5324 83.7775 53.2435 83.7486C51.9146 82.7664 36.2569 71.4708 23.9502 77.7397C22.4769 78.4908 20.8302 79.6175 19.2413 81.2931L19.2124 81.2642Z" fill="#F2F8FF"/>
<path d="M37.5581 114.4C37.5003 114.255 34.5536 116.855 31.1158 116.191C27.7647 115.526 25.7425 112.233 25.2803 111.193C24.2114 108.737 23.9803 106.022 23.7781 103.335C21.7558 105.531 18.0003 105.849 15.6314 104.029C13.2625 102.209 12.5981 98.5108 14.187 95.9686C12.2225 95.5353 10.6047 93.8308 10.2581 91.8375C9.9114 89.8442 10.8936 87.7064 12.5981 86.6375C13.7247 85.9442 14.3025 86.0597 15.3136 85.193C16.4981 84.1819 16.9314 82.7664 17.1336 81.6686C16.3825 81.553 15.3136 81.4664 14.0136 81.6108C12.3958 81.7553 8.84251 82.1019 6.38696 85.0775C4.65362 87.1575 3.72918 90.1908 4.48029 93.253C5.26029 96.3153 7.42696 98.0197 8.0914 98.5108C6.44474 101.689 6.56029 105.329 8.46696 107.871C8.92918 108.477 10.6047 110.615 13.1181 110.817C15.0536 110.962 16.9603 110.413 18.8381 109.922C19.8203 109.662 20.8603 109.431 21.7847 109.806C23.3158 110.384 23.3736 111.915 24.7603 113.735C25.0203 114.082 27.1003 116.682 30.1914 117.202C34.2647 117.895 37.6158 114.573 37.5581 114.429V114.4Z" fill="#DEEDFF"/>
<path d="M52.2053 95.3039C56.2786 92.5884 61.2475 92.9928 63.8475 95.7661C66.3031 98.3661 66.7942 103.162 64.5986 105.415C63.4431 106.571 61.8831 106.744 60.872 106.859C57.0008 107.293 54.0542 105.097 53.2164 104.433C52.9275 105.068 52.4653 105.964 51.7431 106.975C50.5297 108.708 49.2297 110.673 47.0053 111.337C44.8675 112.002 42.4697 111.626 40.6208 110.384C42.0075 112.377 44.4342 113.591 46.8608 113.475C49.2875 113.359 51.5986 111.944 52.812 109.835C53.2164 109.113 53.5342 108.333 54.1697 107.842C54.8631 107.322 55.8164 107.264 56.6831 107.437C57.5497 107.611 58.3586 107.928 59.2253 108.044C61.4208 108.391 64.9742 106.802 66.1297 103.595C67.632 99.5217 64.1653 96.0839 63.8186 95.7661C62.7208 94.6972 61.4208 94.1484 60.8142 93.8884C59.1386 93.1661 57.6075 92.9928 56.6542 92.9639C56.8564 92.6461 57.7231 91.115 57.2031 89.3239C56.712 87.5906 55.0075 86.0017 53.7075 86.2617C52.0031 86.6084 51.512 89.9595 51.4542 91.4906C51.3964 93.1661 51.8586 94.495 52.1764 95.3039H52.2053Z" fill="#DEEDFF"/>
<path d="M52.4651 95.7662C54.5451 94.4084 57.1162 93.6862 59.6006 94.1484C61.7962 94.5528 63.6162 95.8528 64.6273 97.8751C65.6384 99.8973 65.8406 102.035 64.974 103.913C64.1073 105.791 63.7029 105.646 62.6629 105.993C61.6229 106.339 60.4095 106.455 59.2829 106.397C58.1562 106.339 56.7406 105.935 55.5851 105.357C54.4295 104.78 54.7184 104.895 54.314 104.606C53.9095 104.317 53.7651 104.231 53.5629 104.057C53.3606 103.884 52.8695 103.826 52.7251 104.173C52.2918 105.097 51.7718 105.964 51.194 106.802C50.6162 107.64 50.1251 108.333 49.4895 109.026C48.854 109.719 48.1318 110.326 47.2651 110.673C46.3984 111.02 45.2429 111.164 44.2029 111.106C43.1629 111.048 41.8629 110.586 40.8806 109.922C39.8984 109.257 39.8406 110.211 40.1295 110.673C42.2962 113.735 46.3984 114.891 49.8362 113.273C53.274 111.655 52.6962 111.222 53.534 109.633C54.3718 108.044 54.4295 108.073 55.4118 107.928C56.394 107.784 57.3762 108.188 58.3295 108.419C59.8029 108.795 61.1895 108.651 62.5473 108.044C63.9051 107.437 65.1762 106.426 65.9851 105.155C66.794 103.884 67.2562 101.919 66.9095 100.215C66.5629 98.5106 65.9851 97.5862 65.1473 96.5173C63.154 93.9173 59.8606 92.5884 56.654 92.4728L57.1162 93.2817C57.8095 92.1262 58.0984 90.6817 57.7518 89.3528C57.4051 88.0239 56.3073 86.4639 54.8918 85.9151C52.0606 84.7884 51.1651 88.7751 50.9629 90.7395C50.7606 92.7039 51.0206 93.9751 51.6562 95.4773C52.2918 96.9795 52.0029 95.9395 52.3206 95.8528C52.6384 95.7662 52.8118 95.4484 52.6962 95.1884C51.8295 93.0795 51.7718 90.6817 52.494 88.4862C53.2162 86.2906 53.1873 86.7239 54.0829 86.8106C54.9784 86.8973 56.1629 88.1973 56.5384 89.1506C56.914 90.1039 56.7984 91.6639 56.1629 92.7328C55.5273 93.8017 56.2206 93.5417 56.6251 93.5417C59.254 93.6284 62.114 94.6395 63.8762 96.6617C65.6384 98.6839 66.5918 101.371 65.4073 103.855C64.2229 106.34 63.7606 106.166 62.5184 106.831C61.2762 107.495 60.2651 107.726 59.1384 107.495C57.3762 107.148 55.354 106.166 53.7362 107.466C52.1184 108.766 52.7251 108.824 52.2918 109.575C51.8584 110.326 51.3673 110.875 50.7318 111.395C49.3451 112.551 47.4673 113.128 45.6762 112.897C43.8851 112.666 42.094 111.626 41.0251 110.124L40.274 110.875C42.2095 112.175 44.7229 112.579 46.9473 111.915C49.1718 111.251 50.4718 109.633 51.6851 107.899C52.8984 106.166 53.0718 105.848 53.5918 104.722L52.754 104.837C54.3429 106.108 56.2495 107.062 58.3006 107.38C60.3518 107.697 60.9295 107.524 62.2295 107.235C63.5295 106.946 64.6851 106.282 65.4362 105.184C66.7651 103.248 66.6784 100.504 65.9273 98.3951C65.1762 96.2862 63.2695 94.1484 60.814 93.3973C58.3584 92.6462 54.4584 93.1662 51.8584 94.8995C49.2584 96.6328 51.8295 96.2284 52.4073 95.8239L52.4651 95.7662Z" fill="#DEEDFF"/>
<path d="M18.5482 80.0798C14.5904 78.4331 9.73706 79.4153 6.58817 82.3042C3.43928 85.1931 2.22595 89.8442 3.4104 93.7731C4.59484 97.702 4.21929 95.7376 4.91262 96.5465C5.60595 97.3554 6.96373 98.1931 8.23484 98.5398L7.80151 97.4709C5.77929 100.995 5.57706 105.733 8.29262 108.969C10.5171 111.626 14.3304 112.464 17.6237 111.829C20.9171 111.193 21.6971 110.326 23.2571 108.853L22.0148 108.333C21.6393 112.031 23.6037 115.729 26.8682 117.491C30.1326 119.253 34.3215 118.733 37.1815 116.278C38.7704 114.891 39.8682 112.955 40.2437 110.904L39.0304 111.222C40.9371 113.649 43.9993 115.18 47.1193 114.978C50.0082 114.804 52.4637 113.186 54.0237 110.789C55.5837 108.391 54.8326 109.402 55.0637 108.651L54.1682 109.142C58.3571 110.586 63.7304 109.98 66.706 106.369C69.6815 102.758 68.7571 96.8354 64.9726 93.9176C61.1882 90.9998 60.1771 91.722 57.5482 92.0687L58.3571 93.1376C59.1082 91.7798 59.3971 90.1042 59.166 88.602C58.9348 87.0998 57.5482 84.7309 55.6993 83.7487C53.8504 82.7665 54.6304 83.2576 54.0815 83.1131C53.186 82.882 52.7815 84.2687 53.706 84.4998C54.6304 84.7309 53.966 84.5576 54.0815 84.6153C54.1971 84.6731 54.2837 84.6731 54.3704 84.7309C54.4571 84.7887 54.6015 84.8176 54.4571 84.7598C54.5437 84.7887 54.6015 84.8176 54.6593 84.8465C55.2948 85.1354 55.8437 85.5109 56.3348 86.002C57.6637 87.3309 58.0682 89.2376 57.606 91.0287C57.1437 92.8198 57.4904 91.4331 57.4326 91.6354C57.3748 91.8376 57.3748 91.8087 57.346 91.8665C57.3171 91.9242 57.2593 92.0976 57.2882 92.0109C57.3171 91.9242 57.2593 92.0976 57.2304 92.1265C57.2304 92.1842 57.2015 92.2131 57.1726 92.2709C57.1437 92.3287 57.1148 92.3865 57.086 92.4153C56.7393 93.022 57.2882 93.5709 57.8948 93.4842C59.8304 93.2242 61.8815 93.6576 63.5282 94.6976C65.1748 95.7376 66.446 97.5287 66.8793 99.522C67.3126 101.515 66.9948 103.538 65.8104 105.155C64.7704 106.571 63.1526 107.553 61.506 108.044C59.8593 108.535 56.7682 108.564 54.5148 107.784C54.1393 107.64 53.7348 107.929 53.6193 108.275C53.5037 108.622 53.5615 108.42 53.5326 108.478C53.5037 108.535 53.5037 108.593 53.4748 108.622C53.4171 108.795 53.5326 108.506 53.4748 108.68C53.3304 109.026 53.1571 109.344 52.9837 109.662C52.4637 110.586 51.8282 111.338 50.9904 112.031C48.9393 113.706 46.1082 113.938 43.6815 112.984C41.2548 112.031 40.9948 111.395 40.0126 110.182C39.0304 108.969 38.886 110.009 38.7993 110.5C38.2215 113.678 35.7948 116.278 32.6171 116.971C29.4393 117.664 26.2904 116.133 24.6148 113.475C23.6326 111.915 23.2571 110.124 23.4304 108.304C23.6037 106.484 22.6215 107.409 22.1882 107.784C19.8482 109.98 16.526 111.078 13.3771 110.355C10.2282 109.633 10.7193 109.402 9.73706 108.449C8.75484 107.495 7.91706 105.82 7.71484 104.231C7.51262 102.642 7.94595 99.9842 9.01484 98.1642C10.0837 96.3442 9.01484 97.2398 8.58151 97.0954C6.81929 96.6042 5.4904 95.3909 4.88373 93.7153C4.27706 92.0398 4.27706 90.2776 4.65262 88.5731C5.02817 86.8687 5.86595 85.0198 7.16595 83.6909C8.46595 82.362 10.1415 81.4376 11.9326 80.9753C13.7237 80.5131 16.1504 80.5998 18.1148 81.4087C20.0793 82.2176 18.8948 81.2354 19.0104 80.9176C19.126 80.5998 18.866 80.1665 18.5193 80.022L18.5482 80.0798Z" fill="#A7A7A7"/>
<path d="M18.6643 86.4351C21.3221 85.5396 24.2399 85.944 26.5221 87.5907C28.7754 89.2373 29.8732 92.0396 29.5265 94.784C29.1799 97.5284 28.6021 97.9618 27.5621 99.204C26.5221 100.446 27.8799 100.822 28.5732 100.215C29.2665 99.6084 28.6599 100.157 28.7177 100.1C28.6021 100.186 28.8332 99.984 28.7177 100.1C28.8332 100.013 28.8043 100.042 28.8621 100.013C29.1221 99.8396 29.3821 99.6662 29.6421 99.4929C30.4221 99.0307 31.2021 98.7129 32.0688 98.4818C34.2932 97.9329 36.6043 98.424 38.4243 99.8107C40.2443 101.197 39.1177 100.388 39.4065 100.706C39.6954 101.024 39.6377 100.966 39.7821 101.111C39.9265 101.255 39.8688 101.226 39.9265 101.284C39.9843 101.342 39.8399 101.168 39.9554 101.313C40.1865 101.631 40.591 101.775 40.9377 101.573C41.2843 101.371 41.4288 100.908 41.1977 100.591C39.9843 98.9729 38.3088 97.7018 36.3443 97.1529C34.3799 96.604 31.4043 96.864 29.2377 98.0484C28.631 98.3662 28.0821 98.7418 27.5621 99.1751L28.5732 100.186C30.7688 97.5862 31.6643 93.9751 30.5377 90.7107C29.4977 87.6773 26.8399 85.424 23.7488 84.7307C20.6577 84.0373 20.051 84.4129 18.2888 84.9907C16.5265 85.5684 17.7977 86.6662 18.6643 86.3773V86.4351Z" fill="#DEEDFF"/>
<path d="M55.0077 92.242C57.4633 88.2553 59.2255 85.222 61.6522 82.6509C63.9055 80.2531 68.2966 76.2665 75.6055 73.5798C65.9566 66.7331 56.2789 59.8865 46.63 53.0398C44.3766 57.7776 40.2166 64.9998 32.8211 71.7309C27.5922 76.4976 22.3922 79.5309 18.4055 81.4376C23.1144 82.9398 28.95 85.2798 35.2189 88.9776C41.7189 92.8198 46.7455 96.9798 50.3855 100.475C51.4255 98.4531 52.9566 95.5642 55.0077 92.2131V92.242Z" fill="#F2F8FF"/>
<path d="M34.6997 72.0196C35.0464 73.4929 36.8375 74.1574 38.3397 74.0418C39.8419 73.9263 41.2864 73.2907 42.8175 73.2618C41.9508 75.4574 41.0553 77.7107 41.0553 80.0796C41.0553 82.4485 42.0664 84.9618 44.1752 86.0307C45.5041 86.6952 47.0641 86.7241 48.5086 86.4063C49.953 86.0885 51.2819 85.4241 52.6108 84.7885C50.8197 89.2952 50.3575 94.3218 51.253 99.0885C53.7375 92.9641 56.453 86.5507 61.653 82.4485C62.6641 81.6685 63.8197 80.8596 64.1375 79.6174C64.3108 78.9241 64.1952 78.2018 64.0797 77.5085C62.693 70.4596 58.7064 63.9885 53.0441 59.5685C51.773 58.5574 50.213 57.6329 48.5952 57.9218C47.7575 58.0663 47.0064 58.5574 46.2841 59.0485C41.4597 62.3707 37.3575 66.7618 34.353 71.7885" fill="#DEEDFF"/>
<path d="M66.7662 77.9707C60.9018 82.1018 56.0485 87.6196 52.7262 94.004C49.404 100.388 50.964 97.6729 50.2996 99.5507C49.6351 101.428 50.444 100.331 50.7907 100.446C51.1373 100.562 51.5418 100.302 51.6862 99.9551C54.0262 93.484 57.9551 87.5907 62.9818 82.9107C64.3973 81.5818 65.8996 80.3684 67.4885 79.2418C69.0773 78.1151 67.9507 78.6062 67.7485 78.2596C67.5462 77.9129 67.084 77.7684 66.7662 77.9996V77.9707Z" fill="#A7A7A7"/>
<path d="M40.9386 60.8687C35.9408 66.9354 30.8564 73.1465 24.2697 77.5665C22.5075 78.7509 20.6586 79.7909 18.723 80.6287C16.7875 81.4665 18.2897 81.2931 18.463 81.6109C18.6364 81.9287 19.0986 82.0154 19.4453 81.8709C26.6386 78.6931 32.4164 73.0887 37.5008 67.2242C39.003 65.462 40.4764 63.6709 41.9497 61.9087C43.423 60.1465 42.2386 61.1865 41.9497 60.8976C41.6608 60.6087 41.1697 60.6087 40.9386 60.8976V60.8687Z" fill="#A7A7A7"/>
<path d="M35.1622 54.7736C36.52 54.4559 39.9866 53.6759 42.0955 55.6403C44.58 57.9514 43.6266 62.5159 42.5 64.8559C40.94 68.1203 37.7622 69.767 36.9244 70.2292C36.7222 70.3448 35.2778 71.067 35.1911 70.9803L36.2022 68.8136C36.26 68.5536 36.1155 68.3514 35.8266 68.3803C32.2733 70.4314 28.46 72.1359 24.4155 72.9159C25.5422 69.3336 26.9289 65.6936 28.98 62.5448C29.1244 62.3136 30.3955 60.927 29.4711 61.1292L26.6689 62.4003C26.7555 62.1692 26.9 61.8514 27.0733 61.4759C27.3044 60.9848 29.8177 55.987 35.1622 54.7448V54.7736Z" fill="#FFD37A"/>
<path d="M41.5762 56.8249C42.7606 58.1827 42.8473 60.4649 41.7206 62.4005C41.114 63.3827 40.4784 64.1049 39.9584 64.5094C39.4095 64.9427 37.3873 66.156 36.7517 66.0694C36.0873 65.9827 36.6362 64.9716 36.6651 64.5672C36.6651 64.4516 36.6651 64.4516 36.5495 64.4516C35.4806 64.8272 33.3717 66.0983 32.274 65.8672C31.6095 65.7227 32.0717 64.7405 32.2162 64.336C32.5051 63.4983 32.9962 62.7472 33.3717 61.9383C33.2851 61.8516 31.9562 62.6894 31.5517 62.3138C31.4651 62.2272 31.4651 62.1116 31.4651 62.0538C31.4362 61.5049 32.0429 57.8938 35.2784 56.3916C35.5673 56.2472 39.5251 54.4849 41.5473 56.8249H41.5762Z" fill="#FFEFAD"/>
<path d="M38.2802 54.3405C39.6091 54.3405 41.0247 54.6293 42.1225 55.6405C44.6069 57.9516 43.6536 62.516 42.5269 64.856C40.9669 68.1204 37.7891 69.7671 36.9513 70.2293C36.8069 70.316 36.0847 70.6627 35.6225 70.8649C35.6225 70.8649 35.5647 70.8649 35.5358 70.8649C35.4202 70.8649 35.3047 70.7204 35.3625 70.6049L36.2002 68.7849C36.258 68.5538 36.1136 68.3516 35.9113 68.3516C35.7091 68.3516 35.8536 68.3516 35.8536 68.3516C32.3869 70.3449 28.6891 72.0205 24.7313 72.8293C24.7313 72.8293 24.7313 72.8293 24.7025 72.8293C24.5869 72.8293 24.5002 72.7138 24.5291 72.5982C25.6269 69.1316 27.0136 65.6071 29.0069 62.516C29.1513 62.2849 30.2491 61.1005 29.6713 61.1005C29.6136 61.1005 29.5558 61.1005 29.498 61.1005L27.1291 62.1982C27.1291 62.1982 27.0713 62.1982 27.0425 62.1982C26.9269 62.1982 26.8113 62.0827 26.8691 61.9382C26.9269 61.7938 27.0136 61.6204 27.1002 61.4471C27.3313 60.956 29.8447 55.9582 35.1891 54.716C35.8536 54.5716 37.038 54.2827 38.3091 54.2827M38.2802 53.1849C36.8647 53.1849 35.5936 53.4738 34.9002 53.6471C29.0647 54.976 26.3491 60.3782 26.0313 60.9849C25.9447 61.1582 25.858 61.3604 25.7713 61.5338C25.598 61.9382 25.6269 62.4293 25.8869 62.8049C26.1469 63.1804 26.5513 63.4116 27.0136 63.4116C27.4758 63.4116 27.0713 63.4116 27.1002 63.4116C25.7136 65.8382 24.5291 68.6982 23.4025 72.2804C23.2869 72.6849 23.3447 73.1182 23.6047 73.4649C23.8647 73.8116 24.2691 74.0138 24.6736 74.0138C25.078 74.0138 24.8469 74.0138 24.9336 74.0138C27.8802 73.4071 30.9136 72.2804 34.178 70.6049C34.178 70.8938 34.2358 71.1827 34.3802 71.4427C34.6402 71.8182 35.0447 72.0493 35.5069 72.0493C35.9691 72.0493 35.8536 72.0204 36.0269 71.9338C36.5469 71.7316 37.2691 71.3271 37.4425 71.2405C40.3313 69.7093 42.3536 67.716 43.4802 65.3471C44.2025 63.8449 44.6936 61.9382 44.7513 60.2627C44.838 57.9227 44.1736 56.0449 42.8158 54.7738C41.6602 53.7049 40.1002 53.156 38.1936 53.156L38.2802 53.1849Z" fill="#FE952D"/>
<path d="M114.684 54.051C112.749 54.1376 109.947 54.5421 106.653 55.8421C100.702 58.5865 98.4489 63.4976 99.6334 65.8088C100.616 67.7154 104.284 68.4665 108.242 67.5999C110.842 67.1376 112.807 66.3287 114.078 65.6932C116.071 64.711 120 62.7465 121.3 58.8176C121.618 57.8643 122.051 56.5643 121.416 55.4954C120.376 53.7332 117.198 53.9065 114.656 54.0221L114.684 54.051Z" fill="#9DC8F1"/>
<path d="M101.107 68.5531C104.661 68.6109 109.341 68.062 114.107 65.722C116.736 64.422 120.029 62.7175 121.243 59.1642C121.532 58.2687 122.081 56.6798 121.445 55.5242C120.058 52.982 113.558 53.2998 105.325 55.9287" stroke="#236CBA" stroke-width="1.06667" stroke-miterlimit="10"/>
<path d="M40.245 49.429C39.2628 50.0935 37.7317 51.1335 36.4895 51.9712C35.2473 52.809 35.5939 53.2712 35.9117 53.9935C36.4606 55.2068 37.4139 56.9112 39.205 58.3557C40.765 59.6557 42.4117 60.2913 43.5962 60.609C44.7806 60.9268 45.1273 60.4357 45.4739 59.7424C46.4562 57.7779 47.7273 55.2068 48.0739 54.5135C48.4206 53.8201 48.0739 54.2824 48.0162 54.2246L42.2384 49.5446C41.6895 49.0824 40.8806 49.0535 40.2739 49.4579L40.245 49.429Z" fill="#B2B2B2"/>
<path d="M47.0925 54.7156C46.8614 55.409 46.5725 57.229 45.6769 57.1712C43.9725 57.0556 41.2569 55.5245 40.0725 54.3112C39.5525 53.7912 38.2814 52.1445 38.5703 51.3934C38.8591 50.6423 40.3903 49.6312 40.6503 49.7179C40.9103 49.8045 42.4991 52.0579 43.0769 52.5201C44.2036 53.4445 45.7347 54.2823 47.1214 54.6868L47.0925 54.7156Z" fill="#9C9C9C"/>
<path d="M39.8693 48.7934C39.2049 49.2556 38.5115 49.7178 37.8471 50.18C37.1826 50.6423 37.1538 50.6423 36.8071 50.8734C36.4604 51.1045 36.0271 51.3356 35.7382 51.6534C35.1315 52.26 34.9004 53.1845 35.1315 53.9934C35.3626 54.8023 35.6804 55.2356 36.0271 55.7845C36.9515 57.3156 38.1938 58.6156 39.6671 59.5978C41.1404 60.58 41.1982 60.4934 42.0071 60.84C42.816 61.1867 43.3649 61.3889 44.0582 61.36C44.7515 61.3311 45.7049 60.7823 46.1093 60.0023C46.5138 59.2223 46.8315 58.5578 47.1782 57.8067C47.5249 57.0556 47.8426 56.4489 48.1893 55.7556C48.536 55.0623 48.8537 54.6578 48.7382 54.1378C48.6226 53.6178 47.9293 53.2423 47.5538 52.9534L45.3293 51.1623L43.1049 49.3423C42.9604 49.2267 42.8449 49.1111 42.7004 49.0245C41.8626 48.36 40.7938 48.2445 39.8693 48.8223C38.9449 49.4 39.8115 50.5556 40.5915 50.0645C41.3715 49.5734 41.0249 49.8623 41.2849 49.8911C41.5449 49.92 41.4582 49.92 41.5449 49.9778C41.6315 50.0356 41.8049 50.1511 41.6893 50.0645C41.776 50.1223 41.8338 50.18 41.9204 50.2667L43.1915 51.3067L46.6293 54.1089C46.9182 54.34 47.2649 54.5423 47.496 54.8311L47.3226 54.5134C47.236 54.3111 47.4671 54.1089 47.3226 54.3111C47.1782 54.5134 47.2649 54.3978 47.2649 54.4556C47.2071 54.5423 47.1782 54.6578 47.1204 54.7445C46.976 55.0334 46.8315 55.2934 46.716 55.5823C46.3693 56.3045 45.9937 57.0267 45.6471 57.7778C45.3004 58.5289 45.2715 58.5578 45.0693 58.9334C44.8671 59.3089 44.8093 59.5978 44.5493 59.8C44.0293 60.2045 43.336 59.8578 42.7871 59.6845C41.1404 59.0778 39.6671 58.0667 38.4826 56.7956C37.2982 55.5245 37.5004 55.5823 37.1249 54.9178C36.7493 54.2534 36.4315 53.8489 36.4893 53.3289C36.5471 52.8089 36.7782 52.78 37.0382 52.5778C37.4426 52.2889 37.8471 52.0289 38.2515 51.74C39.0315 51.22 39.8115 50.6711 40.5915 50.1511C41.3715 49.6311 40.6493 48.3889 39.8693 48.9089V48.7934Z" fill="#7A7A7A"/>
<path d="M67.7759 28.1378C65.8115 24.7289 60.0915 23.4866 56.0759 24.9311C54.6893 25.4511 52.8982 26.8666 50.2982 30.42C47.0048 34.9844 43.8559 39.6066 40.8515 44.3155C40.4182 44.98 39.9848 45.6733 39.9271 46.4533C39.8115 47.84 40.8804 49.14 41.9782 50.18C43.2204 51.3644 45.0404 53.4155 48.3915 54.9178C49.4315 55.38 51.0204 55.9866 53.0426 56.3333C55.3826 53.9355 58.7048 50.2089 61.9404 45.1244C66.4471 37.9889 70.1737 32.1244 67.8048 28.08L67.7759 28.1378Z" fill="#B2B2B2"/>
<path d="M64.6852 25.7401C62.6341 28.7445 61.103 32.3556 59.3697 35.5623C56.8563 34.4934 54.9497 32.6734 53.6208 30.3045C52.2919 27.9356 52.8697 28.8601 53.0141 28.6001C53.1586 28.3401 54.4874 27.2712 54.8052 27.0401C57.6941 24.9601 61.363 24.0934 64.7141 25.7401H64.6852Z" fill="#E06D7E"/>
<path d="M41.3726 48.5334C41.3437 48.4756 41.0837 48.4467 40.997 48.2734C40.6215 47.609 40.3904 46.7712 40.7948 46.049L50.3282 32.0378C50.5593 32.0378 50.5593 32.0378 50.6459 32.2401C50.9059 32.6734 51.137 33.4823 51.4548 33.9156L41.3726 48.5623V48.5334Z" fill="#CECECE"/>
<path d="M59.6879 39.0579C56.9145 37.1512 54.1412 35.2446 51.3679 33.3668C50.9634 33.0779 50.5301 32.789 50.3568 32.2979C50.039 31.4601 50.6168 30.5357 51.2234 29.8712C53.1879 27.6468 55.7012 25.9134 58.4745 25.249C61.2479 24.5846 64.3101 25.0468 66.5923 26.7512C67.3723 27.329 68.0657 28.109 68.3546 29.0623C68.6434 30.0157 68.4701 31.0846 68.2968 32.0957C68.0657 33.3957 67.8634 34.6957 67.6323 36.0246C67.4301 37.2379 67.1701 38.5379 66.3612 39.4623C65.6101 40.3001 64.4834 40.6468 63.4145 40.5601C62.3457 40.4734 61.3634 39.9246 60.5545 39.2023" fill="#FF8080"/>
<path d="M51.4828 33.4244C53.1006 30.0155 56.3072 27.5022 59.9761 26.6644C63.645 25.8267 62.085 26.3467 63.1539 26.3755C64.2228 26.4044 64.0784 24.96 63.1539 24.9311C59.0228 24.7289 54.8339 26.6067 52.1472 29.7555C49.4606 32.9044 50.7317 31.6333 50.2117 32.7022C49.6917 33.7711 50.125 33.4822 50.4717 33.6844C50.8184 33.8867 51.2806 33.7711 51.4539 33.4244H51.4828Z" fill="#FFAEB9"/>
<path d="M49.4866 32.5872C54.831 37.3538 61.3021 40.9072 68.2066 42.8427L49.4866 32.5872Z" fill="#B2B2B2"/>
<path d="M48.9664 33.1072C53.242 36.9205 58.1531 39.925 63.4398 42.005C68.7264 44.085 66.4442 43.1027 67.9753 43.5361C69.5064 43.9694 69.2464 42.4094 68.3509 42.1494C63.0353 40.6472 58.0086 38.2205 53.5598 34.985C49.1109 31.7494 51.1331 33.1072 49.9775 32.0961C48.822 31.085 48.2731 32.5005 48.9664 33.1072Z" fill="#7A7A7A"/>
<path d="M66.1293 26.7225C64.0493 24.3825 60.467 24.4114 59.8604 24.4114C53.8515 24.4403 50.5004 30.1025 50.2982 30.4492C45.7337 37.4403 42.4404 42.3514 40.8515 44.3447C40.6204 44.6336 40.0137 45.4136 39.9271 46.4825C39.8115 47.8692 40.8804 49.1692 41.9782 50.2092C44.5204 52.6647 46.9759 54.2247 48.3915 54.947C48.8826 55.207 49.4604 55.467 50.1248 55.7558C51.6271 56.3914 53.3893 55.8714 54.3426 54.5425C57.3759 50.3247 60.4093 46.107 63.4715 41.8892C68.3248 36.3714 68.9315 29.8136 66.1293 26.6647V26.7225Z" stroke="#7A7A7A" stroke-width="1.06667" stroke-miterlimit="10"/>
<path d="M116.164 37.1515C113.68 13.116 84.791 5.92264 69.1621 23.1693C64.0199 28.8315 60.4955 37.0937 56.9133 43.8826C55.6133 46.3382 54.371 48.4471 53.1866 51.0182C51.3955 54.8893 50.2688 57.5471 49.951 61.9382C49.8644 63.2382 50.1244 65.4915 49.8066 66.5604C49.6044 67.2537 48.6221 68.1493 48.131 68.8715C46.2821 71.6449 44.2888 76.816 45.5599 80.0804C47.2644 84.3849 52.4644 81.9293 55.4977 80.6582C55.7288 80.5426 55.9021 80.3115 56.0466 80.2826C56.7977 79.9649 59.1955 78.7804 59.831 78.9249C60.351 79.0693 62.2577 80.456 63.0088 80.8604C67.111 83.056 70.3755 83.5182 74.6799 84.6449C75.951 84.9626 75.951 86.0893 74.5933 86.176C72.7444 86.2915 70.5777 85.4826 68.7866 85.1071C68.6133 86.2626 68.0355 87.2738 67.7755 88.4004C67.5155 89.6426 67.4577 91.0582 68.3821 92.0693C70.2888 94.1493 73.4377 92.7049 75.6044 91.8093C77.9733 90.8271 80.5733 89.3249 82.5666 87.7071C83.2021 87.1871 84.4155 85.7426 84.9066 85.4826C85.3977 85.1937 86.7844 85.0204 87.4777 84.7893C95.1333 82.0738 100.853 76.9315 105.649 70.5182C112.669 61.1582 117.407 49.0538 116.164 37.1515Z" fill="#C3E2FE"/>
<path d="M53.2149 113.765L53.0993 113.909L53.0416 113.794C52.9838 113.591 53.2438 113.62 53.2727 113.591V113.765H53.2149Z" fill="#E8E8E9"/>
<path d="M53.1552 51.0176C53.3863 51.2487 53.184 51.7109 53.0974 51.9709C48.4174 65.1442 58.2974 76.4976 70.4885 80.2242C82.3041 83.8642 96.604 79.6176 105.068 70.8354C105.242 70.6331 105.271 70.3154 105.646 70.5176C100.851 76.9309 95.1596 82.0731 87.4752 84.7887C86.7818 85.0198 85.424 85.1931 84.904 85.482C84.384 85.7709 83.1996 87.1865 82.564 87.7065C80.5996 89.3242 77.9707 90.8265 75.6018 91.8087C73.2907 94.2931 69.9396 94.322 68.4374 92.762C66.964 91.202 67.744 88.5154 67.7729 88.4287C68.004 87.302 68.6107 86.2909 68.784 85.1354C70.5752 85.5109 72.7418 86.3198 74.5907 86.2042C75.9485 86.1176 75.9485 85.0198 74.6774 84.6731C70.3729 83.5465 67.0796 83.0842 63.0063 80.8887C62.2552 80.4842 60.3774 79.0976 59.8285 78.9531C59.1929 78.7798 56.7952 79.9642 56.044 80.3109C52.3752 83.2287 47.8974 83.5465 45.7885 81.7265C43.2174 79.502 43.1307 73.2042 48.1285 68.8998C48.6196 68.1487 49.5729 67.282 49.804 66.5887C50.1218 65.5198 49.8618 63.2665 49.9485 61.9665C50.2663 57.6042 51.3929 54.9176 53.184 51.0465L53.1552 51.0176Z" fill="#9DC8F1"/>
<path d="M90.2196 13.6643C102.729 13.6643 114.602 22.0999 116.162 37.151C117.404 49.0532 112.637 61.1288 105.646 70.5177C100.851 76.931 95.1596 82.0732 87.4752 84.7888C86.7819 85.0199 85.4241 85.1932 84.9041 85.4821C84.3841 85.771 83.1996 87.1866 82.5641 87.7066C80.5996 89.3243 77.9708 90.8266 75.6019 91.8088C74.2441 92.3866 72.5396 93.1666 70.9508 93.1666C69.3619 93.1666 69.1019 92.8777 68.3796 92.0977C67.4552 91.0866 67.513 89.671 67.773 88.4288C68.0041 87.3021 68.6108 86.291 68.7841 85.1355C70.4596 85.4821 72.4241 86.2043 74.1863 86.2043C75.9485 86.2043 74.4463 86.2043 74.5908 86.2043C75.9485 86.1177 75.9485 85.0199 74.6774 84.6732C70.373 83.5466 67.0796 83.0843 63.0063 80.8888C62.2552 80.4843 60.3774 79.0977 59.8285 78.9532C59.7996 78.9532 59.7419 78.9532 59.6841 78.9532C58.8752 78.9532 56.7374 80.0221 56.0441 80.311C55.9285 80.3688 55.7552 80.5999 55.4952 80.6866C53.733 81.4377 51.2774 82.5643 49.1685 82.5643C47.0596 82.5643 46.2796 81.9577 45.5574 80.1377C44.2574 76.8443 46.2796 71.7021 48.1285 68.9288C48.6196 68.1777 49.573 67.311 49.8041 66.6177C50.1219 65.5488 49.8619 63.2955 49.9485 61.9955C50.2663 57.6332 51.393 54.9466 53.1841 51.0755C54.3685 48.5043 55.6396 46.3955 56.9107 43.9399C60.493 37.1221 64.0174 28.8888 69.1596 23.2266C75.0241 16.7555 82.7374 13.7221 90.2196 13.7221M90.2196 12.5088C81.8419 12.5088 74.0707 16.0043 68.293 22.3888C64.133 26.9821 61.0707 33.0488 58.1241 38.9132C57.3441 40.4732 56.6219 41.9177 55.8707 43.3621C55.4663 44.1421 55.033 44.9221 54.6285 45.6732C53.7619 47.291 52.9241 48.7932 52.1152 50.5555C50.2663 54.5421 49.1107 57.3155 48.7641 61.851C48.7352 62.3999 48.7641 63.0355 48.7641 63.7288C48.7641 64.6243 48.8219 65.751 48.6774 66.2132C48.6196 66.4155 48.1863 66.9355 47.8974 67.2532C47.6374 67.571 47.3485 67.8888 47.1463 68.2355C46.0485 69.8821 45.0952 71.991 44.5463 73.9843C43.8241 76.5555 43.7952 78.8088 44.4885 80.5132C45.2974 82.5932 46.9152 83.691 49.1974 83.691C51.4796 83.691 53.7907 82.651 55.553 81.9288C55.6974 81.871 55.8419 81.8132 55.9863 81.7554C56.3041 81.611 56.5352 81.4377 56.6508 81.3221C56.7663 81.2643 56.9107 81.2066 57.0552 81.1488C57.5752 80.9177 59.0774 80.2243 59.6552 80.1377C59.973 80.311 60.6952 80.7732 61.1574 81.091C61.7063 81.4666 62.1685 81.7555 62.5152 81.9577C64.4219 82.9688 66.1263 83.6332 67.8307 84.1532L67.7152 85.0199C67.6574 85.5399 67.4552 86.0599 67.253 86.6088C67.0507 87.1288 66.8485 87.6488 66.733 88.2266C66.2996 90.2199 66.5885 91.8088 67.6285 92.9355C68.5241 93.8888 69.6507 94.3799 71.0663 94.3799C72.4819 94.3799 74.5041 93.6577 75.8908 93.051L76.1507 92.9355C78.8085 91.8088 81.4374 90.2488 83.4019 88.6599C83.7196 88.3999 84.1241 87.9955 84.5285 87.5621C84.8463 87.2155 85.3952 86.6666 85.5685 86.551C85.7419 86.4643 86.3196 86.3488 86.6663 86.2621C87.1285 86.1755 87.5908 86.0599 87.9374 85.9443C95.1019 83.4021 101.053 78.751 106.629 71.2688C110.355 66.2999 113.302 60.7532 115.151 55.2066C117.231 49.0243 117.982 42.9288 117.375 37.0932C116.595 29.6977 113.389 23.4288 108.102 18.951C103.22 14.8488 96.893 12.5666 90.2774 12.5666L90.2196 12.5088Z" fill="#236CBA"/>
<path d="M96.2869 11.0065C97.9336 9.73535 100.1 9.67757 101.805 10.862C103.509 12.0465 102.44 10.9198 102.585 10.6598C102.729 10.3998 102.642 10.0531 102.382 9.87979C100.389 8.49313 97.6158 8.5509 95.6802 10.0242C93.7447 11.4976 95.3047 10.5153 95.478 10.8042C95.6514 11.0931 96.0269 11.2087 96.258 11.0065H96.2869Z" fill="#236CBA"/>
<path d="M68.7879 57.3163C73.8723 55.554 78.3501 52.2029 81.4701 47.8407C82.3657 46.5985 83.1457 45.2407 83.319 43.7385C83.4923 42.2363 82.9146 40.5607 81.5857 39.8096C80.7768 39.3474 79.7657 39.2896 78.8701 39.4629C77.9746 39.6363 77.079 40.0118 76.2123 40.3874C72.3123 42.0918 68.4123 43.7963 64.5412 45.5007C63.6457 45.9051 62.6923 46.3385 62.1434 47.1474C61.6523 47.8696 61.5657 48.7651 61.5946 49.6029C61.6812 51.654 62.4612 53.6474 63.819 55.1785C65.1768 56.7096 67.0546 57.7496 69.0768 58.0963" fill="#C3E2FE"/>
<path d="M68.9612 58.0096C72.7457 56.6807 76.2412 54.5429 79.1012 51.7118C81.9612 48.8807 81.8746 48.7073 82.8857 46.9451C83.8968 45.1829 84.4457 43.0162 83.579 41.0518C82.7123 39.0873 82.5679 39.4629 81.759 39.0873C80.9501 38.7118 79.5634 38.5385 78.4368 38.7985C77.3101 39.0585 76.1834 39.6073 75.0857 40.0696C73.9879 40.5318 72.8034 41.0518 71.6768 41.5718C69.4234 42.554 67.1701 43.5362 64.9168 44.5185C62.6634 45.5007 62.9812 45.2985 62.1723 45.9918C61.3634 46.6851 60.959 47.6673 60.8434 48.7073C60.6412 50.7873 61.3346 53.0407 62.519 54.7162C63.7034 56.3918 65.4079 57.7207 67.3723 58.3851C69.3368 59.0496 68.3257 58.674 68.8168 58.7607C69.3079 58.8473 69.5968 58.6451 69.7123 58.2696C69.8279 57.894 69.5968 57.4607 69.2212 57.374C65.5812 56.7385 62.6634 53.7629 62.3168 50.0651C61.9701 46.3673 62.2301 48.2162 62.7212 47.494C63.2123 46.7718 64.0501 46.4829 64.7723 46.1651C66.8234 45.2696 68.8746 44.374 70.8968 43.4785C72.919 42.5829 74.9701 41.6585 77.0212 40.7918C79.0723 39.9251 80.7479 39.4918 81.9323 41.1096C83.1168 42.7273 82.6257 44.2873 81.9323 45.7029C81.239 47.1185 79.9101 48.794 78.6679 50.094C75.8657 53.0407 72.399 55.3229 68.5568 56.6518C64.7146 57.9807 67.9501 57.1429 68.0657 57.5473C68.1812 57.9518 68.5857 58.1829 68.9612 58.0385V58.0096Z" fill="#C3E2FE"/>
<path d="M69.5953 59.0204C73.2064 57.9804 76.5575 56.1604 79.3308 53.6181C82.1042 51.0759 83.433 49.2559 84.5019 46.4537C85.5708 43.6515 85.513 42.6115 84.993 40.7915C84.473 38.9715 83.4042 38.1915 81.9597 37.6137C80.5153 37.0359 79.5619 37.007 78.3775 37.0937C77.193 37.1804 75.7197 37.7581 74.4775 38.4226C73.2353 39.087 71.213 40.3004 69.5953 41.2537C67.9775 42.207 66.2153 43.1315 64.5108 43.9981C62.8064 44.8648 63.4419 44.547 62.893 44.807C62.0553 45.2115 62.8064 46.4826 63.6153 46.0493C67.0241 44.3448 70.3175 42.467 73.6108 40.5604C76.9042 38.6537 74.9975 39.7515 75.7197 39.3759C76.4419 39.0004 76.7019 38.9137 77.3375 38.7404C77.973 38.567 77.8864 38.5959 78.1464 38.567C78.4064 38.5381 78.0019 38.567 78.233 38.567C78.4641 38.567 78.3775 38.567 78.4353 38.567C78.6086 38.567 78.7819 38.567 78.9264 38.567C79.0708 38.567 79.3597 38.567 79.5908 38.5959C79.8219 38.6248 79.793 38.5959 79.8797 38.6248C80.0819 38.6248 79.7064 38.6248 79.9375 38.6248C80.1686 38.6248 80.1108 38.6248 80.1975 38.6537C81.4108 38.8848 82.6819 39.4048 83.2886 40.5604C83.8953 41.7159 83.4619 40.8781 83.5486 41.2248C83.6353 41.5715 83.693 42.0048 83.7219 42.4093C83.7219 43.3048 83.6064 44.2004 83.3753 45.067C82.6242 47.7826 80.8619 50.0648 78.8686 52.0004C76.8753 53.9359 72.8019 56.5648 69.133 57.6337C65.4642 58.7026 68.613 59.2804 69.5086 59.0204H69.5953Z" fill="#236CBA"/>
<path d="M108.77 35.2154C108.365 34.8399 107.903 34.7243 107.903 34.7243C106.488 34.4065 105.679 36.1687 104.032 36.7465C102.183 37.3821 101.114 35.9087 97.9366 35.1576C96.5788 34.8399 94.5855 34.5799 91.9277 35.0132C89.9921 35.331 89.241 38.3065 89.0966 38.6532C88.8944 39.1443 88.7788 39.5487 88.6921 39.8376C89.2699 41.6576 89.8188 43.4487 90.3966 45.2687C91.2632 46.0487 93.1699 47.5221 95.9721 48.1576C99.641 48.9954 102.617 47.8976 103.685 47.4354C104.928 46.0776 106.17 44.7199 107.383 43.3621C107.585 42.9287 110.561 36.9776 108.77 35.2154Z" fill="#2790E5"/>
<path d="M106.605 34.6955C105.565 35.3021 104.582 36.0243 103.34 35.9377C102.098 35.851 101.087 35.4177 99.989 35.0132C98.8912 34.6088 97.7356 34.2043 96.609 33.9155C95.4823 33.6266 95.0201 33.5977 94.2401 33.6843C92.0445 33.9155 89.849 35.2443 88.8379 37.2666C87.8267 39.2888 88.0001 42.4955 89.329 44.691C91.6979 48.6199 97.1001 50.7288 101.462 49.2266C105.825 47.7243 107.211 44.8932 108.569 41.6288C109.927 38.3643 109.407 39.3177 109.667 38.1043C109.927 36.891 109.898 36.8043 109.811 36.1399C109.725 35.4755 109.638 35.1577 109.291 34.811C108.945 34.4643 108.165 34.2621 107.558 34.3488C106.951 34.4355 106.865 34.5221 106.576 34.6955C105.94 35.071 106.518 36.0821 107.153 35.7066C107.789 35.331 107.587 35.5043 107.905 35.5043C108.367 35.5043 108.54 35.6777 108.598 36.0532C108.656 36.4288 108.656 36.8043 108.598 37.151C108.54 37.4977 108.598 37.3821 108.598 37.3532C108.598 37.2955 108.598 37.4399 108.598 37.4688C108.598 37.5555 108.598 37.6421 108.54 37.7288C108.338 38.7977 108.02 39.8666 107.616 40.8777C106.518 43.7377 104.669 46.5977 101.78 47.8977C98.8912 49.1977 93.229 48.0421 90.8023 44.8932C88.3756 41.7443 88.809 40.5599 89.589 38.3355C90.369 36.111 92.1601 35.1577 94.0956 34.8688C96.0312 34.5799 95.4823 34.8688 96.1467 35.0132C97.1578 35.2443 98.1401 35.591 99.0934 35.9377C100.047 36.2843 101.289 36.7755 102.445 36.9777C103.6 37.1799 103.542 37.1221 104.062 37.0643C104.582 37.0066 105.247 36.7466 105.767 36.4866C106.287 36.2266 106.691 35.9666 107.153 35.6777C107.616 35.3888 107.211 34.3199 106.576 34.6666L106.605 34.6955Z" fill="#236CBA"/>
<path d="M102.728 43.8821C101.89 42.7265 100.706 41.8888 99.3768 41.3399C97.9612 40.7621 96.4012 40.7621 94.899 40.6465C93.1657 40.531 91.4323 40.1554 89.7857 39.6354C88.8612 39.3465 88.4279 40.6465 89.1212 41.1088C88.6012 41.7443 89.1212 42.6977 89.4968 43.2754C89.9879 44.0265 90.5368 44.7199 91.0857 45.4132C91.6057 46.0488 92.1257 46.7421 92.7612 47.2621C93.4835 47.8688 94.3212 48.1288 95.2168 48.3599C96.8635 48.7643 98.6546 49.1688 100.301 48.5043C100.561 48.4177 100.735 48.2154 100.821 48.0132C101.37 47.8688 101.89 47.6954 102.41 47.4643C103.912 46.7999 103.479 44.9221 102.699 43.8532L102.728 43.8821Z" fill="#69B5F0"/>
<path d="M98.0164 44.6907C97.612 42.8995 96.5142 41.4551 94.9542 40.5307C93.3942 39.6062 93.0764 39.6351 92.0942 39.404C91.112 39.1729 91.112 39.2018 90.592 39.1729C90.072 39.144 89.4653 38.9995 88.9742 39.144C88.4831 39.2884 88.6564 39.7218 88.9742 39.8084C89.292 39.8951 89.9564 39.8951 90.4187 39.9529C90.8809 40.0107 91.372 40.0684 91.8342 40.184C92.7587 40.3862 93.6542 40.704 94.492 41.1662C95.8787 41.9751 97.1787 43.2751 97.6409 44.8062C98.1031 46.3373 98.1031 44.9507 98.0453 44.6907H98.0164Z" fill="#236CBA"/>
<path d="M103.622 46.8861C104.142 46.0194 103.796 44.6616 103.362 43.8238C102.929 42.9861 101.86 41.9172 100.878 41.2527C99.8958 40.5883 98.798 40.1549 97.6424 39.9238C96.4869 39.6927 96.458 39.7216 95.8513 39.7216C95.2446 39.7216 94.6091 39.7216 94.0891 39.9816C93.5691 40.2416 93.9446 40.6461 94.2913 40.7038C94.8113 40.7616 95.3602 40.6461 95.8513 40.6461C96.3424 40.6461 96.8913 40.7038 97.4113 40.8194C98.4224 41.0216 99.3758 41.3972 100.242 41.9172C101.918 42.9572 103.42 44.6616 103.218 46.7705C103.016 48.8794 103.536 47.0594 103.651 46.8861H103.622Z" fill="#236CBA"/>
<path d="M106.605 34.6955C105.565 35.3021 104.582 36.0243 103.34 35.9377C102.098 35.851 101.087 35.4177 99.989 35.0132C98.8912 34.6088 97.7356 34.2043 96.609 33.9155C95.4823 33.6266 95.0201 33.5977 94.2401 33.6843C92.0445 33.9155 89.849 35.2443 88.8379 37.2666C87.8267 39.2888 88.0001 42.4955 89.329 44.691C91.6979 48.6199 97.1001 50.7288 101.462 49.2266C105.825 47.7243 107.211 44.8932 108.569 41.6288C109.927 38.3643 109.407 39.3177 109.667 38.1043C109.927 36.891 109.898 36.8043 109.811 36.1399C109.725 35.4755 109.638 35.1577 109.291 34.811C108.945 34.4643 108.165 34.2621 107.558 34.3488C106.951 34.4355 106.865 34.5221 106.576 34.6955C105.94 35.071 106.518 36.0821 107.153 35.7066C107.789 35.331 107.587 35.5043 107.905 35.5043C108.367 35.5043 108.54 35.6777 108.598 36.0532C108.656 36.4288 108.656 36.8043 108.598 37.151C108.54 37.4977 108.598 37.3821 108.598 37.3532C108.598 37.2955 108.598 37.4399 108.598 37.4688C108.598 37.5555 108.598 37.6421 108.54 37.7288C108.338 38.7977 108.02 39.8666 107.616 40.8777C106.518 43.7377 104.669 46.5977 101.78 47.8977C98.8912 49.1977 93.229 48.0421 90.8023 44.8932C88.3756 41.7443 88.809 40.5599 89.589 38.3355C90.369 36.111 92.1601 35.1577 94.0956 34.8688C96.0312 34.5799 95.4823 34.8688 96.1467 35.0132C97.1578 35.2443 98.1401 35.591 99.0934 35.9377C100.047 36.2843 101.289 36.7755 102.445 36.9777C103.6 37.1799 103.542 37.1221 104.062 37.0643C104.582 37.0066 105.247 36.7466 105.767 36.4866C106.287 36.2266 106.691 35.9666 107.153 35.6777C107.616 35.3888 107.211 34.3199 106.576 34.6666L106.605 34.6955Z" fill="#236CBA"/>
<path d="M94.0035 27.5023C94.8413 25.74 96.3146 24.2667 98.2213 23.7467C100.128 23.2267 102.266 23.7467 103.537 25.3067C104.808 26.8667 104.519 27.1267 104.49 28.1667C104.461 29.2067 105.906 29.0911 105.935 28.1667C106.021 25.74 104.432 23.5156 102.237 22.5911C100.041 21.6667 97.1813 22.1867 95.2168 23.7178C93.2524 25.2489 93.3391 25.5956 92.7613 26.8089C92.1835 28.0223 92.6746 27.5889 93.0213 27.7911C93.368 27.9934 93.8302 27.8778 94.0035 27.5311V27.5023Z" fill="#236CBA"/>
</svg>
