<svg width="24" height="24" viewBox="0 0 24 24" fill="none" xmlns="http://www.w3.org/2000/svg">
<path d="M11.6152 0.706055C11.8689 0.653458 12.1311 0.653458 12.3848 0.706055C12.5806 0.74669 12.7949 0.843685 13.1162 1.07129C13.4462 1.30512 13.8395 1.64037 14.4082 2.125C14.8297 2.48422 15.116 2.7318 15.4502 2.90723C15.623 2.99795 15.8039 3.07377 15.9902 3.13184C16.3505 3.244 16.7283 3.27041 17.2803 3.31445C18.025 3.37388 18.5398 3.41537 18.9385 3.4834C19.3266 3.54963 19.5467 3.63244 19.7139 3.74219C19.9304 3.88437 20.1156 4.06957 20.2578 4.28613C20.3676 4.45333 20.4504 4.67336 20.5166 5.06152C20.5846 5.4602 20.6261 5.97502 20.6855 6.71973C20.7296 7.27167 20.756 7.6495 20.8682 8.00977C20.9262 8.19614 21.0021 8.37695 21.0928 8.5498C21.2682 8.884 21.5158 9.17028 21.875 9.5918C22.3596 10.1605 22.6949 10.5538 22.9287 10.8838C23.1563 11.2051 23.2533 11.4194 23.2939 11.6152C23.3465 11.8689 23.3465 12.1311 23.2939 12.3848C23.2533 12.5806 23.1563 12.7949 22.9287 13.1162C22.6949 13.4462 22.3596 13.8395 21.875 14.4082C21.5158 14.8297 21.2682 15.116 21.0928 15.4502C21.0021 15.623 20.9262 15.8039 20.8682 15.9902C20.756 16.3505 20.7296 16.7283 20.6855 17.2803C20.6261 18.025 20.5846 18.5398 20.5166 18.9385C20.4504 19.3266 20.3676 19.5467 20.2578 19.7139C20.1156 19.9304 19.9304 20.1156 19.7139 20.2578C19.5467 20.3676 19.3266 20.4504 18.9385 20.5166C18.5398 20.5846 18.025 20.6261 17.2803 20.6855C16.7283 20.7296 16.3505 20.756 15.9902 20.8682C15.8039 20.9262 15.623 21.0021 15.4502 21.0928C15.116 21.2682 14.8297 21.5158 14.4082 21.875C13.8395 22.3596 13.4462 22.6949 13.1162 22.9287C12.7949 23.1563 12.5806 23.2533 12.3848 23.2939C12.1311 23.3465 11.8689 23.3465 11.6152 23.2939C11.4194 23.2533 11.2051 23.1563 10.8838 22.9287C10.5538 22.6949 10.1605 22.3596 9.5918 21.875C9.17028 21.5158 8.884 21.2682 8.5498 21.0928C8.37695 21.0021 8.19614 20.9262 8.00977 20.8682C7.6495 20.756 7.27167 20.7296 6.71973 20.6855C5.97502 20.6261 5.4602 20.5846 5.06152 20.5166C4.67336 20.4504 4.45333 20.3676 4.28613 20.2578C4.06957 20.1156 3.88437 19.9304 3.74219 19.7139C3.63244 19.5467 3.54963 19.3266 3.4834 18.9385C3.41537 18.5398 3.37388 18.025 3.31445 17.2803C3.27041 16.7283 3.244 16.3505 3.13184 15.9902C3.07377 15.8039 2.99795 15.623 2.90723 15.4502C2.7318 15.116 2.48422 14.8297 2.125 14.4082C1.64037 13.8395 1.30512 13.4462 1.07129 13.1162C0.843685 12.7949 0.74669 12.5806 0.706055 12.3848C0.653458 12.1311 0.653458 11.8689 0.706055 11.6152C0.74669 11.4194 0.843685 11.2051 1.07129 10.8838C1.30512 10.5538 1.64037 10.1605 2.125 9.5918C2.48422 9.17028 2.7318 8.884 2.90723 8.5498C2.99795 8.37695 3.07377 8.19614 3.13184 8.00977C3.244 7.6495 3.27041 7.27166 3.31445 6.71973C3.37388 5.97502 3.41537 5.4602 3.4834 5.06152C3.54963 4.67336 3.63244 4.45333 3.74219 4.28613C3.88437 4.06957 4.06957 3.88437 4.28613 3.74219C4.45333 3.63244 4.67336 3.54963 5.06152 3.4834C5.4602 3.41537 5.97502 3.37388 6.71973 3.31445C7.27166 3.27041 7.6495 3.244 8.00977 3.13184C8.19614 3.07377 8.37695 2.99795 8.5498 2.90723C8.884 2.7318 9.17028 2.48422 9.5918 2.125C10.1605 1.64037 10.5538 1.30512 10.8838 1.07129C11.2051 0.843685 11.4194 0.74669 11.6152 0.706055Z" fill="#EAECF0"/>
<path d="M11.6152 0.706055C11.8689 0.653458 12.1311 0.653458 12.3848 0.706055C12.5806 0.74669 12.7949 0.843685 13.1162 1.07129C13.4462 1.30512 13.8395 1.64037 14.4082 2.125C14.8297 2.48422 15.116 2.7318 15.4502 2.90723C15.623 2.99795 15.8039 3.07377 15.9902 3.13184C16.3505 3.244 16.7283 3.27041 17.2803 3.31445C18.025 3.37388 18.5398 3.41537 18.9385 3.4834C19.3266 3.54963 19.5467 3.63244 19.7139 3.74219C19.9304 3.88437 20.1156 4.06957 20.2578 4.28613C20.3676 4.45333 20.4504 4.67336 20.5166 5.06152C20.5846 5.4602 20.6261 5.97502 20.6855 6.71973C20.7296 7.27167 20.756 7.6495 20.8682 8.00977C20.9262 8.19614 21.0021 8.37695 21.0928 8.5498C21.2682 8.884 21.5158 9.17028 21.875 9.5918C22.3596 10.1605 22.6949 10.5538 22.9287 10.8838C23.1563 11.2051 23.2533 11.4194 23.2939 11.6152C23.3465 11.8689 23.3465 12.1311 23.2939 12.3848C23.2533 12.5806 23.1563 12.7949 22.9287 13.1162C22.6949 13.4462 22.3596 13.8395 21.875 14.4082C21.5158 14.8297 21.2682 15.116 21.0928 15.4502C21.0021 15.623 20.9262 15.8039 20.8682 15.9902C20.756 16.3505 20.7296 16.7283 20.6855 17.2803C20.6261 18.025 20.5846 18.5398 20.5166 18.9385C20.4504 19.3266 20.3676 19.5467 20.2578 19.7139C20.1156 19.9304 19.9304 20.1156 19.7139 20.2578C19.5467 20.3676 19.3266 20.4504 18.9385 20.5166C18.5398 20.5846 18.025 20.6261 17.2803 20.6855C16.7283 20.7296 16.3505 20.756 15.9902 20.8682C15.8039 20.9262 15.623 21.0021 15.4502 21.0928C15.116 21.2682 14.8297 21.5158 14.4082 21.875C13.8395 22.3596 13.4462 22.6949 13.1162 22.9287C12.7949 23.1563 12.5806 23.2533 12.3848 23.2939C12.1311 23.3465 11.8689 23.3465 11.6152 23.2939C11.4194 23.2533 11.2051 23.1563 10.8838 22.9287C10.5538 22.6949 10.1605 22.3596 9.5918 21.875C9.17028 21.5158 8.884 21.2682 8.5498 21.0928C8.37695 21.0021 8.19614 20.9262 8.00977 20.8682C7.6495 20.756 7.27167 20.7296 6.71973 20.6855C5.97502 20.6261 5.4602 20.5846 5.06152 20.5166C4.67336 20.4504 4.45333 20.3676 4.28613 20.2578C4.06957 20.1156 3.88437 19.9304 3.74219 19.7139C3.63244 19.5467 3.54963 19.3266 3.4834 18.9385C3.41537 18.5398 3.37388 18.025 3.31445 17.2803C3.27041 16.7283 3.244 16.3505 3.13184 15.9902C3.07377 15.8039 2.99795 15.623 2.90723 15.4502C2.7318 15.116 2.48422 14.8297 2.125 14.4082C1.64037 13.8395 1.30512 13.4462 1.07129 13.1162C0.843685 12.7949 0.74669 12.5806 0.706055 12.3848C0.653458 12.1311 0.653458 11.8689 0.706055 11.6152C0.74669 11.4194 0.843685 11.2051 1.07129 10.8838C1.30512 10.5538 1.64037 10.1605 2.125 9.5918C2.48422 9.17028 2.7318 8.884 2.90723 8.5498C2.99795 8.37695 3.07377 8.19614 3.13184 8.00977C3.244 7.6495 3.27041 7.27166 3.31445 6.71973C3.37388 5.97502 3.41537 5.4602 3.4834 5.06152C3.54963 4.67336 3.63244 4.45333 3.74219 4.28613C3.88437 4.06957 4.06957 3.88437 4.28613 3.74219C4.45333 3.63244 4.67336 3.54963 5.06152 3.4834C5.4602 3.41537 5.97502 3.37388 6.71973 3.31445C7.27166 3.27041 7.6495 3.244 8.00977 3.13184C8.19614 3.07377 8.37695 2.99795 8.5498 2.90723C8.884 2.7318 9.17028 2.48422 9.5918 2.125C10.1605 1.64037 10.5538 1.30512 10.8838 1.07129C11.2051 0.843685 11.4194 0.74669 11.6152 0.706055Z" fill="url(#paint0_linear_8041_12325)" fill-opacity="0.4"/>
<path d="M11.6152 0.706055C11.8689 0.653458 12.1311 0.653458 12.3848 0.706055C12.5806 0.74669 12.7949 0.843685 13.1162 1.07129C13.4462 1.30512 13.8395 1.64037 14.4082 2.125C14.8297 2.48422 15.116 2.7318 15.4502 2.90723C15.623 2.99795 15.8039 3.07377 15.9902 3.13184C16.3505 3.244 16.7283 3.27041 17.2803 3.31445C18.025 3.37388 18.5398 3.41537 18.9385 3.4834C19.3266 3.54963 19.5467 3.63244 19.7139 3.74219C19.9304 3.88437 20.1156 4.06957 20.2578 4.28613C20.3676 4.45333 20.4504 4.67336 20.5166 5.06152C20.5846 5.4602 20.6261 5.97502 20.6855 6.71973C20.7296 7.27167 20.756 7.6495 20.8682 8.00977C20.9262 8.19614 21.0021 8.37695 21.0928 8.5498C21.2682 8.884 21.5158 9.17028 21.875 9.5918C22.3596 10.1605 22.6949 10.5538 22.9287 10.8838C23.1563 11.2051 23.2533 11.4194 23.2939 11.6152C23.3465 11.8689 23.3465 12.1311 23.2939 12.3848C23.2533 12.5806 23.1563 12.7949 22.9287 13.1162C22.6949 13.4462 22.3596 13.8395 21.875 14.4082C21.5158 14.8297 21.2682 15.116 21.0928 15.4502C21.0021 15.623 20.9262 15.8039 20.8682 15.9902C20.756 16.3505 20.7296 16.7283 20.6855 17.2803C20.6261 18.025 20.5846 18.5398 20.5166 18.9385C20.4504 19.3266 20.3676 19.5467 20.2578 19.7139C20.1156 19.9304 19.9304 20.1156 19.7139 20.2578C19.5467 20.3676 19.3266 20.4504 18.9385 20.5166C18.5398 20.5846 18.025 20.6261 17.2803 20.6855C16.7283 20.7296 16.3505 20.756 15.9902 20.8682C15.8039 20.9262 15.623 21.0021 15.4502 21.0928C15.116 21.2682 14.8297 21.5158 14.4082 21.875C13.8395 22.3596 13.4462 22.6949 13.1162 22.9287C12.7949 23.1563 12.5806 23.2533 12.3848 23.2939C12.1311 23.3465 11.8689 23.3465 11.6152 23.2939C11.4194 23.2533 11.2051 23.1563 10.8838 22.9287C10.5538 22.6949 10.1605 22.3596 9.5918 21.875C9.17028 21.5158 8.884 21.2682 8.5498 21.0928C8.37695 21.0021 8.19614 20.9262 8.00977 20.8682C7.6495 20.756 7.27167 20.7296 6.71973 20.6855C5.97502 20.6261 5.4602 20.5846 5.06152 20.5166C4.67336 20.4504 4.45333 20.3676 4.28613 20.2578C4.06957 20.1156 3.88437 19.9304 3.74219 19.7139C3.63244 19.5467 3.54963 19.3266 3.4834 18.9385C3.41537 18.5398 3.37388 18.025 3.31445 17.2803C3.27041 16.7283 3.244 16.3505 3.13184 15.9902C3.07377 15.8039 2.99795 15.623 2.90723 15.4502C2.7318 15.116 2.48422 14.8297 2.125 14.4082C1.64037 13.8395 1.30512 13.4462 1.07129 13.1162C0.843685 12.7949 0.74669 12.5806 0.706055 12.3848C0.653458 12.1311 0.653458 11.8689 0.706055 11.6152C0.74669 11.4194 0.843685 11.2051 1.07129 10.8838C1.30512 10.5538 1.64037 10.1605 2.125 9.5918C2.48422 9.17028 2.7318 8.884 2.90723 8.5498C2.99795 8.37695 3.07377 8.19614 3.13184 8.00977C3.244 7.6495 3.27041 7.27166 3.31445 6.71973C3.37388 5.97502 3.41537 5.4602 3.4834 5.06152C3.54963 4.67336 3.63244 4.45333 3.74219 4.28613C3.88437 4.06957 4.06957 3.88437 4.28613 3.74219C4.45333 3.63244 4.67336 3.54963 5.06152 3.4834C5.4602 3.41537 5.97502 3.37388 6.71973 3.31445C7.27166 3.27041 7.6495 3.244 8.00977 3.13184C8.19614 3.07377 8.37695 2.99795 8.5498 2.90723C8.884 2.7318 9.17028 2.48422 9.5918 2.125C10.1605 1.64037 10.5538 1.30512 10.8838 1.07129C11.2051 0.843685 11.4194 0.74669 11.6152 0.706055Z" stroke="#EAECF0" stroke-width="1.33333"/>
<path d="M9.77203 15.668C9.48759 15.668 9.2787 15.6057 9.14536 15.4813C9.02092 15.348 8.9587 15.1569 8.9587 14.908C8.9587 14.7569 8.9987 14.6102 9.0787 14.468C9.1587 14.3257 9.27425 14.1746 9.42536 14.0146L12.1054 11.1613C12.5143 10.7346 12.8076 10.348 12.9854 10.0013C13.1631 9.64575 13.252 9.29019 13.252 8.93463C13.252 8.49019 13.1098 8.15241 12.8254 7.9213C12.5498 7.69019 12.1454 7.57463 11.612 7.57463C11.3098 7.57463 11.0076 7.61908 10.7054 7.70797C10.4031 7.78797 10.0965 7.93019 9.78536 8.13463C9.62536 8.2413 9.47425 8.28575 9.33203 8.26797C9.1987 8.25019 9.0787 8.19241 8.97203 8.09463C8.87425 7.99686 8.80759 7.87686 8.77203 7.73463C8.73648 7.59241 8.74092 7.45019 8.78536 7.30797C8.8387 7.15686 8.94536 7.02797 9.10536 6.9213C9.48759 6.66352 9.91425 6.46797 10.3854 6.33463C10.8654 6.2013 11.3454 6.13463 11.8254 6.13463C12.5009 6.13463 13.0698 6.23686 13.532 6.4413C13.9943 6.64575 14.3454 6.94352 14.5854 7.33463C14.8254 7.72575 14.9454 8.2013 14.9454 8.7613C14.9454 9.13463 14.8831 9.49908 14.7587 9.85463C14.6431 10.2102 14.4609 10.5702 14.212 10.9346C13.972 11.2991 13.6565 11.6857 13.2654 12.0946L10.7587 14.708V14.2546H14.6787C14.9187 14.2546 15.1009 14.3124 15.2254 14.428C15.3498 14.5435 15.412 14.7169 15.412 14.948C15.412 15.1791 15.3498 15.3569 15.2254 15.4813C15.1009 15.6057 14.9187 15.668 14.6787 15.668H9.77203Z" fill="#344054"/>
<defs>
<linearGradient id="paint0_linear_8041_12325" x1="0" y1="0" x2="15.4291" y2="29.1657" gradientUnits="userSpaceOnUse">
<stop stop-color="white" stop-opacity="0"/>
<stop offset="1" stop-color="white"/>
</linearGradient>
</defs>
</svg>
