<svg width="50" height="50" viewBox="0 0 50 50" fill="none" xmlns="http://www.w3.org/2000/svg">
<g clip-path="url(#clip0_8043_2704)">
<path d="M24.9998 43.3745C22.5192 43.3745 20.1128 42.8887 17.8473 41.9305C15.6593 41.005 13.694 39.6802 12.0067 37.9927C10.3195 36.3052 8.9945 34.3402 8.069 32.1522C7.11075 29.8867 6.625 27.4803 6.625 24.9998C6.625 22.5192 7.11075 20.1127 8.069 17.8472C8.9945 15.6592 10.3192 13.694 12.0067 12.0068C13.6942 10.3195 15.6593 8.9945 17.8473 8.069C20.1128 7.11075 22.5192 6.625 24.9998 6.625C27.4803 6.625 29.8867 7.11075 32.1522 8.069C34.3402 8.9945 36.3055 10.3193 37.9927 12.0068C39.68 13.6943 41.005 15.6592 41.9305 17.8472C42.8887 20.1127 43.3745 22.5192 43.3745 24.9998C43.3745 27.4803 42.8887 29.8867 41.9305 32.1522C41.005 34.3402 39.6802 36.3055 37.9927 37.9927C36.3052 39.68 34.3402 41.005 32.1522 41.9305C29.8867 42.8887 27.4803 43.3745 24.9998 43.3745ZM24.9998 7.1245C22.5865 7.1245 20.2455 7.597 18.042 8.529C15.9135 9.42925 14.0018 10.7183 12.3603 12.3598C10.7185 14.0015 9.42975 15.913 8.5295 18.0415C7.5975 20.245 7.125 22.586 7.125 24.9992C7.125 27.4125 7.5975 29.7535 8.5295 31.957C9.42975 34.0855 10.7188 35.9972 12.3603 37.6387C14.002 39.2805 15.9135 40.5693 18.042 41.4695C20.2455 42.4015 22.5865 42.874 24.9998 42.874C27.413 42.874 29.754 42.4015 31.9575 41.4695C34.086 40.5693 35.9977 39.2802 37.6392 37.6387C39.281 35.997 40.5698 34.0855 41.47 31.957C42.402 29.7535 42.8745 27.4125 42.8745 24.9992C42.8745 22.586 42.402 20.245 41.47 18.0415C40.5698 15.913 39.2807 14.0013 37.6392 12.3598C35.9975 10.718 34.086 9.42925 31.9575 8.529C29.754 7.597 27.413 7.1245 24.9998 7.1245Z" fill="#236CBA"/>
<path d="M18.0737 13.0457C18.4557 12.5507 18.5585 11.8859 19.0707 11.5274C19.7445 11.0559 21.0765 10.9112 21.8842 10.7569C25.3777 10.0899 29.0195 10.7864 32.325 12.0997C33.3965 12.5254 34.4565 13.0242 35.3377 13.7677C36.219 14.5112 36.9142 15.5274 37.0772 16.6689C37.167 17.2972 37.0947 17.9362 37.0225 18.5667C36.9215 19.4482 36.8202 20.3299 36.7192 21.2114C36.66 21.7284 36.5692 22.3032 36.1562 22.6197C35.8117 22.8837 35.333 22.8879 34.907 22.8047C34.8032 22.7844 34.6967 22.7579 34.6147 22.6912C34.396 22.5134 34.4597 22.1707 34.5377 21.8997C35.015 20.2382 35.2525 18.5082 35.2405 16.7794C35.2362 16.1479 35.1832 15.4732 34.7977 14.9729C34.5862 14.6987 34.2922 14.5017 34.0017 14.3132C32.9397 13.6237 31.8512 12.9764 30.763 12.3292C30.3355 12.0749 29.9035 11.8187 29.43 11.6667C28.7767 11.4569 28.0765 11.4554 27.3907 11.4809C25.7177 11.5429 24.053 11.7529 22.4035 12.0389C21.7255 12.1567 21.024 12.2979 20.4707 12.7074C19.0282 13.7752 19.1397 16.2009 17.6402 17.1872C17.3127 17.4027 16.55 17.7934 16.1732 17.5157C15.7465 17.2009 16.08 16.5802 16.25 16.2319C16.8152 15.0734 17.2867 14.0664 18.074 13.0457H18.0737Z" fill="#D7D7D7"/>
<path d="M28.4137 11.2091C28.2967 10.9966 28.0729 10.9059 27.8482 10.8526C27.5779 10.7889 27.3007 10.7559 27.0247 10.7281C26.5012 10.6759 25.9764 10.6321 25.4514 10.5996C24.4157 10.5351 23.3712 10.5226 22.3402 10.6566C21.3344 10.7874 20.2824 11.0334 19.4014 11.5556C18.5139 12.0819 17.9879 13.0116 17.4384 13.8521C16.7927 14.8399 16.1887 15.8609 15.7969 16.9791C15.7907 16.9966 15.7879 17.0146 15.7869 17.0326C15.2967 17.5099 14.8062 17.9871 14.3159 18.4644C13.8277 18.9396 13.3829 19.4301 13.0249 20.0129C12.6852 20.5656 12.3714 21.1401 12.0879 21.7239C11.8039 22.3084 11.5547 22.9146 11.3922 23.5449C11.3052 23.8824 11.2014 24.2659 11.2264 24.6169C11.2529 24.9894 11.4794 25.3076 11.8664 25.3484C11.9644 25.3586 12.0747 25.2676 12.0954 25.1741C12.5897 22.9466 13.6669 20.8589 15.1969 19.1656C15.6319 18.6844 16.1019 18.2359 16.6022 17.8231C16.6449 17.7879 16.6667 17.7449 16.6732 17.6999C16.8749 17.5614 17.0794 17.4269 17.2859 17.2956C17.6642 17.0554 18.0489 16.8259 18.4377 16.6029C18.6044 16.5071 18.5717 16.3094 18.4584 16.2136C18.4907 16.1374 18.5169 16.0571 18.5432 15.9744C18.8302 15.0736 19.3407 14.2656 19.8379 13.4691C20.0689 13.0994 20.3087 12.7264 20.6744 12.4754C21.0242 12.2354 21.4254 12.0961 21.8347 11.9961C22.7832 11.7644 23.7692 11.6831 24.7382 11.5814C25.8667 11.4631 27.0187 11.3691 28.1449 11.5576C28.3447 11.5911 28.5197 11.4021 28.4132 11.2086L28.4137 11.2091Z" fill="#B7B7B7"/>
<path d="M38.7432 29.9901C39.233 29.4264 39.369 28.6466 39.486 27.9091C39.5755 27.3449 39.6655 26.7749 39.6302 26.2046C39.5922 25.5891 39.5885 23.8234 38.2497 22.4169C37.4992 21.6284 36.328 21.3971 35.2402 21.4309C34.5397 21.4526 33.867 21.5976 33.3617 22.0834C33.1017 22.3334 32.6672 22.7631 32.2372 23.6916C31.9962 24.2119 31.7635 25.3781 31.6902 26.3844C31.6112 27.4696 31.7465 28.7224 32.0325 29.4929C32.4505 30.6191 33.0047 31.0566 33.3935 31.0624" fill="#D7D7D7"/>
<path d="M10.5891 22.7847C10.9771 23.4365 10.7263 24.2842 10.3346 24.934C9.94282 25.5837 9.41282 26.1705 9.21182 26.902C9.17332 27.0422 9.15207 27.2067 9.24207 27.321C9.28782 27.379 9.35582 27.4147 9.42407 27.4427C9.81107 27.6017 10.2686 27.3707 10.7608 27.2105C11.1838 27.073 11.6546 27.0397 11.8731 26.7542C12.3458 26.1367 12.1323 25.3117 12.3626 24.5687C13.4503 21.058 15.7268 17.769 19.0531 16.2057C22.4098 14.6282 26.4278 14.9947 29.8633 16.3927C31.7606 17.1647 33.6296 18.3342 34.5326 20.1727C34.7343 20.5835 34.8596 21.1362 34.5288 21.4522C34.3958 21.5792 34.2143 21.638 34.0451 21.7105C33.0751 22.126 32.4146 23.0742 32.0953 24.08C31.7761 25.0857 31.7511 26.1577 31.7293 27.2127C31.7136 27.971 31.7003 28.7462 31.9348 29.4675C32.1693 30.1887 32.7018 30.8592 33.4363 31.0485C33.6806 29.7885 34.0871 28.56 34.6423 27.403C34.9341 26.795 35.3186 26.1607 35.9531 25.9325C36.8156 25.622 37.7888 26.235 38.2076 27.0505C38.6263 27.866 38.6341 28.8225 38.6468 29.739C38.6596 30.6557 38.6988 31.6177 39.1666 32.4062C39.4491 32.8825 39.8801 33.2795 40.0436 33.8087C40.3193 34.7022 39.7486 35.623 39.1533 36.3442C35.8653 40.3275 30.8578 42.8535 25.6976 43.0785C20.5373 43.3037 15.3096 41.2095 11.7693 37.4485C9.86707 35.4277 8.47407 32.9422 7.69332 30.282C7.29882 28.938 7.06007 27.5477 6.99107 26.1485C6.95782 25.4742 6.97382 24.8017 7.00557 24.128C7.02507 23.7105 7.01632 23.23 7.24332 22.8607C7.87307 21.8375 9.95682 21.7222 10.5893 22.7845L10.5891 22.7847Z" fill="#D2E8FC"/>
<path d="M18.6199 16.5086C18.9626 15.6376 19.4149 14.8153 19.8866 14.0088C20.0939 13.6546 20.2919 13.2833 20.5474 12.9606C20.8109 12.6278 21.1284 12.4061 21.5404 12.2966C21.9906 12.1771 22.4619 12.1148 22.9234 12.0553C23.4084 11.9928 23.8954 11.9456 24.3824 11.9031C25.3564 11.8178 26.3309 11.7391 27.3049 11.6576C27.9891 11.6003 28.6921 11.6198 29.3734 11.7103C29.4679 11.7228 29.5474 11.6208 29.5484 11.5353C29.5494 11.4306 29.4666 11.3728 29.3734 11.3603C29.0759 11.3208 28.7746 11.3048 28.4754 11.2911C28.1766 11.2773 27.8741 11.2626 27.5756 11.2851C26.5676 11.3606 25.5601 11.4523 24.5529 11.5386C23.5666 11.6231 22.5659 11.7073 21.5979 11.9228C21.1654 12.0191 20.7791 12.1998 20.4681 12.5208C20.1811 12.8171 19.9711 13.1776 19.7624 13.5301C19.2109 14.4616 18.6796 15.4066 18.2824 16.4158C18.1999 16.6256 18.5381 16.7163 18.6199 16.5088V16.5086Z" fill="#696969"/>
<path d="M10.517 24.6696C10.4853 24.6041 10.4533 24.5386 10.4215 24.4731C10.3888 24.4056 10.3145 24.3649 10.2385 24.3574C10.1328 24.0611 10.0673 23.7566 10.0425 23.4471C10.0433 23.2464 10.044 23.0456 10.0448 22.8451C10.045 22.7799 10.025 22.7291 9.99354 22.6919C9.99504 22.6901 9.99604 22.6884 9.99754 22.6869C10.2063 22.4639 9.87104 22.1271 9.66154 22.3511C9.47229 22.5534 9.44529 22.8104 9.44129 23.0759C9.43829 23.2824 9.58829 23.8204 9.50929 24.0131C9.34604 24.4116 9.19804 24.5954 8.94354 24.9369C8.66779 25.3069 8.44679 25.6751 8.38029 26.1391C8.34104 26.4134 8.08929 26.7111 7.95504 26.9604C7.83454 27.1841 7.28379 27.5474 7.14354 27.7584C6.80279 28.2711 7.01954 28.5574 7.37454 29.0859C7.44529 29.1914 7.58379 29.2406 7.69954 29.1711C8.09004 28.9359 8.34679 28.5219 8.62104 28.1694C8.76054 27.9901 8.95479 27.8031 9.00754 27.5751C9.05829 27.3564 9.02029 27.1211 9.05329 26.8986C9.08529 26.6814 9.14954 26.4706 9.26154 26.2814C9.37704 26.0861 9.52629 25.9134 9.66829 25.7371C9.83229 25.5339 9.99754 25.3316 10.16 25.1274C10.1888 25.0914 10.2173 25.0549 10.243 25.0169C10.3068 25.0351 10.378 25.0296 10.4313 24.9951C10.546 24.9211 10.5748 24.7899 10.5165 24.6701L10.517 24.6696Z" fill="#BCD5EC"/>
<path d="M30.0547 16.6445C31.2547 17.6303 32.2254 18.8935 32.8692 20.307C33.0469 20.6973 33.2029 21.1275 33.1144 21.5473C33.0189 22.0003 32.6622 22.343 32.3647 22.6978C31.0802 24.2303 30.7377 26.3713 30.9414 28.3605C31.0397 29.3198 31.2794 30.3193 31.9467 31.0153C32.2227 31.3033 32.5737 31.5435 32.7242 31.913C32.8414 32.2005 32.8179 32.5228 32.8114 32.8333C32.7859 34.0665 33.0654 35.305 33.6182 36.4078C33.7474 36.6655 33.9074 36.9315 34.1694 37.052C33.9757 35.268 33.7819 33.484 33.5879 31.7003C33.5759 31.5908 33.5632 31.4783 33.5107 31.3815C33.4612 31.29 33.3802 31.2203 33.2987 31.1555C32.9587 30.885 32.5724 30.6583 32.3142 30.309C32.0604 29.9658 31.9552 29.5368 31.8794 29.1165C31.6054 27.5963 31.6444 26.0205 31.9934 24.5158C32.1307 23.9238 32.3189 23.335 32.6459 22.8228C32.9732 22.3105 33.4519 21.877 34.0327 21.697C34.2049 21.6435 34.3947 21.6068 34.5194 21.4768C34.7079 21.2803 34.6672 20.9638 34.5947 20.7013C34.0542 18.7428 32.3704 17.1458 30.3862 16.709" fill="#BCD5EC"/>
<path d="M40.2031 34.2039C40.0686 34.0467 39.7251 33.7084 39.6373 33.5002C38.8533 31.6369 38.6083 30.0822 38.3781 27.9652C38.3376 27.5932 38.2948 27.2122 38.1593 26.8832C38.0236 26.5542 37.7731 26.2834 37.4928 26.2892C37.1596 26.2959 36.8988 26.6712 36.7181 27.0467C36.0718 28.3887 35.9073 30.0427 35.8638 31.6389C35.8218 33.1782 35.8786 34.7354 36.1771 36.2227C36.2793 36.7327 36.4101 37.2337 36.4851 37.7522C36.5856 38.4459 36.6573 38.3597 36.5553 39.0529C37.0261 38.4684 37.8193 37.8972 38.2903 37.3127C39.0353 36.3879 39.8071 36.1227 40.2036 34.8694" fill="#BCD5EC"/>
<path d="M39.7221 26.3083C39.4229 25.462 39.5456 24.7945 39.2446 23.9493C39.0864 23.505 38.8346 23.1218 38.5024 22.7878C38.3366 22.621 38.1591 22.463 37.9739 22.3185C37.7656 22.1563 37.5451 22.065 37.2826 22.0338C36.4194 21.9313 35.5149 22.271 34.8684 22.8345C34.5226 23.1358 34.2609 23.5193 34.0509 23.924C33.8189 24.372 33.6374 24.8465 33.5559 25.3458C33.4654 25.8995 33.4411 26.4708 33.4281 27.031C33.4151 27.593 33.4516 28.1658 33.6399 28.6998C33.6751 28.7993 33.7591 28.874 33.8689 28.874C33.9646 28.874 34.0824 28.801 34.0979 28.6998C34.1931 28.0783 34.3709 27.4573 34.6614 26.8975C34.9219 26.3958 35.4741 26.1048 36.0186 25.9098C36.5119 25.733 36.8836 25.6155 37.3496 25.8618C37.8689 26.1363 38.1579 26.6253 38.3456 27.1655C38.5836 27.85 38.6686 28.571 38.6064 29.2925C38.5964 29.4088 38.7044 29.513 38.8124 29.5258C38.9341 29.5403 39.0326 29.47 39.0729 29.3558C39.3376 28.604 39.5989 27.8388 39.6419 27.036C39.6451 26.975 39.6466 26.914 39.6466 26.853C39.7589 26.8158 39.7639 26.4258 39.7221 26.308V26.3083Z" fill="#C6C6C6"/>
<path d="M7.25356 22.8136C7.85531 22.5171 8.54731 22.2969 9.22156 22.2644C9.40631 22.2554 9.52556 22.2816 9.71556 22.3444C9.92131 22.4121 10.0783 22.5276 10.1871 22.7049C10.4558 23.1416 10.5548 23.7076 10.4923 24.2151C10.4161 24.8356 10.0056 25.2679 9.62156 25.7276C9.15706 26.2836 8.70056 27.0296 8.98681 27.7769C9.03506 27.9029 9.15506 27.9896 9.29431 27.9514C9.41481 27.9181 9.51756 27.7706 9.46881 27.6439C9.21956 26.9934 9.71506 26.3839 10.1126 25.9189C10.3351 25.6586 10.5661 25.3944 10.7303 25.0919C10.8901 24.7974 10.9723 24.4729 10.9996 24.1404C11.0458 23.5716 10.9198 22.9416 10.6188 22.4524C10.3378 21.9956 9.82081 21.7824 9.29806 21.7644C9.14181 21.7589 8.98231 21.7876 8.82831 21.8094C8.61881 21.8391 8.41106 21.8796 8.20606 21.9319C7.78956 22.0379 7.38631 22.1921 7.00106 22.3819C6.88006 22.4416 6.84656 22.6134 6.91131 22.7239C6.98356 22.8474 7.13181 22.8734 7.25331 22.8136H7.25356Z" fill="#236CBA"/>
<path d="M12.177 25.6328C11.4492 25.369 10.829 24.821 10.4777 24.1313C10.3887 23.9565 10.316 23.7725 10.273 23.581C10.2115 23.3088 10.2105 23.0263 10.23 22.7478C10.3552 20.9498 11.3125 19.308 12.4647 17.922C12.9327 17.3593 13.4532 16.8138 14.1142 16.4995C14.7752 16.1853 15.4892 16.1093 16.027 16.448L15.465 18.4113C12.1905 20.661 12.914 21.823 12.1772 25.6325L12.177 25.6328Z" fill="#D7D7D7"/>
<path d="M16.062 16.3496C16.0558 16.3671 15.7213 17.3216 15.7205 17.3396C15.2303 17.8169 14.7398 18.2941 14.2495 18.7714C13.7613 19.2466 13.3165 19.7371 12.9585 20.3199C12.6188 20.8726 12.305 21.4471 12.0215 22.0309C11.7375 22.6154 11.4883 23.2216 11.3258 23.8519C11.2388 24.1894 11.135 24.5729 11.16 24.9239C11.1865 25.2964 11.413 25.6146 11.8 25.6554C11.898 25.6656 12.0083 25.5746 12.029 25.4811C12.5233 23.2536 13.6005 21.1659 15.1305 19.4726C15.5655 18.9914 16.0355 18.5429 16.5358 18.1301C16.5785 18.0949 16.6003 18.0519 16.6068 18.0069C16.8085 17.8684 17.017 17.4441 17.2235 17.3131C17.6018 17.0729 15.4553 18.6954 15.64 18.3689" fill="#C6C6C6"/>
<path d="M12.1109 25.3931C11.4087 25.1336 10.8222 24.5853 10.5117 23.9046C10.3227 23.4906 10.3169 23.0486 10.3592 22.6033C10.3977 22.1981 10.4854 21.7976 10.6052 21.4086C10.8517 20.6063 11.2469 19.8578 11.7127 19.1618C12.1694 18.4793 12.6904 17.8001 13.3074 17.2543C13.9307 16.7031 14.9654 16.1758 15.7682 16.6653C16.0437 16.8333 16.2952 16.4011 16.0204 16.2336C15.1904 15.7276 14.1179 16.0458 13.3762 16.5668C12.6224 17.0963 12.0294 17.8538 11.4974 18.5968C10.9634 19.3426 10.5102 20.1513 10.2072 21.0191C10.0534 21.4596 9.94592 21.9128 9.88517 22.3753C9.82142 22.8621 9.79692 23.3726 9.95417 23.8451C10.2692 24.7913 11.0524 25.5331 11.9779 25.8753C12.1047 25.9221 12.2519 25.8231 12.2854 25.7008C12.3239 25.5611 12.2379 25.4403 12.1109 25.3933V25.3931Z" fill="#696969"/>
<path d="M37.0617 16.372C36.9477 16.06 36.5909 16.0245 36.3102 15.946C35.9974 15.8585 35.6847 15.7712 35.3717 15.6837C35.0769 15.6012 34.9509 16.0595 35.2454 16.1417L35.2912 16.1545C35.3004 16.9865 35.2619 17.8185 35.1734 18.6457C35.0879 19.4435 34.9549 20.2372 34.7229 21.0062C34.6894 21.117 34.7632 21.2815 34.8889 21.2985C35.1717 21.3365 35.4544 21.3745 35.7374 21.4125C35.9697 21.4437 36.3229 21.5897 36.5177 21.4262C36.7199 21.2562 36.6164 20.8297 36.6529 20.5885C36.6967 20.3002 36.7404 20.0117 36.7842 19.7235C36.8699 19.159 36.9599 18.5947 37.0404 18.0292C37.0807 17.7465 37.1172 17.4627 37.1274 17.177C37.1364 16.9217 37.1507 16.6147 37.0619 16.3715L37.0617 16.372Z" fill="#C6C6C6"/>
<path d="M27.7512 10.9214C28.8202 11.1314 29.8742 11.4144 30.9037 11.7716C31.9032 12.1184 32.8727 12.5371 33.7817 13.0809C34.622 13.5836 35.445 14.1737 36.1307 14.8762C36.441 15.1939 36.7267 15.5581 36.874 15.9821C37.045 16.4749 36.9942 17.0009 36.9552 17.5114C36.8585 18.7706 36.663 20.0189 36.4672 21.2656C36.4525 21.3596 36.4912 21.4526 36.5895 21.4809C36.6725 21.5046 36.7902 21.4519 36.8047 21.3587C36.9835 20.2184 37.1625 19.0769 37.2697 17.9274C37.3212 17.3744 37.3935 16.7991 37.3027 16.2469C37.226 15.7789 36.9902 15.3581 36.699 14.9904C36.3997 14.6129 36.0357 14.2906 35.6652 13.9851C35.2647 13.6546 34.846 13.3456 34.4112 13.0616C33.4982 12.4656 32.5165 11.9944 31.496 11.6136C30.3095 11.1706 29.0867 10.8279 27.8442 10.5839C27.6242 10.5406 27.53 10.8779 27.7512 10.9214Z" fill="#696969"/>
<path d="M38.8661 30.1137C39.4619 29.4142 39.5804 28.469 39.7104 27.592C39.7816 27.111 39.8279 26.6322 39.8011 26.1457C39.7884 25.9155 39.7764 25.6855 39.7514 25.456C39.5854 23.9427 38.8706 22.2595 37.3901 21.6185C36.6129 21.2817 35.7174 21.1922 34.8789 21.2792C34.4556 21.323 34.0351 21.423 33.6641 21.638C33.3889 21.7975 33.1566 22.0225 32.9459 22.2587C32.4416 22.8237 32.0601 23.5142 31.8629 24.2452C31.6281 25.1147 31.5001 26.0375 31.4926 26.938C31.4856 27.797 31.5614 28.7117 31.8574 29.5245C32.0819 30.141 32.4464 30.9122 33.0989 31.1752C33.1929 31.213 33.2911 31.2345 33.3926 31.2375C33.6179 31.2442 33.6176 30.8942 33.3926 30.8875C33.3431 30.886 33.2479 30.8637 33.1896 30.8355C33.0906 30.7875 33.0024 30.7235 32.9221 30.6487C32.6789 30.4225 32.5051 30.13 32.3629 29.8325C32.0134 29.102 31.8921 28.2817 31.8534 27.4797C31.8111 26.6017 31.8999 25.7222 32.0769 24.8622C32.1474 24.519 32.2269 24.1682 32.3601 23.8432C32.5071 23.4847 32.7109 23.1382 32.9371 22.8242C33.0879 22.615 33.2609 22.4242 33.4459 22.2447C33.7164 21.982 34.0391 21.8097 34.4036 21.7147C34.7886 21.6145 35.1911 21.595 35.5874 21.6045C35.9864 21.614 36.3836 21.6622 36.7689 21.7685C37.1391 21.8705 37.4936 22.0272 37.8039 22.2552C38.1296 22.4945 38.3961 22.8227 38.6159 23.1587C39.0036 23.7515 39.2386 24.4245 39.3549 25.1205C39.4441 25.6542 39.4846 26.2262 39.4529 26.7662C39.4251 27.2405 39.3454 27.7127 39.2639 28.1802C39.1936 28.5845 39.1084 28.9982 38.9319 29.3715C38.8481 29.5487 38.7456 29.7167 38.6184 29.8662C38.4731 30.0367 38.7196 30.2855 38.8659 30.1137H38.8661Z" fill="#696969"/>
<path d="M11.4491 24.9877C11.5959 23.1685 12.3979 21.4817 13.3806 19.9707C13.5741 19.6732 13.0981 19.3972 12.9056 19.6932C12.1026 20.9275 11.4229 22.2722 11.0934 23.7152C10.9979 24.1337 10.9336 24.5597 10.8991 24.9877C10.8871 25.136 11.0341 25.2627 11.1741 25.2627C11.3329 25.2627 11.4371 25.1365 11.4491 24.9877Z" fill="#696969"/>
<path d="M33.7889 23.9484C33.6381 24.1934 33.5529 24.4842 33.4799 24.7604C33.3896 25.1029 33.3236 25.4522 33.2746 25.8029C33.2204 26.1909 33.1874 26.5812 33.1804 26.9729C33.1724 27.4207 33.2349 27.8507 33.2999 28.2919C33.3571 28.6817 33.4726 29.0014 33.7441 29.2962C33.9844 29.5572 34.3726 29.1674 34.1331 28.9072C33.9369 28.6942 33.8841 28.5002 33.8404 28.2122C33.7824 27.8307 33.7279 27.4577 33.7296 27.0704C33.7326 26.3812 33.8161 25.6974 33.9796 25.0284C34.0186 24.8689 34.0624 24.7104 34.1159 24.5549C34.1626 24.4192 34.1829 24.3579 34.2641 24.2259C34.4501 23.9237 33.9746 23.6472 33.7891 23.9484H33.7889Z" fill="#696969"/>
<path d="M32.0295 39.8551C32.0033 39.1626 31.83 38.4699 31.6293 37.8096C31.4363 37.1749 31.1915 36.5549 30.9043 35.9569C30.6225 35.3704 30.2947 34.8059 29.9245 34.2709C29.733 33.9941 29.524 33.7321 29.3198 33.4649C29.346 33.4989 29.276 33.4041 29.2772 33.4059C29.2537 33.3726 29.231 33.3386 29.21 33.3036C29.196 33.2804 29.184 33.2564 29.1703 33.2331C29.163 33.2206 29.1578 33.2126 29.154 33.2076C29.1528 33.2016 29.1508 33.1931 29.1473 33.1809C29.1083 33.0411 29.1225 32.9039 29.152 32.7514C29.4218 31.3656 29.8053 29.9634 29.6188 28.5406C29.5415 27.9519 29.3822 27.3656 29.099 26.8419C29.3115 26.6551 29.4872 26.4264 29.6365 26.1726C29.9032 25.7191 30.1058 25.2179 30.255 24.7141C30.566 23.6651 30.6282 22.5569 30.4777 21.4759C30.3352 20.4516 29.9808 19.4586 29.4763 18.5574C29.2158 18.0919 28.9105 17.6536 28.5748 17.2391C28.2403 16.8264 27.8678 16.4454 27.42 16.1546C26.466 15.5356 25.2542 15.3621 24.1555 15.6301C24.1505 15.6314 24.146 15.6331 24.1413 15.6346C23.417 15.5961 22.6763 15.6231 21.9565 15.7101C21.8798 15.7194 21.803 15.7296 21.7267 15.7406C21.7515 15.5661 21.6565 15.3354 21.4598 15.3081C21.112 15.2599 20.8315 15.3714 20.5445 15.5611C20.304 15.7204 20.068 15.8864 19.8365 16.0584C19.8207 16.0701 19.8048 16.0819 19.7885 16.0939C19.4053 16.1871 19.034 16.3774 18.7232 16.5809C18.0082 17.0491 17.3355 17.6024 16.6957 18.1679C16.058 18.7319 15.4545 19.3344 14.8898 19.9714C14.3008 20.6356 13.7255 21.3241 13.3758 22.1481C13.011 23.0074 12.7842 23.9286 12.5162 24.8211C12.3782 25.2811 12.24 25.7411 12.102 26.2011C12.0305 26.4394 11.9748 26.6894 12.1103 26.9171C11.975 26.9394 11.8403 26.9676 11.7077 26.9936C11.4712 27.0401 11.2362 27.0941 11.0042 27.1591C10.1187 27.4064 9.26175 27.8176 8.6095 28.4781C8.39625 28.6941 8.2005 28.9414 8.041 29.2096C7.96525 29.2719 7.9025 29.3536 7.8585 29.4491C7.734 29.7201 7.659 30.0109 7.625 30.3069C7.6555 30.3394 7.68 30.3766 7.6955 30.4186C8.10525 31.5374 8.54475 32.6446 8.979 33.7541C9.03725 33.7766 9.097 33.7944 9.15725 33.8081C9.341 34.1164 9.53825 34.4154 9.74725 34.7061C9.8725 34.8924 10.008 35.0721 10.1542 35.2444C10.2225 35.3249 10.3267 35.3576 10.4302 35.3521C10.4412 35.3576 10.4527 35.3624 10.4642 35.3666C10.4755 35.3801 10.4867 35.3936 10.498 35.4071C10.424 35.5229 10.3992 35.6811 10.4862 35.7951C11.3115 36.8781 12.2407 37.8729 13.2785 38.7551C13.3417 38.8089 13.4167 38.8436 13.494 38.8559C13.7265 39.0196 13.9618 39.1791 14.1995 39.3346C14.1923 39.4391 14.2247 39.5436 14.3092 39.6099C14.9412 40.1059 15.609 40.5479 16.3205 40.9221C16.369 40.9476 16.421 40.9629 16.4732 40.9679C16.6557 41.1304 16.848 41.2861 17.0517 41.4186C17.2875 41.5719 17.5357 41.6601 17.8037 41.6649C17.8125 41.6681 17.8212 41.6711 17.83 41.6744C18.182 41.8396 18.5487 41.9741 18.9237 42.0751C19.0212 42.1014 19.1255 42.0851 19.211 42.0359C19.2742 42.0464 19.338 42.0559 19.4017 42.0649C19.4075 42.0656 19.4132 42.0666 19.419 42.0674C19.4522 42.0719 19.4852 42.0769 19.5187 42.0809C19.5727 42.0876 19.6245 42.0764 19.6717 42.0534C19.7755 42.0779 19.8805 42.0964 19.986 42.1096C20.0292 42.1521 20.0835 42.1859 20.147 42.2079C20.181 42.2196 20.215 42.2304 20.2493 42.2401C20.3068 42.3724 20.4338 42.4504 20.5915 42.4681C20.8535 42.4974 21.116 42.5181 21.379 42.5311C21.6738 42.6084 21.9688 42.6859 22.2635 42.7631C22.3133 42.7761 22.3658 42.7779 22.4165 42.7699C22.5983 42.8239 22.7815 42.8736 22.9658 42.9179C23.0555 42.9394 23.1488 42.9299 23.2288 42.8914L23.8965 42.8834C23.9565 43.0806 24.1595 43.1781 24.3545 43.1351L25.0813 42.9751C25.1448 42.9686 25.2075 42.9584 25.2698 42.9439C25.3443 42.9386 25.417 42.9169 25.4772 42.8771C25.4857 42.8729 25.4942 42.8684 25.5025 42.8636L25.5513 42.8631C25.659 42.8619 25.7643 42.8101 25.8358 42.7301C26.1428 42.7611 26.4523 42.7534 26.758 42.7054C27.1978 42.8306 27.6738 42.7849 28.0955 42.5829C28.118 42.5721 28.1383 42.5579 28.1568 42.5416C28.175 42.5584 28.195 42.5739 28.2175 42.5876C28.3825 42.6884 28.591 42.7076 28.7785 42.6846C29.0618 42.6496 29.2963 42.5079 29.5413 42.3846C29.5493 42.3941 29.557 42.4036 29.565 42.4131C29.6932 42.5646 29.9492 42.5484 30.0865 42.4211C30.5977 42.4029 31.0808 42.1556 31.4258 41.7619C31.888 41.2346 32.0553 40.5444 32.0293 39.8541L32.0295 39.8551ZM8.448 30.1344C8.45475 30.1111 8.462 30.0881 8.4695 30.0651C8.47825 30.0384 8.488 30.0121 8.4975 29.9856C8.5195 30.0184 8.541 30.0516 8.562 30.0849C8.5215 30.0949 8.483 30.1116 8.448 30.1344ZM17.2747 23.3176C17.2887 23.2854 17.3027 23.2534 17.3172 23.2211C17.3972 23.0416 17.4833 22.8644 17.5745 22.6904C17.7603 22.3359 17.9688 21.9931 18.198 21.6649C18.419 21.3484 18.6323 21.0824 18.9013 20.7864C19.1705 20.4901 19.4588 20.2111 19.7635 19.9516C19.9143 19.8234 20.062 19.7094 20.2103 19.5954C20.27 19.7031 20.4027 19.7711 20.5485 19.6961C20.7892 19.5726 21.03 19.4491 21.2707 19.3256C21.3855 19.2884 21.4995 19.2484 21.6128 19.2056C21.6283 19.1999 21.6433 19.1929 21.6573 19.1849C21.8848 19.1456 22.1122 19.1064 22.3397 19.0674C22.3497 19.0706 22.3602 19.0734 22.3715 19.0751C22.4307 19.0841 22.49 19.0929 22.549 19.1019C22.571 19.1176 22.5967 19.1301 22.6267 19.1376C22.8617 19.1971 23.1015 19.2361 23.343 19.2544C23.4642 19.2836 23.5842 19.3179 23.7025 19.3571C23.9577 19.5681 24.2697 19.6909 24.6045 19.7289C24.716 19.7416 24.7935 19.6744 24.8277 19.5856C25.0457 19.7764 25.275 19.9544 25.5142 20.1191C25.54 20.1369 25.5692 20.1474 25.5992 20.1519C25.981 20.8049 26.4073 21.4289 26.872 22.0254C26.9018 22.3779 26.9668 22.7261 27.0658 23.0644C27.0635 23.1504 27.0645 23.2364 27.069 23.3219C27.0898 23.7079 27.1745 24.0826 27.317 24.4386C26.873 24.9781 26.6923 25.7029 26.8018 26.3874C26.7025 26.4316 26.6035 26.4759 26.5048 26.5206C26.1763 26.5734 25.8527 26.6564 25.5402 26.7706C25.5295 26.7629 25.5185 26.7556 25.5068 26.7489C24.6835 26.2729 23.7893 25.9161 22.8635 25.6994C22.7268 25.6674 22.6015 25.7064 22.51 25.7829C22.2648 25.7056 22.0057 25.6656 21.7457 25.6366C21.697 25.5449 21.616 25.4706 21.5085 25.4411C20.8365 25.2561 20.139 25.2169 19.4525 25.3139C19.1248 25.2114 18.7973 25.1154 18.4495 25.0759C18.3888 25.0689 18.3282 25.0854 18.2732 25.1154C18.2017 25.0104 18.1315 24.9044 18.0622 24.7976C17.8702 24.2914 17.6147 23.8094 17.2972 23.3704C17.2877 23.3574 17.2777 23.3451 17.2675 23.3331C17.2712 23.3246 17.2742 23.3171 17.274 23.3179L17.2747 23.3176ZM16.6502 24.6496C16.6865 24.7361 16.7217 24.8231 16.756 24.9111C16.6822 24.8779 16.6055 24.8511 16.5265 24.8309C16.57 24.7721 16.611 24.7116 16.6502 24.6496ZM13.778 32.2706C13.7525 32.2739 13.727 32.2801 13.7015 32.2894C13.6642 32.1454 13.6272 32.0011 13.5907 31.8566C13.6467 31.9981 13.7093 32.1361 13.7778 32.2704L13.778 32.2706ZM14.031 37.1049C14.0282 37.1086 14.026 37.1124 14.0232 37.1161C13.7942 36.8166 13.5613 36.5201 13.3245 36.2266L13.2472 36.1004C13.2512 36.0811 13.254 36.0614 13.255 36.0416C13.5055 36.3996 13.7692 36.7486 14.0455 37.0871C14.0405 37.0929 14.0353 37.0989 14.0308 37.1051L14.031 37.1049ZM22.8658 39.9581C22.854 39.9476 22.8425 39.9371 22.8307 39.9269C22.8577 39.9409 22.8847 39.9546 22.912 39.9681C22.8965 39.9649 22.8813 39.9614 22.8658 39.9584V39.9581ZM23.5688 35.8964C23.562 35.8954 23.555 35.8949 23.5482 35.8939C23.6325 35.8774 23.7165 35.8596 23.8003 35.8406C23.7233 35.8596 23.646 35.8784 23.569 35.8964H23.5688ZM25.2797 35.4499C25.2295 35.4421 25.1773 35.4436 25.1255 35.4564C25.0145 35.4836 24.904 35.5131 24.794 35.5444C24.9903 35.4691 25.1817 35.3839 25.3675 35.2871C25.3352 35.3409 25.3057 35.3956 25.2797 35.4499ZM27.6777 29.2871C27.4807 30.2416 27.397 31.2181 27.434 32.1914C27.3335 32.4304 27.2443 32.6739 27.1673 32.9206C27.0483 33.0396 26.965 33.1896 26.8978 33.3456C26.8573 33.4394 26.8228 33.5339 26.7935 33.6289C26.7595 33.5926 26.7175 33.5629 26.6673 33.5426C26.5403 33.4916 26.3513 33.5031 26.2575 33.6201C26.149 33.7556 26.0323 33.8841 25.9063 34.0036C25.844 34.0626 25.7798 34.1194 25.7138 34.1739C25.695 34.1894 25.676 34.2046 25.6568 34.2199C25.6565 34.2199 25.6488 34.2261 25.6413 34.2319C25.633 34.2379 25.617 34.2499 25.6165 34.2501C25.5918 34.2679 25.5672 34.2859 25.5422 34.3036C25.4022 34.4021 25.2562 34.4919 25.1057 34.5734C25.03 34.6144 24.9533 34.6534 24.8753 34.6904C24.8363 34.7089 24.797 34.7271 24.7573 34.7446C24.7403 34.7521 24.7233 34.7596 24.7063 34.7671C24.7005 34.7696 24.6965 34.7714 24.6938 34.7726C24.6888 34.7746 24.6828 34.7771 24.6755 34.7799C24.347 34.9109 24.01 35.0154 23.6658 35.0969C23.485 35.1396 23.3028 35.1764 23.12 35.2084C23.0378 35.2226 22.9553 35.2361 22.8728 35.2486C22.8283 35.2554 22.7837 35.2619 22.7392 35.2681C22.7362 35.2686 22.7335 35.2689 22.7313 35.2694C22.7035 35.2731 22.6758 35.2766 22.648 35.2801C21.839 35.3806 21.012 35.4341 20.197 35.4029C19.33 35.3694 18.5047 35.1796 17.7347 34.7744C17.0387 34.4079 16.3148 33.9429 15.7385 33.4684C15.1303 32.9676 14.626 32.4136 14.3275 31.6949C13.9983 30.9016 13.905 30.0336 13.894 29.1779C13.8822 28.2836 13.9798 27.3866 14.2353 26.5284C14.2933 26.3334 14.3238 26.2444 14.4293 26.0821C14.4398 26.0661 14.4505 26.0501 14.4618 26.0346C14.4628 26.0331 14.4635 26.0321 14.4645 26.0309C14.4667 26.0286 14.4697 26.0254 14.474 26.0206C14.5042 25.9871 14.5352 25.9556 14.5685 25.9251C14.5677 25.9259 14.5825 25.9141 14.5915 25.9066C14.6015 25.9001 14.6193 25.8881 14.618 25.8889C14.6633 25.8626 14.708 25.8364 14.7547 25.8126C14.758 25.8111 14.7797 25.8016 14.7877 25.7979C14.8015 25.7926 14.815 25.7874 14.8287 25.7824C14.8725 25.7666 14.9167 25.7521 14.961 25.7386C15.0575 25.7091 15.155 25.6839 15.2523 25.6569C15.2863 25.6474 15.3205 25.6376 15.3545 25.6276C15.446 25.6366 15.5407 25.6259 15.6295 25.5989C15.694 25.5794 15.7565 25.5574 15.822 25.5416C15.8685 25.6429 15.9558 25.7239 16.0743 25.7584C16.0993 25.7656 16.1245 25.7724 16.1497 25.7789C16.5495 26.0679 16.9822 26.2969 17.4517 26.4659C17.612 26.5236 17.7647 26.4551 17.8592 26.3364C17.9445 26.3846 18.0305 26.4316 18.1172 26.4771C18.6302 26.7896 19.191 27.0269 19.7728 27.1771C19.8233 27.2376 19.8928 27.2861 19.9758 27.3204C21.2358 27.8406 22.648 27.9564 23.9802 27.6791C24.981 28.0689 26.111 28.1156 27.138 27.7506C27.1433 27.7489 27.148 27.7466 27.153 27.7446C27.1108 27.8756 27.1405 28.0281 27.2415 28.1294C27.3858 28.2736 27.6275 28.2724 27.7718 28.1294C27.7725 28.1286 27.773 28.1279 27.7738 28.1274C27.7818 28.1676 27.79 28.2079 27.798 28.2481C27.7533 28.5941 27.713 28.9409 27.677 29.2879L27.6777 29.2871ZM28.2893 40.7869C28.2863 40.7381 28.2818 40.6896 28.2768 40.6414C28.3 40.6791 28.3233 40.7171 28.3468 40.7546C28.3668 40.7864 28.3873 40.8176 28.4075 40.8491C28.3685 40.8279 28.329 40.8071 28.2893 40.7871V40.7869ZM28.485 32.0354C28.5003 31.8994 28.5187 31.7644 28.54 31.6299C28.5497 31.6324 28.5595 31.6344 28.5693 31.6356C28.5415 31.7686 28.5133 31.9019 28.485 32.0354ZM29.1055 41.8719C29.104 41.8599 29.102 41.8476 29.0995 41.8354C29.1075 41.8459 29.116 41.8564 29.124 41.8669C29.1177 41.8686 29.1117 41.8704 29.1055 41.8719ZM29.3445 40.9061C29.3765 40.8981 29.4082 40.8871 29.44 40.8734C29.4565 40.9566 29.4805 41.0381 29.5138 41.1169C29.5253 41.1441 29.5382 41.1706 29.5525 41.1961C29.482 41.1004 29.4128 41.0036 29.3445 40.9061Z" fill="#DEF1FF"/>
<path d="M22.0198 15.4458C21.9845 15.3178 21.842 15.2321 21.7123 15.2713C19.7263 15.8723 17.8865 16.9306 16.3703 18.3473C16.2278 18.4803 16.0885 18.6166 15.9523 18.7558C14.6105 20.0201 13.5303 21.5518 12.8478 23.2698C12.5348 24.0578 12.3155 24.8811 12.1988 25.7198C12.1958 25.7186 12.193 25.7173 12.19 25.7163C12.1618 25.7016 12.1313 25.6946 12.0985 25.6958C12.0775 25.6986 12.0565 25.7016 12.0353 25.7043C11.995 25.7156 11.96 25.7361 11.9305 25.7653C11.918 25.7813 11.9058 25.7973 11.8933 25.8133C11.8718 25.8503 11.861 25.8903 11.8608 25.9331V25.9551C11.8603 25.9668 11.8613 25.9781 11.863 25.9893C11.8623 25.9996 11.862 26.0098 11.863 26.0203C11.864 26.0293 11.8648 26.0383 11.8658 26.0476C11.8145 26.0913 11.78 26.1533 11.789 26.2208C11.8293 26.5213 11.6215 26.7168 11.379 26.8516C11.3305 26.7743 11.2418 26.7251 11.1273 26.7583C10.4175 26.9643 9.77851 27.3371 9.20526 27.7988C8.92251 28.0268 8.65776 28.2768 8.40851 28.5408C8.15126 28.8133 7.88001 29.1001 7.72976 29.4481C7.56051 29.8401 7.57726 30.2901 7.86326 30.6223C7.89276 30.6566 7.92826 30.6771 7.96601 30.6868C7.88451 31.1531 7.89676 31.6338 8.01776 32.0938C8.09551 32.3891 8.55376 32.2638 8.47576 31.9676C8.21901 30.9921 8.54876 29.9366 9.18001 29.1721C9.50301 28.7811 9.89176 28.4513 10.319 28.1796C10.5365 28.0411 10.7628 27.9166 10.995 27.8046C11.2165 27.6978 11.448 27.6138 11.6688 27.5061C11.7175 27.4823 11.765 27.4563 11.8105 27.4283C12.0738 27.3716 12.3403 27.3321 12.6095 27.3126C12.9898 27.2853 13.4708 27.3663 13.7698 27.0728C13.9315 26.9141 13.9323 26.6671 13.7665 26.5126C13.612 26.3686 13.3793 26.3526 13.18 26.3336C13.1253 26.3283 13.0705 26.3248 13.0155 26.3228C12.8598 25.9976 12.8765 25.6193 12.944 25.2628C13.0343 24.7861 13.1858 24.3158 13.347 23.8591C13.6765 22.9261 14.1163 22.0336 14.6478 21.1988C15.1368 20.4308 15.707 19.7176 16.3445 19.0713C17.1083 18.3606 17.954 17.7363 18.8468 17.1986C19.7988 16.6251 20.8055 16.1458 21.8448 15.7528C21.971 15.7051 22.0575 15.5841 22.0193 15.4453L22.0198 15.4458Z" fill="#D2E8FC"/>
<path d="M33.754 20.3757C33.3735 19.8207 32.9888 19.2597 32.5118 18.7817C32.3433 18.6129 32.1645 18.4549 31.9788 18.3057C32.011 18.2252 32.0033 18.1297 31.926 18.0487C31.1478 17.2352 30.208 16.5789 29.1808 16.1187C29.199 16.0054 29.1505 15.8814 29.0093 15.8394C28.5938 15.7154 28.1768 15.5909 27.7483 15.5212C27.4593 15.4742 27.169 15.4527 26.878 15.4494C26.674 15.4199 26.4688 15.3972 26.2633 15.3814C26.1853 15.3754 26.1143 15.4174 26.0678 15.4784C25.9758 15.4844 25.8835 15.4909 25.7915 15.4977C25.6385 15.4852 25.485 15.4779 25.3313 15.4769C25.256 15.4764 25.1988 15.5034 25.1588 15.5449C24.685 15.5789 24.2113 15.6057 23.7333 15.5929C23.233 15.5799 22.7325 15.5402 22.237 15.4704C22.1035 15.4517 21.9685 15.5029 21.9295 15.6449C21.8973 15.7619 21.9695 15.9334 22.104 15.9524C23.0013 16.0787 23.9065 16.1264 24.8118 16.0782C25.1418 16.0607 25.4723 16.0282 25.8033 15.9997C26.8673 16.0957 27.8868 16.4774 28.8383 16.9572C29.3968 17.2387 29.9388 17.5524 30.4728 17.8777C31.0033 18.2007 31.5248 18.5442 31.9828 18.9662C32.5105 19.4524 32.9188 20.0389 33.3225 20.6277C33.3988 20.7389 33.542 20.7889 33.6645 20.7174C33.7748 20.6529 33.831 20.4872 33.7543 20.3754L33.754 20.3757Z" fill="#BCD5EC"/>
<path d="M9.03566 22.6755C8.94841 22.5023 8.75916 22.4258 8.57241 22.4258C8.17616 22.4258 7.60491 22.551 7.34666 22.8323C7.02466 23.1825 6.99841 23.7328 6.85391 24.1843C6.82816 24.2645 6.85341 24.3508 6.90666 24.413C6.88216 24.6705 6.93141 24.9303 7.04016 25.172C7.11091 25.3295 7.32366 25.3173 7.43291 25.2225C8.04091 24.696 8.54941 24.0478 8.90916 23.328C9.00766 23.1308 9.14691 22.8963 9.03566 22.6758V22.6755ZM7.39866 24.5723C7.39866 24.5593 7.39891 24.5463 7.39941 24.5333C7.41441 24.5288 7.42891 24.523 7.44316 24.5155C7.45141 24.5113 7.45941 24.5065 7.46766 24.5023C7.44466 24.5258 7.42191 24.5493 7.39866 24.5723Z" fill="#DEF1FF"/>
<path d="M12.9358 26.5313C12.4478 26.5068 11.9545 26.6001 11.476 26.6878C11.0218 26.7711 10.5703 26.8771 10.136 27.0351C9.31879 27.3323 8.58529 27.8161 8.04054 28.4996C7.74179 28.8746 7.50729 29.2836 7.33279 29.7303C7.28379 29.8561 7.38679 30.0048 7.50729 30.0378C7.64879 30.0768 7.76554 29.9896 7.81479 29.8633C8.08079 29.1818 8.54654 28.5681 9.13029 28.1271C9.80354 27.6186 10.6145 27.3653 11.4325 27.2033C11.9238 27.1061 12.4328 27.0058 12.9355 27.0311C13.257 27.0473 13.2563 26.5473 12.9355 26.5311L12.9358 26.5313Z" fill="#236CBA"/>
<path d="M35.2048 18.3711C35.2468 17.8688 35.2816 17.3663 35.3078 16.8631C35.3318 16.4043 35.4058 15.8883 35.2416 15.4471C35.0968 15.0583 34.7963 14.7763 34.4728 14.5308C34.0961 14.2448 33.7001 13.9816 33.3058 13.7206C32.4868 13.1788 31.6471 12.6693 30.8011 12.1713C30.3778 11.9221 29.9531 11.6758 29.5283 11.4293C29.1238 11.1948 28.7176 10.9626 28.2853 10.7823C27.3888 10.4088 26.3878 10.3583 25.4286 10.3248C24.4268 10.2898 23.4226 10.3296 22.4268 10.4431C21.5181 10.5466 20.5533 10.6563 19.7126 11.0391C18.8718 11.4218 18.3258 12.1676 17.8066 12.8933C16.7481 14.3726 15.9173 16.0151 15.3483 17.7426C15.3148 17.8443 15.3116 17.9521 15.3013 18.0583C15.2953 18.1191 15.3391 18.1793 15.3881 18.2093C15.5018 18.2796 15.6216 18.2566 15.7371 18.2041C15.8256 18.1638 15.9053 18.1308 15.9988 18.1031C16.2011 18.0431 16.4016 17.9763 16.6051 17.9208C16.8221 17.8618 16.7301 17.5241 16.5121 17.5833C16.3376 17.6308 16.1653 17.6871 15.9923 17.7396C15.9211 17.7611 15.8483 17.7791 15.7781 17.8026C15.7286 17.8193 15.6816 17.8423 15.6348 17.8653C15.6141 17.8756 15.5843 17.8846 15.5668 17.8983C15.5503 17.9111 15.5458 17.8956 15.5646 17.9071C15.5936 17.9573 15.6223 18.0078 15.6513 18.0581C15.6618 17.9498 15.6748 17.8678 15.7068 17.7723C15.7768 17.5628 15.8506 17.3546 15.9283 17.1478C16.0836 16.7346 16.2546 16.3273 16.4408 15.9273C16.8108 15.1331 17.2391 14.3658 17.7213 13.6341C17.9603 13.2713 18.2121 12.9168 18.4776 12.5731C18.7408 12.2321 19.0246 11.8898 19.3761 11.6361C20.0798 11.1278 20.9861 10.9943 21.8243 10.8713C22.7763 10.7316 23.7396 10.6636 24.7016 10.6626C25.1866 10.6621 25.6716 10.6788 26.1553 10.7131C26.6216 10.7461 27.0891 10.7898 27.5436 10.9031C28.4288 11.1236 29.2096 11.6473 29.9891 12.1011C30.8036 12.5753 31.6151 13.0546 32.4118 13.5583C32.8131 13.8121 33.2106 14.0721 33.6023 14.3406C33.9436 14.5746 34.3086 14.8018 34.6011 15.0973C34.7321 15.2298 34.8493 15.3831 34.9118 15.5606C34.9863 15.7726 34.9923 15.9963 34.9868 16.2188C34.9748 16.6933 34.9438 17.1681 34.9111 17.6413C34.8943 17.8846 34.8756 18.1276 34.8553 18.3706C34.8366 18.5951 35.1866 18.5938 35.2053 18.3706L35.2048 18.3711Z" fill="#696969"/>
<path d="M34.8598 21.3385C35.0043 20.353 35.1193 19.3635 35.2035 18.371C35.2225 18.1465 34.8725 18.1478 34.8535 18.371C34.772 19.3323 34.662 20.291 34.5223 21.2455C34.5085 21.3398 34.5458 21.4325 34.6445 21.4608C34.7268 21.4843 34.846 21.432 34.8598 21.3385Z" fill="#696969"/>
<path d="M12.1121 26.8194C12.4801 24.6984 13.2161 22.6304 14.3704 20.8079C15.5106 19.0074 17.0784 17.4682 19.0141 16.5467C20.8886 15.6544 23.0569 15.2509 25.1271 15.4002C26.1929 15.4769 27.2576 15.7449 28.2766 16.0647C29.2109 16.3577 30.1194 16.7337 30.9671 17.2259C31.6689 17.6334 32.2959 18.0974 32.8721 18.6652C33.3831 19.1684 33.7809 19.6702 34.1526 20.2734C34.2374 20.4112 34.3184 20.5512 34.3961 20.6932C34.5509 20.9754 34.9826 20.7234 34.8279 20.4409C34.0934 19.1002 33.0364 17.9772 31.7639 17.1324C30.9549 16.5954 30.0721 16.1754 29.1624 15.8392C28.1026 15.4474 26.9829 15.1409 25.8636 14.9807C24.8514 14.8357 23.8231 14.8434 22.8089 14.9664C21.6984 15.1012 20.6029 15.3614 19.5609 15.7699C18.5126 16.1809 17.5444 16.7359 16.6684 17.4437C15.8106 18.1369 15.0626 18.9557 14.4171 19.8484C13.1231 21.6382 12.2591 23.7352 11.7866 25.8864C11.7284 26.1519 11.6764 26.4189 11.6299 26.6867C11.6069 26.8197 11.6654 26.9559 11.8044 26.9942C11.9249 27.0272 12.0886 26.9534 12.1119 26.8197L12.1121 26.8194Z" fill="#236CBA"/>
<path d="M34.8378 37.1867C34.4733 36.4752 34.2683 35.6914 34.1108 34.9112C33.949 34.1109 33.858 33.2972 33.8515 32.4804C33.8455 31.7039 33.93 30.9314 34.0468 30.1647C34.1558 29.4497 34.3065 28.7357 34.5683 28.0594C34.695 27.7317 34.8543 27.4154 35.044 27.1194C35.0718 27.0762 35.1005 27.0339 35.1303 26.9922C35.136 26.9842 35.1055 27.0217 35.1368 26.9839C35.1523 26.9652 35.1678 26.9462 35.1835 26.9274C35.2545 26.8444 35.3303 26.7654 35.4098 26.6904C35.7858 26.3359 36.3088 26.0199 36.8518 26.0934C37.5128 26.1829 37.895 26.7782 38.044 27.3759C38.139 27.7574 38.1703 28.1507 38.2115 28.5404C38.2558 28.9604 38.301 29.3804 38.3565 29.7992C38.462 30.5942 38.593 31.3912 38.847 32.1539C39.0803 32.8542 39.3905 33.5374 39.7845 34.1624C39.8775 34.3099 39.9763 34.4539 40.0803 34.5937C40.1608 34.7019 40.2965 34.7569 40.4223 34.6834C40.529 34.6212 40.593 34.4504 40.512 34.3414C40.0643 33.7397 39.714 33.0614 39.4498 32.3604C39.1593 31.5907 38.9973 30.7864 38.8808 29.9739C38.8195 29.5459 38.7725 29.1157 38.7268 28.6859C38.6818 28.2637 38.6495 27.8367 38.5658 27.4197C38.4163 26.6752 38.024 25.9897 37.2923 25.6969C36.6628 25.4449 35.963 25.6502 35.4323 26.0294C34.975 26.3562 34.6433 26.7644 34.3843 27.2609C34.0308 27.9382 33.8148 28.6779 33.6693 29.4252C33.5183 30.2004 33.4088 30.9977 33.367 31.7867C33.3208 32.6627 33.3805 33.5404 33.515 34.4067C33.6438 35.2362 33.8288 36.0747 34.1423 36.8554C34.2218 37.0537 34.3088 37.2484 34.4063 37.4387C34.553 37.7252 34.9845 37.4724 34.838 37.1864L34.8378 37.1867Z" fill="#236CBA"/>
<path d="M24.9998 43.3745C22.5192 43.3745 20.1128 42.8887 17.8473 41.9305C15.6593 41.005 13.694 39.6802 12.0067 37.9927C10.3195 36.3052 8.9945 34.3402 8.069 32.1522C7.11075 29.8867 6.625 27.4803 6.625 24.9998C6.625 22.5192 7.11075 20.1127 8.069 17.8472C8.9945 15.6592 10.3192 13.694 12.0067 12.0068C13.6942 10.3195 15.6593 8.9945 17.8473 8.069C20.1128 7.11075 22.5192 6.625 24.9998 6.625C27.4803 6.625 29.8867 7.11075 32.1522 8.069C34.3402 8.9945 36.3055 10.3193 37.9927 12.0068C39.68 13.6943 41.005 15.6592 41.9305 17.8472C42.8887 20.1127 43.3745 22.5192 43.3745 24.9998C43.3745 27.4803 42.8887 29.8867 41.9305 32.1522C41.005 34.3402 39.6802 36.3055 37.9927 37.9927C36.3052 39.68 34.3402 41.005 32.1522 41.9305C29.8867 42.8887 27.4803 43.3745 24.9998 43.3745ZM24.9998 7.1245C22.5865 7.1245 20.2455 7.597 18.042 8.529C15.9135 9.42925 14.0018 10.7183 12.3603 12.3598C10.7185 14.0015 9.42975 15.913 8.5295 18.0415C7.5975 20.245 7.125 22.586 7.125 24.9992C7.125 27.4125 7.5975 29.7535 8.5295 31.957C9.42975 34.0855 10.7188 35.9972 12.3603 37.6387C14.002 39.2805 15.9135 40.5693 18.042 41.4695C20.2455 42.4015 22.5865 42.874 24.9998 42.874C27.413 42.874 29.754 42.4015 31.9575 41.4695C34.086 40.5693 35.9977 39.2802 37.6392 37.6387C39.281 35.997 40.5698 34.0855 41.47 31.957C42.402 29.7535 42.8745 27.4125 42.8745 24.9992C42.8745 22.586 42.402 20.245 41.47 18.0415C40.5698 15.913 39.2807 14.0013 37.6392 12.3598C35.9975 10.718 34.086 9.42925 31.9575 8.529C29.754 7.597 27.413 7.1245 24.9998 7.1245Z" fill="#236CBA"/>
<path d="M25.9558 5.06699L21.2266 5.21349L21.8863 8.64474L22.1503 15.639L25.5178 15.6242L25.5196 15.5815C26.6611 15.2925 30.6188 15.0985 33.5581 18.6595L37.3411 13.0875C37.3411 11.8852 33.2648 4.99349 25.9556 5.06699H25.9558Z" fill="#C5FCEF"/>
<path d="M25.9575 5.06724L25.8913 7.28124L25.5833 13.3077L25.5393 14.9352L25.5195 15.6242L25.5213 15.5815C26.6628 15.2925 30.6205 15.0985 33.5598 18.6595L37.3428 13.0875C37.3428 11.8852 33.2665 4.99349 25.9573 5.06699L25.9575 5.06724Z" fill="#77F2D0"/>
<path d="M28.0094 5.36761C27.9222 5.39536 27.8457 5.43811 27.7817 5.49386C27.7674 5.46761 27.7459 5.44586 27.7167 5.43136C27.7114 5.38736 27.7059 5.34361 27.6997 5.29986C27.6874 5.21236 27.5767 5.16611 27.4997 5.18636C27.4057 5.21111 27.3742 5.29986 27.3862 5.38636C27.4912 6.14511 27.4742 6.92136 27.3389 7.67511C27.3269 7.74161 27.3522 7.79561 27.3924 7.83111C27.4072 7.88011 27.4417 7.92011 27.4997 7.93661C27.5752 7.95836 27.6877 7.91011 27.6997 7.82311C27.8034 7.05761 27.9737 6.30336 28.2089 5.56761C28.2459 5.45161 28.1249 5.33086 28.0089 5.36761H28.0094Z" fill="#9EF7E1"/>
<path d="M32.4508 7.26007C32.3353 7.48857 32.2371 7.72532 32.1573 7.96857C32.0921 8.16782 32.4058 8.25308 32.4708 8.05508C32.5421 7.83783 32.6286 7.62832 32.7316 7.42407C32.8258 7.23782 32.5453 7.07307 32.4508 7.26007Z" fill="#9EF7E1"/>
<path d="M34.0898 8.34827C34.0168 8.30977 33.9073 8.32502 33.8676 8.40652L33.7696 8.60702C33.7323 8.68327 33.7463 8.78627 33.8278 8.82927C33.9008 8.86777 34.0103 8.85252 34.0501 8.77102L34.1481 8.57052C34.1853 8.49427 34.1713 8.39127 34.0898 8.34827Z" fill="#9EF7E1"/>
<path d="M34.6605 9.08395C34.4988 9.30495 34.337 9.5257 34.1753 9.7467C34.0515 9.9157 34.3335 10.078 34.456 9.9107C34.6178 9.6897 34.7795 9.46895 34.9413 9.24795C35.065 9.07895 34.783 8.9167 34.6605 9.08395Z" fill="#9EF7E1"/>
<path d="M36.355 11.3944C36.2162 11.6026 36.088 11.8166 35.97 12.0371C35.8712 12.2214 36.1517 12.3859 36.2507 12.2011C36.3687 11.9806 36.4972 11.7664 36.6357 11.5584C36.752 11.3839 36.4707 11.2209 36.355 11.3944Z" fill="#9EF7E1"/>
<path d="M18.3495 35.7202C18.1532 35.6762 17.9507 35.6557 17.7447 35.661C17.0475 35.6792 16.3555 35.936 15.8237 36.3895C16.0462 36.4397 16.1232 36.7417 16.032 36.951C15.941 37.1602 15.7445 37.2997 15.5687 37.445C15.393 37.5902 15.219 37.774 15.2057 38.0017C15.41 37.935 15.635 38.2532 15.5367 38.4442C14.6292 40.208 15.657 40.907 15.7172 42.1385C15.9187 41.9547 16.1202 41.7707 16.3217 41.587C16.6757 42.2732 17.0295 42.9595 17.3835 43.6457C17.5935 42.7375 18.0715 41.893 18.7417 41.2452C18.8962 41.3292 19.0505 41.4132 19.205 41.4972C19.831 40.5472 20.1682 39.4097 20.161 38.2722C20.2702 38.323 20.3795 38.3737 20.4887 38.4245C20.477 38.419 20.4805 38.206 20.4782 38.1807C20.4705 38.0965 20.4587 38.0127 20.443 37.9295C20.4115 37.7632 20.364 37.6 20.3025 37.4425C20.179 37.1265 19.9992 36.8327 19.775 36.5782C19.3962 36.1485 18.898 35.8432 18.3495 35.7202Z" fill="#C5FCEF"/>
<path d="M20.3117 37.6288C20.2642 37.4818 20.1967 37.3366 20.1162 37.2048C20.0957 37.1711 20.0739 37.1381 20.0514 37.1061C19.9919 36.7738 19.8674 36.4468 19.5464 36.2883C19.4254 36.2285 19.3117 36.251 19.2307 36.3138C19.0799 36.0933 18.8624 35.8238 18.5952 35.7605C18.5722 35.755 18.5499 35.7558 18.5292 35.7608C18.4567 35.727 18.3787 35.7033 18.2942 35.6926C18.1859 35.6791 18.0872 35.7875 18.0757 35.8855C18.0617 36.0035 18.1294 36.0868 18.2352 36.1298C18.3784 36.1878 18.4837 36.2936 18.5719 36.4181C18.6844 36.5766 18.7907 36.7428 18.8802 36.9155C19.0604 37.2635 19.1069 37.6513 19.1062 38.0383C19.1054 38.438 19.0722 38.8518 19.0097 39.2466C18.9879 39.3843 18.9629 39.5275 18.9252 39.6663C18.8997 39.708 18.8787 39.7563 18.8562 39.8073C18.8239 39.8808 18.7969 39.9566 18.7189 39.8863C18.6944 39.8643 18.6779 39.8303 18.6664 39.7918C18.6654 39.73 18.6637 39.6683 18.6609 39.6065C18.6549 39.48 18.6457 39.3573 18.6152 39.2341C18.5839 39.1076 18.5352 38.9878 18.5032 38.8616C18.4694 38.7288 18.2797 38.7641 18.2724 38.8928C18.2592 39.1263 18.2199 39.3465 18.2319 39.582C18.2339 39.622 18.2352 39.6621 18.2367 39.7021C18.2117 39.8336 18.1687 39.9608 18.1437 40.0945C18.1124 40.262 18.0752 40.4286 18.0202 40.5901C17.9082 40.9193 17.7147 41.1998 17.5007 41.4703C17.2797 41.7496 17.0292 42.0515 16.9307 42.4013C16.8662 42.63 16.9089 42.9368 17.0877 43.1056C17.0917 43.1458 17.0972 43.1863 17.1049 43.2271C17.1267 43.3418 17.2647 43.4071 17.3707 43.3778C17.4947 43.3438 17.5382 43.2281 17.5214 43.1121C17.4459 42.5876 17.8534 42.1328 18.2039 41.8013C18.4677 41.5518 18.7337 41.3115 18.9532 41.0318C18.9269 41.116 18.9082 41.2013 18.9062 41.2875C18.9029 41.4295 19.0649 41.4658 19.1597 41.3926C19.3399 41.2531 19.4382 41.0005 19.5277 40.797C19.6192 40.5888 19.6999 40.3753 19.7704 40.1593C19.9167 39.7118 20.0172 39.249 20.0794 38.7825C20.1044 38.5953 20.1184 38.4063 20.1234 38.2168C20.2212 38.2583 20.3529 38.2161 20.3799 38.0993C20.4154 37.9461 20.3599 37.7755 20.3124 37.629L20.3117 37.6288ZM18.5142 40.8646C18.5202 40.8478 18.5257 40.8308 18.5312 40.8138C18.5349 40.8196 18.5387 40.8251 18.5424 40.8303C18.5329 40.8416 18.5237 40.8533 18.5139 40.8646H18.5142Z" fill="#A5F2DE"/>
<path d="M33.4662 17.9164C33.3042 17.4702 33.2665 16.9942 33.195 16.5282C33.1242 16.0687 33.037 15.6099 32.926 15.1582C32.9132 15.0414 32.8982 14.9252 32.8802 14.8097C32.8437 14.5757 32.7605 14.3562 32.6057 14.1744C32.4632 14.0069 32.2722 13.8869 32.0852 13.7757C31.64 13.5104 31.202 13.2144 30.7385 12.9824C30.6242 12.9252 30.52 12.9602 30.4575 13.0317C30.4197 13.0049 30.382 12.9782 30.3445 12.9514C30.1565 12.8174 29.9375 12.6294 29.7032 12.5987C29.6012 12.5852 29.5647 12.7099 29.5977 12.7824C29.6462 12.8892 29.7477 12.9674 29.8347 13.0432C29.9285 13.1249 30.0272 13.2007 30.1257 13.2764C30.2917 13.4037 30.4607 13.5282 30.6205 13.6634C30.9272 13.9234 31.136 14.2334 31.2682 14.6129C31.4065 15.0097 31.4897 15.4269 31.5787 15.8367C31.679 16.2989 31.7687 16.7637 31.871 17.2254C31.9105 17.4037 32.089 17.4237 32.2067 17.3457C32.226 17.3909 32.2512 17.4324 32.2865 17.4667C32.3232 17.5027 32.3752 17.5182 32.4255 17.5152C32.446 17.6402 32.5712 17.7389 32.696 17.7389C32.732 17.7389 32.765 17.7322 32.795 17.7202C32.816 17.8009 32.8432 17.8802 32.8817 17.9572C32.9075 18.0092 32.967 18.0199 33.0145 18.0009C33.019 18.0132 33.0232 18.0254 33.028 18.0374C33.073 18.1514 33.18 18.2312 33.3075 18.1962C33.4187 18.1657 33.5082 18.0327 33.4662 17.9167V17.9164Z" fill="#60E8BE"/>
<path d="M22.3366 15.8257C22.0848 15.8257 21.8776 15.6215 21.8741 15.3695C21.8628 14.5222 21.8208 12.2402 21.6721 9.3587C21.6441 8.8187 21.4853 6.08745 21.0928 5.3502C21.0581 5.2847 21.0576 5.20645 21.0913 5.1407C21.1251 5.07495 21.1891 5.0302 21.2623 5.02045L21.7688 4.95395C21.9746 4.92695 22.1838 4.9212 22.3911 4.93645L22.8886 4.9737L23.5853 4.8702C23.7003 4.8532 23.8173 4.8487 23.9333 4.85745L24.7344 4.91645L25.1391 4.8487C25.3153 4.8192 25.4944 4.81645 25.6716 4.83995L26.1523 4.9042L25.7111 15.5437C25.7048 15.6937 25.5823 15.8117 25.4323 15.8125L22.3386 15.8257H22.3366ZM21.5076 5.36645C21.6668 5.79745 21.9181 6.8507 22.0466 9.3392C22.1956 12.2275 22.2378 14.515 22.2491 15.3645C22.2498 15.4122 22.2888 15.4507 22.3366 15.4507H22.3368L25.3401 15.438L25.7633 5.2307L25.6219 5.2117C25.4819 5.19295 25.3401 5.19545 25.2008 5.2187L24.7516 5.2937L23.9058 5.23145C23.8173 5.22495 23.7278 5.2282 23.6403 5.2412L22.9021 5.3507L22.3628 5.3102C22.1813 5.29645 21.9978 5.3017 21.8176 5.32545L21.5076 5.3662V5.36645Z" fill="#038972"/>
<path d="M33.6076 18.9047L33.4486 18.7244C31.9443 17.0187 30.0511 16.2737 28.7278 15.9489C27.1828 15.5699 25.8956 15.6287 25.4751 15.7914L25.3398 15.4417C25.8841 15.2309 27.2878 15.2094 28.8173 15.5847C30.1463 15.9107 32.0288 16.6457 33.5693 18.2989L37.1453 13.1024C37.0803 12.7914 36.8398 12.1942 36.4181 11.4772C36.0383 10.8314 35.3726 9.85141 34.3586 8.84891C33.3278 7.82991 32.1646 7.01041 30.9011 6.41366C29.3773 5.69391 27.7123 5.30366 25.9523 5.25366L25.9631 4.87891C27.7751 4.93041 29.4903 5.33266 31.0613 6.07466C32.3633 6.68966 33.5613 7.53316 34.6223 8.58216C35.6651 9.61316 36.3503 10.6222 36.7413 11.2869C37.2553 12.1609 37.4853 12.8067 37.5288 13.1197L37.5388 13.1919L33.6076 18.9044V18.9047Z" fill="#038972"/>
<path d="M18.3862 35.5951C17.4579 35.3196 16.4229 35.6576 15.7007 36.2654C15.5957 36.3536 15.6592 36.5276 15.7789 36.5614C15.8842 36.5911 15.9074 36.7241 15.8909 36.8191C15.8652 36.9674 15.7322 37.0824 15.6242 37.1749C15.3519 37.4081 15.0692 37.6186 15.0319 38.0026C15.0204 38.1209 15.1534 38.1979 15.2549 38.1726C15.3227 38.1556 15.3919 38.2886 15.3872 38.3449C15.3814 38.4136 15.3149 38.5021 15.2862 38.5664C15.2419 38.6649 15.2007 38.7649 15.1639 38.8666C15.0557 39.1669 14.9912 39.4866 14.9922 39.8066C14.9939 40.3354 15.1914 40.8131 15.3624 41.3036C15.4569 41.5749 15.5339 41.8516 15.5534 42.1394C15.5632 42.2831 15.7282 42.3589 15.8374 42.2569C16.0369 42.0709 16.2359 41.8844 16.4377 41.7011C16.3537 41.6904 16.2697 41.6794 16.1857 41.6686C16.5377 42.3559 16.8882 43.0441 17.2422 43.7306C17.3074 43.8571 17.5147 43.8274 17.5467 43.6909C17.7572 42.7981 18.2307 42.0234 18.8775 41.3796C18.8012 41.3894 18.7252 41.3994 18.6489 41.4091L19.115 41.6564C19.205 41.7041 19.3104 41.6769 19.3654 41.5906C19.9984 40.6001 20.3507 39.4516 20.3439 38.2731C20.2532 38.3251 20.1627 38.3771 20.0719 38.4291C20.1814 38.4796 20.2907 38.5301 20.4002 38.5804C20.5617 38.6549 20.732 38.5019 20.646 38.3346C20.6902 38.4206 20.6612 38.3944 20.6622 38.3494C20.6629 38.3194 20.661 38.2891 20.6605 38.2591C20.6597 38.2041 20.6564 38.1521 20.6497 38.0974C20.6277 37.9186 20.5924 37.7416 20.5389 37.5696C20.4319 37.2256 20.2629 36.9024 20.0439 36.6166C19.8332 36.3419 19.5807 36.1049 19.29 35.9164C19.1562 35.8296 19.0087 35.7411 18.8572 35.6891C18.7005 35.6354 18.5154 35.6266 18.3512 35.6199C18.2554 35.6159 18.2064 35.7676 18.2999 35.8089C18.4449 35.8726 18.5732 35.9591 18.7127 36.0319C18.8499 36.1034 18.988 36.1649 19.1182 36.2501C19.3822 36.4229 19.6177 36.6484 19.8027 36.9041C19.998 37.1741 20.1454 37.4759 20.2314 37.7981C20.2684 37.9374 20.298 38.0801 20.3022 38.2244C20.305 38.3206 20.2907 38.4274 20.3357 38.5161C20.4177 38.4341 20.4994 38.3524 20.5814 38.2704C20.4724 38.2194 20.3635 38.1681 20.2542 38.1171C20.1335 38.0606 19.9825 38.1269 19.9822 38.2731C19.9815 39.3799 19.6654 40.4831 19.0487 41.4059C19.1322 41.3839 19.2157 41.3621 19.2992 41.3401C19.1457 41.2546 18.9922 41.1691 18.8387 41.0836C18.7639 41.0419 18.6717 41.0544 18.6102 41.1131C17.9157 41.7761 17.4439 42.6726 17.2247 43.6026C17.3262 43.5894 17.4277 43.5761 17.5292 43.5629C17.1755 42.8766 16.8179 42.1924 16.4622 41.5071C16.4127 41.4116 16.2827 41.4081 16.2102 41.4746C16.0092 41.6591 15.8049 41.8404 15.6014 42.0221C15.6962 42.0614 15.7907 42.1006 15.8855 42.1396C15.8607 41.5641 15.6102 41.0564 15.4519 40.5126C15.3714 40.2356 15.3269 39.9549 15.3444 39.6659C15.3677 39.2824 15.5022 38.9194 15.6684 38.5769C15.7569 38.3944 15.7582 38.2101 15.6382 38.0386C15.5284 37.8816 15.353 37.7851 15.1605 37.8329C15.2347 37.8896 15.3092 37.9461 15.3834 38.0029C15.4027 37.8076 15.5839 37.6624 15.7244 37.5469C15.8827 37.4171 16.0479 37.2889 16.1519 37.1086C16.3307 36.7991 16.2527 36.3276 15.8722 36.2199C15.8982 36.3186 15.9242 36.4174 15.9504 36.5159C16.5957 35.9739 17.4832 35.7349 18.3159 35.8474C18.4774 35.8691 18.5522 35.6446 18.3855 35.5951H18.3862Z" fill="#038972"/>
<path d="M27.0436 25.4813C27.7053 22.692 26.1596 19.9368 23.5908 19.3273C21.0221 18.7178 18.4033 20.485 17.7416 23.2743C17.0798 26.0635 19.5496 24.8145 22.1183 25.4238C24.6871 26.0333 26.3816 28.2705 27.0436 25.481V25.4813Z" fill="white"/>
<path d="M25.9059 27.0777C25.4094 27.0777 24.8399 26.8005 24.1639 26.4715C23.5446 26.17 22.8429 25.8285 22.0651 25.6437C21.2849 25.4585 20.5081 25.4502 19.8229 25.443C18.8364 25.4325 18.0571 25.424 17.6531 24.9075C17.3749 24.5517 17.3331 24.0165 17.5214 23.2235C17.8546 21.8192 18.6724 20.618 19.8239 19.841C20.9814 19.0597 22.3371 18.8002 23.6414 19.1095C24.9456 19.419 26.0401 20.26 26.7234 21.478C27.4031 22.6897 27.5941 24.1302 27.2609 25.5345C27.0739 26.3222 26.7959 26.7797 26.3854 26.974C26.2329 27.0462 26.0734 27.078 25.9056 27.078L25.9059 27.0777ZM22.5604 19.4325C21.6964 19.4325 20.8394 19.6985 20.0756 20.2137C19.0179 20.9275 18.2661 22.0332 17.9591 23.3272C17.8071 23.9677 17.8231 24.394 18.0076 24.6302C18.2784 24.9765 18.9619 24.9837 19.8276 24.993C20.5364 25.0005 21.3396 25.0092 22.1689 25.206C22.9949 25.402 23.7206 25.7552 24.3606 26.0667C25.1249 26.4387 25.7851 26.7602 26.1929 26.567C26.4661 26.4375 26.6724 26.0657 26.8231 25.4302C27.4551 22.766 25.9814 20.127 23.5374 19.547C23.2139 19.4702 22.8864 19.4322 22.5601 19.4322L22.5604 19.4325Z" fill="#236CBA"/>
<path d="M22.2386 22.3027C22.0423 22.3027 21.8546 22.4752 21.8636 22.6777C21.8726 22.881 22.0283 23.0527 22.2386 23.0527C22.4348 23.0527 22.6226 22.8802 22.6136 22.6777C22.6046 22.4745 22.4488 22.3027 22.2386 22.3027Z" fill="#236CBA"/>
<path d="M14.7815 26.0306C15.115 25.8068 15.3027 25.7418 15.8092 25.8438C16.3157 25.9458 16.7815 26.1548 17.2347 26.3616C18.6447 27.0048 20.1215 27.4891 21.678 27.8766C23.2347 28.2643 24.6505 28.1991 26.1717 27.9948C26.5827 27.9396 26.9675 27.7133 27.235 27.9443C27.322 28.0193 27.3487 28.1131 27.371 28.2021C27.7142 29.5683 27.7415 30.9556 27.1892 32.1946C26.637 33.4336 25.4682 34.5163 23.7702 35.0673C22.0722 35.6186 19.827 35.5843 17.9817 34.8371C15.8202 33.9618 14.518 32.2676 14.1675 30.6673C13.817 29.0671 14.2682 27.5261 14.7567 26.0318" fill="#5C91BA"/>
<path d="M15.637 33.234C16.92 31.9798 18.836 31.409 20.5962 31.7565C20.931 31.8225 21.2595 31.9195 21.596 31.976C22.3632 32.105 23.149 32.0213 23.926 32.062C24.703 32.1028 25.5227 32.296 26.0597 32.859C26.1715 32.9763 26.2737 33.1223 26.266 33.284C26.2565 33.486 26.084 33.6375 25.9212 33.7578C24.5432 34.776 22.854 35.3873 21.1407 35.405C19.4275 35.4228 17.7007 34.8315 16.4092 33.7058C16.1777 33.504 15.945 33.2775 15.646 33.2075L15.6367 33.2343L15.637 33.234Z" fill="#629ADA"/>
<path d="M26.1619 33.3384C26.1501 33.2082 26.0991 33.0962 26.0219 33.0082C25.9546 32.8652 25.8524 32.7387 25.7284 32.6387C25.5174 32.4687 25.2676 32.3589 25.0534 32.1937C24.9829 32.1392 24.7226 32.1404 24.7289 32.2789C24.7304 32.3134 24.8506 32.3827 24.8774 32.4092C24.9261 32.4572 24.9691 32.5112 25.0059 32.5687C25.1529 32.7994 25.2006 33.0974 25.1099 33.3579C25.0084 33.6499 24.7664 33.8687 24.5191 34.0542C23.4349 34.8677 22.0826 35.2627 20.7354 35.2794C20.7349 35.2854 20.7344 35.2914 20.7344 35.2977C20.7344 35.4254 20.8489 35.5574 20.9844 35.5477C21.9024 35.4822 22.8439 35.3377 23.7151 35.0329C24.0869 34.9029 24.4904 34.7167 24.8291 34.4602C24.8919 34.4889 24.9689 34.4917 25.0504 34.4517C25.3014 34.3282 25.5331 34.1744 25.7481 33.9957C25.7956 33.9562 25.8411 33.9139 25.8831 33.8692C26.0609 33.7574 26.1811 33.5532 26.1616 33.3387L26.1619 33.3384Z" fill="#5190CE"/>
<path d="M17.9672 31.7995C17.9435 31.7645 17.902 31.7415 17.8492 31.753C17.4187 31.8467 17.0357 32.0797 16.663 32.3052C16.351 32.494 15.9447 32.7427 15.802 33.098C15.648 33.4817 16.1555 33.7927 16.4107 33.9815C16.502 34.049 16.5952 34.1132 16.6902 34.1747C16.7622 34.249 16.8342 34.3232 16.9062 34.3975C16.9535 34.4462 17.0215 34.4342 17.063 34.3957C17.1465 34.441 17.2312 34.484 17.317 34.5252C17.3317 34.5377 17.3485 34.5452 17.3657 34.5487C17.421 34.5745 17.4765 34.5997 17.5325 34.624C17.6437 34.672 17.7637 34.546 17.6687 34.4472C17.4812 34.2525 17.3482 34.0082 17.216 33.774C17.085 33.5422 16.9642 33.2922 16.9487 33.022C16.9137 32.4087 17.452 32.1742 17.9487 32.0122C18.0557 31.9775 18.0435 31.8375 17.9675 31.799L17.9672 31.7995Z" fill="#5190CE"/>
<path d="M26.4523 33.327C26.0638 32.4218 25.1073 31.9673 24.179 31.8415C23.2145 31.7108 22.2128 31.847 21.312 32.2138C20.806 32.4198 20.3383 32.692 19.908 33.0288C19.7435 33.1575 19.975 33.386 20.1378 33.2585C20.8408 32.7083 21.6825 32.3465 22.5605 32.1938C23.435 32.0418 24.45 32.0708 25.2445 32.5043C25.6528 32.727 25.9868 33.0613 26.1713 33.4913C26.2535 33.683 26.5335 33.5175 26.452 33.3273L26.4523 33.327Z" fill="#236CBA"/>
<path d="M21.8578 31.9248C20.1986 31.183 18.2673 31.2548 16.6786 32.1445C16.2578 32.3803 15.8681 32.6708 15.5186 33.003C15.3666 33.1475 15.5968 33.377 15.7483 33.2328C16.9476 32.0925 18.6398 31.5448 20.2798 31.7933C20.7663 31.867 21.2443 32.0045 21.6936 32.2053C21.8828 32.29 22.0483 32.01 21.8576 31.9245L21.8578 31.9248Z" fill="#236CBA"/>
<path d="M14.8951 26.1889C15.0969 26.0557 15.2296 26.0109 15.4634 26.0332C15.7866 26.0637 16.1091 26.1624 16.4121 26.2749C17.0466 26.5104 17.6526 26.8244 18.2786 27.0824C19.4726 27.5747 20.7131 27.9327 21.9941 28.1069C23.1759 28.2677 24.3799 28.3282 25.5719 28.2797C25.7859 28.2709 26.0009 28.2607 26.2136 28.2347C26.3719 28.2152 26.5239 28.1767 26.6779 28.1377C26.7806 28.1117 26.9274 28.0614 27.0276 28.1009C27.1279 28.1404 27.1359 28.2652 27.1584 28.3589C27.2019 28.5402 27.2401 28.7227 27.2721 28.9062C27.3311 29.2452 27.3656 29.5879 27.3731 29.9319C27.3991 31.1302 27.0459 32.3062 26.2471 33.2132C25.4861 34.0777 24.4449 34.6482 23.3386 34.9407C22.1279 35.2609 20.8241 35.2832 19.5954 35.0519C18.3796 34.8232 17.2031 34.3307 16.2536 33.5269C15.4756 32.8684 14.8381 32.0169 14.5214 31.0412C14.1039 29.7554 14.3104 28.3972 14.6726 27.1254C14.7709 26.7802 14.8801 26.4382 14.9916 26.0972C15.0891 25.7982 14.6186 25.6702 14.5216 25.9677C14.0541 27.3989 13.6391 28.8834 13.8709 30.4009C14.0384 31.4974 14.5839 32.5047 15.3299 33.3162C17.1446 35.2909 20.0256 35.9684 22.6146 35.5849C23.8626 35.4002 25.0724 34.9152 26.0411 34.0967C26.9696 33.3119 27.5984 32.2254 27.7869 31.0217C27.9016 30.2892 27.8734 29.5514 27.7506 28.8219C27.7196 28.6384 27.6824 28.4557 27.6399 28.2747C27.6004 28.1067 27.5619 27.9307 27.4376 27.8017C27.1949 27.5497 26.8571 27.5892 26.5489 27.6672C26.0551 27.7922 25.5494 27.7999 25.0419 27.8047C24.4164 27.8104 23.7901 27.7889 23.1664 27.7422C21.8306 27.6422 20.5201 27.3869 19.2564 26.9382C18.6246 26.7139 18.0094 26.4477 17.3994 26.1702C16.7646 25.8814 16.0811 25.5574 15.3694 25.5394C15.1046 25.5327 14.8681 25.6237 14.6499 25.7677C14.3891 25.9397 14.6331 26.3622 14.8959 26.1887L14.8951 26.1889Z" fill="#236CBA"/>
<path d="M36.9216 16.1674C36.9034 16.1112 36.8844 16.0559 36.8621 16.0024C36.8521 15.9679 36.8404 15.9342 36.8264 15.9014C36.8269 15.8897 36.8249 15.8774 36.8191 15.8649C36.7794 15.7774 36.7346 15.6929 36.6854 15.6114C36.6259 15.5044 36.5571 15.4039 36.4791 15.3097C36.4774 15.3042 36.4751 15.2989 36.4719 15.2932C36.3984 15.1707 36.3094 15.0589 36.2061 14.9602C36.1906 14.9452 36.1731 14.9394 36.1564 14.9392C36.1484 14.9317 36.1409 14.9237 36.1329 14.9162C36.1204 14.9047 36.1069 14.8984 36.0934 14.8964C36.0446 14.8547 35.9951 14.8134 35.9449 14.7734C35.9379 14.7362 35.9361 14.6982 35.9399 14.6602C35.7826 14.5492 35.6086 14.4617 35.4219 14.4037C35.1681 14.2707 34.9119 14.1429 34.6531 14.0199C34.6326 13.9667 34.5981 13.9192 34.5491 13.8857C34.5296 13.8647 34.5071 13.8454 34.4819 13.8284C34.1396 13.6007 33.7804 13.3992 33.4084 13.2249C33.2644 13.1344 33.1216 13.0419 32.9804 12.9472C32.8814 12.8807 32.7786 12.8854 32.6946 12.9299C32.6036 12.8972 32.5119 12.8659 32.4196 12.8362C32.3931 12.7307 32.3146 12.6434 32.2016 12.6107L32.1541 12.5969C32.1191 12.5282 32.0571 12.4759 31.9644 12.4619C31.8979 12.4519 31.8314 12.4419 31.7651 12.4319C31.7324 12.4269 31.6994 12.4257 31.6674 12.4279C31.5954 12.4204 31.5234 12.4127 31.4514 12.4052C31.3719 12.3967 31.2966 12.4327 31.2399 12.4884C30.9814 12.4574 30.7226 12.4277 30.4636 12.3994C30.3474 12.3807 30.2301 12.3679 30.1119 12.3617C29.9419 12.3527 29.7969 12.5129 29.7969 12.6767C29.7969 12.8617 29.9419 12.9739 30.1119 12.9917C30.1974 13.0004 30.2826 13.0099 30.3681 13.0192C30.4804 13.0372 30.5906 13.0634 30.6986 13.0967C30.7209 13.2102 30.8086 13.3024 30.9244 13.3437C31.1511 13.4247 31.3776 13.5057 31.6044 13.5867C31.7764 13.6629 31.9529 13.7292 32.1326 13.7847C32.5166 13.9854 32.9071 14.1734 33.3036 14.3487C33.7084 14.6999 34.1469 15.0099 34.6156 15.2692C34.7139 15.4289 34.8216 15.5827 34.9379 15.7302C34.9846 15.8282 35.0341 15.9242 35.0866 16.0187C35.0679 16.0749 35.0644 16.1379 35.0784 16.2019C35.1306 16.4409 35.2646 16.6562 35.4499 16.8132C35.4519 16.8172 35.4541 16.8209 35.4561 16.8249C35.4969 16.9182 35.5391 17.0107 35.5824 17.1027C35.6484 17.2427 35.8436 17.2897 35.9756 17.2317C36.1041 17.1752 36.2196 17.0067 36.1581 16.8602C36.1476 16.8349 36.1366 16.8102 36.1256 16.7852C36.1256 16.7852 36.1261 16.7852 36.1264 16.7849C36.1216 16.7749 36.1171 16.7649 36.1126 16.7549C36.1114 16.7522 36.1104 16.7494 36.1091 16.7469C36.1206 16.7292 36.1301 16.7104 36.1374 16.6912C36.1711 16.6712 36.2016 16.6459 36.2269 16.6164C36.3461 16.6787 36.4994 16.6629 36.5989 16.5634C36.6824 16.4799 36.7039 16.3709 36.6781 16.2692C36.7159 16.2734 36.7539 16.2707 36.7906 16.2614C36.7886 16.2482 36.7861 16.2347 36.7836 16.2214C36.8229 16.2944 36.9504 16.2549 36.9224 16.1677L36.9216 16.1674Z" fill="#C6C6C6"/>
<path d="M34.3651 14.2457C33.6288 13.6172 32.8548 13.0325 32.0498 12.4947C31.9573 12.433 31.8676 12.452 31.8051 12.508C31.7723 12.487 31.7308 12.475 31.6808 12.477L31.6698 12.4775C31.6401 12.4712 31.6101 12.4727 31.5816 12.481L30.8306 12.5107C30.7486 12.514 30.6898 12.5527 30.6543 12.6062C30.5463 12.5455 30.4406 12.4795 30.3383 12.4072C30.2391 12.337 30.0881 12.3895 30.0306 12.488C29.9646 12.6007 30.0118 12.7255 30.1113 12.7957C30.8416 13.3125 31.7266 13.5102 32.5466 13.8342C33.3523 14.1525 34.0958 14.6357 34.7186 15.2372C35.0268 15.535 35.4106 15.9607 35.3226 16.4275C35.3001 16.5467 35.3558 16.6702 35.4798 16.7042C35.5848 16.7332 35.7216 16.6725 35.7528 16.562C35.7716 16.5392 35.7848 16.5122 35.7898 16.4817C35.9521 15.492 35.0281 14.8115 34.3653 14.2457H34.3651ZM31.3771 12.939C31.4258 12.937 31.4746 12.935 31.5233 12.9332C31.5518 12.9645 31.5808 12.995 31.6106 13.0252C31.5323 12.9972 31.4546 12.969 31.3771 12.9392V12.939Z" fill="#D7D7D7"/>
<path d="M19.5152 11.8669C18.8517 12.2939 18.3892 12.9391 17.9807 13.6009C17.5309 14.3296 17.0907 15.0689 16.7084 15.8356C16.4832 16.2874 16.2807 16.7511 16.1117 17.2271C16.0147 17.5006 16.4492 17.6181 16.5457 17.3469C16.8259 16.5571 17.2087 15.8104 17.6234 15.0836C18.0094 14.4069 18.3939 13.7046 18.8702 13.0859C19.1159 12.7666 19.4024 12.4744 19.7424 12.2554C19.9852 12.0991 19.7597 11.7094 19.5154 11.8669H19.5152Z" fill="#D7D7D7"/>
<path d="M36.3644 16.5639C36.2664 17.9459 36.0944 19.3214 35.8484 20.6849C35.8269 20.8044 35.8809 20.9274 36.0056 20.9617C36.1146 20.9917 36.2606 20.9247 36.2824 20.8044C36.5356 19.4017 36.7136 17.9857 36.8144 16.5639C36.8349 16.2749 36.3849 16.2762 36.3644 16.5639Z" fill="#B7B7B7"/>
<path d="M35.3364 16.8562C35.4754 15.8437 34.5476 15.0845 33.8006 14.576C32.8591 13.9352 31.8106 13.4642 30.7736 13.0017C30.4096 12.8392 30.0226 12.6935 29.6831 12.4817C29.7126 12.5542 29.7421 12.6267 29.7716 12.6992C29.7359 12.7882 29.7646 12.715 29.7664 12.7172C29.7556 12.703 29.7674 12.761 29.7586 12.7297C29.7566 12.7225 29.7859 12.7182 29.7586 12.7282C29.7341 12.7372 29.7599 12.7272 29.7674 12.7232C29.8251 12.6917 29.8096 12.697 29.8616 12.6795C29.9746 12.642 30.0916 12.618 30.2089 12.599C30.4751 12.5557 30.7469 12.5402 31.0161 12.5312C31.1344 12.5272 31.2529 12.5252 31.3711 12.5262C31.4109 12.5265 31.4506 12.5272 31.4904 12.5285C31.5264 12.5297 31.6054 12.5495 31.5284 12.527C31.6366 12.5585 31.7419 12.5922 31.8471 12.6337C32.2554 12.795 32.7081 13.0087 33.1329 13.2147C33.6954 13.4877 34.2519 13.7745 34.7969 14.0812C35.2966 14.3625 35.8326 14.668 36.2534 15.027C36.4409 15.187 36.7144 14.916 36.5256 14.7547C36.1101 14.4002 35.6329 14.1165 35.1609 13.8452C34.5916 13.5182 34.0084 13.2152 33.4186 12.927C32.9459 12.696 32.4684 12.4702 31.9796 12.2745C31.8689 12.2302 31.7541 12.1795 31.6361 12.1565C31.4494 12.1202 31.2431 12.139 31.0546 12.1447C30.7169 12.1547 30.3766 12.178 30.0439 12.2382C29.8044 12.2815 29.5006 12.3457 29.4001 12.5965C29.3681 12.676 29.4219 12.7722 29.4886 12.814C29.7664 12.9872 30.0789 13.1107 30.3769 13.2437C30.8471 13.4537 31.3179 13.6627 31.7816 13.8867C32.2956 14.135 32.8034 14.3995 33.2881 14.7015C33.7201 14.9705 34.1426 15.2697 34.4891 15.6452C34.6476 15.817 34.7826 15.9957 34.8801 16.2205C34.8684 16.1932 34.8929 16.2532 34.8964 16.2625C34.9061 16.2887 34.9149 16.3152 34.9231 16.342C34.9381 16.3917 34.9496 16.4422 34.9591 16.4935C34.9686 16.5447 34.9621 16.4987 34.9651 16.5412C34.9671 16.5685 34.9689 16.5952 34.9694 16.6225C34.9699 16.6467 34.9694 16.671 34.9684 16.6952C34.9679 16.7085 34.9601 16.7867 34.9646 16.7535C34.9504 16.8572 34.9899 16.959 35.0991 16.9902C35.1889 17.016 35.3219 16.9587 35.3359 16.8557L35.3364 16.8562Z" fill="#696969"/>
<path d="M16.2949 6.45465C16.2809 6.47865 16.2644 6.5014 16.2509 6.5254C16.2234 6.57415 16.2962 6.47965 16.2559 6.51915C16.2192 6.55515 16.1857 6.5929 16.1474 6.6274C16.0707 6.6964 16.1884 6.6069 16.1369 6.6349C16.1114 6.64865 16.0877 6.6674 16.0627 6.68215C16.0422 6.69415 16.0212 6.7054 16.0002 6.71615C15.9902 6.7214 15.8999 6.75865 15.9524 6.73915C15.9997 6.7219 15.9262 6.7469 15.9179 6.74965C15.8889 6.7594 15.8597 6.76815 15.8299 6.77565C15.8062 6.7819 15.7819 6.7864 15.7579 6.79215C15.6779 6.81215 15.7929 6.7929 15.7422 6.79665C15.6859 6.8009 15.6302 6.8054 15.5737 6.80415C15.5484 6.80365 15.5234 6.8019 15.4984 6.80065C15.3774 6.7949 15.5809 6.81715 15.4612 6.7959C15.1332 6.73765 14.8712 6.98415 14.9384 7.31865C15.0164 7.7059 15.0879 8.0944 15.1519 8.48415C15.1839 8.67865 15.2142 8.8734 15.2427 9.06815C15.2742 9.28415 15.2902 9.4014 15.3167 9.61315C15.4149 10.3996 15.4837 11.1896 15.5239 11.9811L15.9489 11.5561C15.8004 11.5389 16.0204 11.5699 15.8979 11.5501C15.8767 11.5466 15.8552 11.5434 15.8339 11.5399C15.7924 11.5326 15.7514 11.5244 15.7102 11.5154C15.6052 11.4926 15.5019 11.4737 15.3947 11.4612C15.1799 11.4362 14.9564 11.4327 14.7459 11.4894C14.2064 11.6352 13.7887 12.1369 13.7004 12.6836C13.6457 13.0221 13.7247 13.3371 13.9347 13.6089C14.1227 13.8521 14.3839 14.0594 14.6657 14.1832C15.2394 14.4354 15.9262 14.2922 16.2769 13.7537C16.6544 13.1744 16.4804 12.4979 16.3584 11.8681C16.3162 11.6494 16.0422 11.5044 15.8357 11.5714C15.6027 11.6469 15.4934 11.8599 15.5389 12.0942C15.5622 12.2149 15.5864 12.3354 15.6087 12.4561C15.6199 12.5179 15.6309 12.5796 15.6407 12.6414C15.6427 12.6534 15.6544 12.7367 15.6472 12.6824C15.6399 12.6282 15.6519 12.7282 15.6532 12.7387C15.6622 12.8304 15.6669 12.9231 15.6617 13.0154C15.6609 13.0271 15.6624 13.0661 15.6564 13.0796C15.6867 13.0124 15.6667 13.0249 15.6574 13.0597C15.6442 13.1092 15.6309 13.1574 15.6149 13.2061C15.6489 13.1026 15.6054 13.2177 15.5892 13.2472C15.5699 13.2822 15.5484 13.3151 15.5269 13.3486C15.4827 13.4184 15.5397 13.3259 15.5427 13.3287C15.5434 13.3294 15.5109 13.3634 15.5062 13.3681C15.5092 13.3651 15.4669 13.4039 15.4669 13.4041C15.4614 13.3911 15.5484 13.3509 15.4652 13.3999C15.4582 13.4039 15.4184 13.4281 15.4157 13.4261C15.4144 13.4251 15.5009 13.3984 15.4347 13.4174C15.3922 13.4296 15.3507 13.4436 15.3072 13.4531C15.2844 13.4581 15.2587 13.4649 15.2349 13.4671C15.3127 13.4594 15.2407 13.4634 15.2277 13.4626C15.2012 13.4609 15.1749 13.4614 15.1484 13.4591C15.2367 13.4661 15.1189 13.4486 15.1062 13.4451C15.0807 13.4381 15.0557 13.4292 15.0304 13.4207C15.0477 13.4267 15.0964 13.4544 15.0214 13.4159C14.9732 13.3911 14.9259 13.3649 14.8802 13.3354C14.8674 13.3271 14.7464 13.2344 14.8017 13.2811C14.7494 13.2371 14.6982 13.1924 14.6504 13.1434C14.6309 13.1234 14.6122 13.1029 14.5942 13.0817C14.6062 13.0957 14.6314 13.1407 14.5904 13.0742C14.5777 13.0532 14.5657 13.0321 14.5529 13.0111C14.5392 12.9884 14.5334 12.9431 14.5529 13.0169C14.5437 12.9819 14.5274 12.8649 14.5312 12.9662C14.5304 12.9437 14.5279 12.9217 14.5279 12.8992C14.5279 12.8717 14.5482 12.7826 14.5252 12.8749C14.5369 12.8271 14.5462 12.7796 14.5617 12.7329C14.5697 12.7084 14.5784 12.6837 14.5884 12.6599C14.5807 12.6787 14.5574 12.7206 14.5957 12.6506C14.6202 12.6059 14.6457 12.5626 14.6727 12.5194C14.6832 12.5024 14.7234 12.4599 14.6697 12.5204C14.6882 12.4996 14.7062 12.4782 14.7254 12.4582C14.7504 12.4324 14.8592 12.3556 14.7689 12.4119C14.8017 12.3914 14.8327 12.3686 14.8667 12.3499C14.8829 12.3409 14.8997 12.3334 14.9159 12.3247C14.9679 12.2967 14.9142 12.3464 14.8879 12.3361C14.9029 12.3421 14.9767 12.3076 14.9954 12.3031C15.0104 12.2994 15.0269 12.2984 15.0417 12.2931C15.0909 12.2761 14.9352 12.3002 15.0059 12.2974C15.0487 12.2959 15.0904 12.2939 15.1334 12.2949C15.1942 12.2962 15.2549 12.2984 15.3154 12.3031C15.3287 12.3041 15.3592 12.3114 15.3702 12.3082C15.3512 12.3137 15.2647 12.2901 15.3367 12.3039C15.5409 12.3434 15.7414 12.3821 15.9487 12.4061C16.1694 12.4316 16.3844 12.1906 16.3737 11.9811C16.2902 10.3396 16.0819 8.7039 15.7579 7.09265C15.5837 7.2669 15.4094 7.44115 15.2352 7.6154C15.9132 7.73565 16.6677 7.5044 17.0289 6.8834C17.1407 6.69115 17.0797 6.4094 16.8764 6.3019C16.6732 6.1944 16.4144 6.24915 16.2949 6.4544V6.45465Z" fill="#504F58"/>
<path d="M16.6237 6.6703C16.6482 6.7873 16.6319 6.9118 16.6212 7.02955C16.6157 7.09055 16.6092 7.15155 16.6059 7.2128C16.6032 7.26855 16.6182 7.33805 16.6037 7.3913C16.6219 7.36005 16.6402 7.3288 16.6584 7.29755C16.5559 7.4168 16.3237 7.46605 16.1754 7.49055C15.9957 7.5203 15.8102 7.5108 15.6329 7.47055C15.6849 7.5388 15.7369 7.60705 15.7889 7.67555C15.7889 7.6368 15.7882 7.63405 15.7867 7.66755L15.7104 7.7438C15.6922 7.75555 15.8062 7.74955 15.8239 7.74805C15.8697 7.74455 15.9157 7.73855 15.9607 7.73055C16.0642 7.7123 16.1622 7.6783 16.2574 7.6338C16.3434 7.59355 16.4212 7.5398 16.4932 7.47805C16.5627 7.41855 16.6139 7.3398 16.6847 7.2823C16.6157 7.30055 16.5469 7.3188 16.4779 7.33705L16.4914 7.33905L16.3429 7.19055C16.3539 7.22055 16.3662 7.25055 16.3742 7.28155C16.3814 7.22705 16.3884 7.1723 16.3957 7.1178L16.3949 7.1188H16.7619C16.7467 7.09405 16.7379 7.06605 16.7239 7.04055C16.5937 6.80005 16.2264 7.0143 16.3569 7.25505C16.3707 7.28055 16.3797 7.30855 16.3949 7.3333C16.4812 7.4738 16.6742 7.46705 16.7619 7.3333C16.8167 7.25005 16.7829 7.1603 16.7527 7.07755C16.7292 7.0128 16.6792 6.9408 16.6042 6.92905C16.4367 6.9028 16.3654 7.00105 16.2612 7.11105C16.1782 7.19855 16.0807 7.2598 15.9647 7.2938C15.8397 7.33055 15.7127 7.30455 15.5897 7.33555C15.4302 7.37555 15.3597 7.52105 15.3634 7.6753C15.3657 7.7653 15.4274 7.8593 15.5194 7.8803C15.9402 7.9758 16.3877 7.93605 16.7722 7.73305C16.8714 7.68055 16.9754 7.61655 17.0132 7.5043C17.0462 7.4058 17.0254 7.2953 17.0319 7.1928C17.0454 6.9778 17.0779 6.77105 17.0332 6.55705C16.9772 6.28955 16.5674 6.4028 16.6234 6.67005L16.6237 6.6703Z" fill="#504F58"/>
<path d="M16.0087 12.2158C15.89 12.0385 15.6602 11.945 15.4595 12.0343C15.4262 12.049 15.3992 12.069 15.3785 12.0918C15.3617 12.076 15.3422 12.0633 15.32 12.0548C15.1597 11.9943 15.008 12.0018 14.8762 12.0563C14.8412 12.0438 14.8042 12.0353 14.7647 12.0333C14.5105 12.02 14.3145 12.2255 14.2627 12.4653C14.2352 12.592 14.2387 12.7638 14.2972 12.8903C14.3177 13.1348 14.435 13.384 14.5847 13.545C14.669 13.6355 14.77 13.6973 14.8785 13.7323C14.9797 13.8148 15.1082 13.8565 15.2472 13.8328C15.4452 13.799 15.612 13.655 15.7195 13.488C15.7515 13.4663 15.7822 13.4415 15.8115 13.4135C15.96 13.2703 16.0412 13.0705 16.0795 12.8693C16.1192 12.6583 16.1325 12.4008 16.0085 12.2158H16.0087Z" fill="#504F58"/>
<path d="M10.8467 9.92603C10.8652 9.95428 10.881 9.98353 10.8977 10.0125C10.9027 10.021 10.9165 10.0423 10.9167 10.052C10.9152 9.99603 10.896 9.99228 10.9062 10.0338C10.9147 10.0678 10.9245 10.1025 10.9342 10.1363C10.9362 10.143 10.9462 10.1755 10.9432 10.1815C10.9365 10.1245 10.935 10.1123 10.9382 10.145C10.9395 10.1553 10.9402 10.1655 10.9407 10.1758C10.9415 10.212 10.944 10.2478 10.9425 10.2843C10.942 10.2993 10.9387 10.3158 10.9397 10.3305C10.9432 10.3883 10.96 10.2538 10.943 10.309C10.9327 10.3428 10.9287 10.3785 10.9182 10.4125C10.914 10.426 10.906 10.4413 10.9037 10.4553C10.8962 10.4998 10.9452 10.387 10.9042 10.4488C10.8932 10.4653 10.8315 10.546 10.873 10.5038C10.9172 10.4588 10.8342 10.5365 10.8257 10.546C10.8345 10.536 10.8885 10.5143 10.8522 10.5243C10.8412 10.5273 10.823 10.5415 10.8132 10.548C10.7547 10.5873 10.8145 10.5505 10.8312 10.5443C10.8117 10.5515 10.7922 10.5585 10.7725 10.5648C10.7497 10.5718 10.6172 10.615 10.7307 10.5815C10.702 10.59 10.6642 10.5875 10.6345 10.588C10.597 10.5888 10.558 10.582 10.5207 10.5843C10.4615 10.5875 10.5937 10.603 10.5365 10.587C10.5157 10.5813 10.4935 10.579 10.4725 10.574C10.4352 10.5655 10.3997 10.5525 10.363 10.543C10.3427 10.5378 10.2882 10.5113 10.3747 10.551C10.3602 10.5445 10.3457 10.5383 10.3317 10.5308C10.2997 10.5135 10.2687 10.494 10.2367 10.477C10.2157 10.466 10.178 10.4275 10.249 10.4903C10.2342 10.4773 10.2187 10.4648 10.2042 10.4513C10.1897 10.4378 10.1775 10.4233 10.1637 10.4095C10.1415 10.3873 10.154 10.375 10.1612 10.408C10.1695 10.4445 10.1805 10.426 10.1625 10.4045C10.106 10.3383 10.1797 10.432 10.1677 10.4283C10.1645 10.4273 10.1552 10.39 10.1552 10.3863C10.156 10.329 10.147 10.4693 10.1567 10.4113C10.1605 10.3893 10.1575 10.2693 10.1545 10.3303C10.1515 10.3893 10.1647 10.287 10.1707 10.2643C10.18 10.2293 10.1917 10.1955 10.2032 10.1613C10.235 10.0678 10.1792 10.202 10.2115 10.1418C10.2277 10.1113 10.2425 10.0803 10.2602 10.0505C10.2707 10.033 10.326 9.95928 10.273 10.024C10.223 10.0853 10.2652 10.0335 10.2785 10.022C10.2677 10.0313 10.1797 10.0748 10.221 10.071C10.2322 10.07 10.2512 10.0555 10.2615 10.0505C10.2957 10.033 10.3297 10.0153 10.364 9.99803C10.3962 9.98178 10.4287 9.96653 10.4612 9.95078C10.5267 9.91853 10.4382 9.96353 10.4307 9.96303C10.4472 9.96403 10.474 9.94678 10.4897 9.94178C10.5205 9.93178 10.5557 9.92828 10.5855 9.91678C10.6232 9.90203 10.539 9.92478 10.5342 9.92278C10.549 9.92903 10.5822 9.91978 10.5985 9.91978C10.6117 9.91978 10.625 9.92103 10.6382 9.92078C10.714 9.91978 10.5745 9.90053 10.6235 9.91828C10.6627 9.93253 10.7065 9.93778 10.7465 9.95103C10.7632 9.95653 10.7795 9.96303 10.796 9.96878C10.7182 9.94278 10.8022 9.97228 10.819 9.98053C10.8805 10.0105 10.94 10.044 10.999 10.0785C11.147 10.1655 11.3372 10.1488 11.471 10.0453C11.6122 9.93628 11.657 9.77028 11.6232 9.59853C11.3257 8.08453 10.885 6.60028 10.3102 5.16853C10.2375 4.98753 10.1705 4.81003 10.0255 4.67278C9.82824 4.48603 9.56349 4.44928 9.30824 4.51953C8.99624 4.60528 8.69024 4.71703 8.38074 4.81178C7.87024 4.96803 7.35349 5.08978 6.83474 5.21403C6.52174 5.28903 6.20974 5.36778 5.89724 5.44453C5.65849 5.50328 5.56249 5.74578 5.60049 5.96728C5.89349 7.68478 6.54974 9.31678 6.84299 11.0343C6.88049 11.254 7.16249 11.397 7.36574 11.331C7.60849 11.2525 7.69524 11.0453 7.66249 10.8083C7.58099 10.2165 6.87124 9.92228 6.34324 9.98453C5.77024 10.052 5.10874 10.383 5.02399 11.0138C4.98974 11.268 5.02649 11.5365 5.14274 11.7668C5.24774 11.9748 5.43624 12.13 5.63249 12.2483C6.03074 12.4883 6.56874 12.542 7.00449 12.3728C7.31824 12.251 7.54499 12.0293 7.65574 11.7073C7.75524 11.4178 7.70674 11.1025 7.66299 10.808C7.63024 10.5873 7.34024 10.4465 7.14024 10.5113C6.89949 10.5893 6.80824 10.7975 6.84349 11.034C6.84824 11.0655 6.85574 11.1433 6.84874 11.0673C6.85274 11.1108 6.85824 11.154 6.86124 11.1975C6.86374 11.2345 6.86499 11.2718 6.86474 11.309C6.86449 11.342 6.85049 11.443 6.86699 11.3598C6.85874 11.401 6.84624 11.4405 6.83649 11.4813C6.82549 11.5265 6.84024 11.4693 6.84474 11.4625C6.83574 11.4763 6.82399 11.4948 6.81749 11.5098C6.80074 11.5488 6.81974 11.5078 6.82824 11.4988C6.81699 11.5105 6.80049 11.5235 6.79149 11.5368C6.76474 11.5768 6.82449 11.5115 6.82249 11.516C6.81549 11.5323 6.77399 11.547 6.75999 11.5558C6.74724 11.5638 6.73224 11.5688 6.71974 11.577C6.72399 11.574 6.79424 11.5533 6.74924 11.5645C6.71824 11.5723 6.68799 11.5855 6.65699 11.5938C6.61924 11.6038 6.58124 11.6103 6.54274 11.6178C6.62899 11.601 6.54024 11.6158 6.50249 11.617C6.46799 11.6183 6.43349 11.6183 6.39899 11.617C6.38274 11.6163 6.28024 11.6085 6.33599 11.6143C6.39299 11.62 6.27824 11.6025 6.26024 11.598C6.22424 11.5893 6.18799 11.5725 6.15174 11.5658C6.10774 11.5575 6.17524 11.5763 6.18124 11.5795C6.16799 11.5723 6.15399 11.5668 6.14074 11.5595C6.10349 11.5388 6.06624 11.518 6.03024 11.4953C6.00149 11.477 5.97399 11.4573 5.94599 11.4383C6.01224 11.4838 5.95799 11.4425 5.92849 11.4165C5.85499 11.351 5.94949 11.464 5.91624 11.4073C5.91274 11.4013 5.87774 11.3375 5.87649 11.3378C5.88324 11.3365 5.90199 11.4215 5.89349 11.3765C5.89099 11.3633 5.88449 11.3495 5.88074 11.3365C5.87674 11.3225 5.87399 11.3083 5.87024 11.2943C5.84574 11.2028 5.87674 11.298 5.86774 11.3005C5.86874 11.3005 5.86049 11.2003 5.86049 11.1925C5.85999 11.1653 5.87424 11.0768 5.85799 11.1428C5.86274 11.123 5.86924 11.1033 5.87374 11.0833C5.88949 11.0163 5.85199 11.1355 5.87874 11.0803C5.89799 11.0403 5.87099 11.086 5.86499 11.0933C5.88124 11.0745 5.89874 11.0575 5.91574 11.0395C5.96674 10.9855 5.88524 11.0525 5.94849 11.0103C5.98099 10.9885 6.01374 10.9678 6.04774 10.9485C6.07149 10.935 6.09574 10.923 6.11974 10.9105C6.12124 10.9098 6.18274 10.8815 6.14424 10.898C6.10574 10.9145 6.16899 10.889 6.17074 10.8885C6.19724 10.8795 6.22349 10.8703 6.25049 10.8625C6.30399 10.8468 6.35924 10.8333 6.41449 10.825C6.34524 10.8353 6.46774 10.8248 6.49024 10.8248C6.51474 10.8248 6.63274 10.8395 6.56599 10.8258C6.61649 10.8363 6.66499 10.8495 6.71374 10.8663C6.64324 10.8418 6.73999 10.8833 6.76349 10.898C6.77899 10.9078 6.79449 10.9175 6.80899 10.9285C6.77799 10.9048 6.77624 10.9028 6.80424 10.9315C6.80949 10.9368 6.85024 10.9793 6.81624 10.9405C6.77849 10.8975 6.83174 10.9715 6.83874 10.981C6.82724 10.9655 6.83024 10.9198 6.82649 10.9548C6.82449 10.9738 6.83999 11.0153 6.84274 11.034C7.11599 10.9588 7.38924 10.8833 7.66249 10.808C7.36949 9.09053 6.71324 7.45853 6.41999 5.74103C6.32099 5.91528 6.22199 6.08953 6.12324 6.26378C6.84524 6.08628 7.57549 5.93103 8.28974 5.72528C8.55024 5.65028 8.80899 5.56878 9.06749 5.48678C9.22074 5.43803 9.38674 5.40228 9.53424 5.33878C9.60449 5.30853 9.55199 5.33403 9.51599 5.32678C9.47699 5.31903 9.45349 5.29903 9.42449 5.27353C9.49599 5.33653 9.39799 5.20228 9.44049 5.28953C9.45174 5.30853 9.46224 5.32803 9.47174 5.34778C9.44874 5.29003 9.44899 5.29053 9.47274 5.34953C9.74849 6.03028 9.99299 6.72428 10.2065 7.42703C10.446 8.21553 10.645 9.01578 10.8037 9.82428C11.0117 9.66428 11.22 9.50428 11.428 9.34428C11.1837 9.20103 10.9242 9.08703 10.6382 9.07053C10.419 9.05778 10.2152 9.13153 10.02 9.22203C9.83424 9.30853 9.67924 9.39378 9.56124 9.56628C9.44874 9.73078 9.36499 9.93328 9.33074 10.1295C9.27674 10.439 9.32624 10.7175 9.52574 10.9658C9.67474 11.1508 9.88549 11.2713 10.106 11.3515C10.5622 11.5175 11.1837 11.4593 11.5075 11.0623C11.8605 10.6295 11.888 9.96503 11.5802 9.49678C11.4582 9.31128 11.1987 9.21553 10.9987 9.34428C10.8135 9.46378 10.7157 9.72703 10.8462 9.92578L10.8467 9.92603Z" fill="#504F58"/>
<path d="M6.78931 10.5964C6.77131 10.5892 6.75281 10.5827 6.73456 10.5769C6.73431 10.5759 6.73406 10.5749 6.73381 10.5737C6.70206 10.4774 6.55581 10.3882 6.43306 10.4309C6.27181 10.4869 6.12431 10.5744 6.00306 10.6819C5.99556 10.6887 5.98556 10.6924 5.97456 10.6929C5.89581 10.6979 5.81606 10.7257 5.73931 10.7847C5.66006 10.8454 5.60706 10.9249 5.57406 11.0132C5.55331 11.0472 5.53606 11.0827 5.52306 11.1194C5.43331 11.3762 5.42356 11.5447 5.66731 11.7342C5.72256 11.7772 5.78406 11.8087 5.84806 11.8297C5.94631 11.8894 6.06231 11.9224 6.19231 11.9104C6.24106 11.9149 6.29356 11.9124 6.34931 11.9017C6.35256 11.9077 6.35531 11.9134 6.35856 11.9194C6.41631 12.0234 6.58456 12.0392 6.69306 11.9927C6.87681 11.9142 7.09956 11.8314 7.09156 11.6589C7.23806 11.5362 7.20981 11.4672 7.22406 11.2862C7.24431 11.0239 7.08131 10.7154 6.78931 10.5964Z" fill="#504F58"/>
<path d="M11.2494 10.1406C11.2879 9.93814 11.1617 9.73264 10.8959 9.67364C10.6942 9.62889 10.4794 9.68664 10.2954 9.77989C10.2107 9.79314 10.1282 9.81889 10.0559 9.85489C9.80041 9.98189 9.60841 10.2324 9.64016 10.4861C9.65666 10.6171 9.72216 10.7076 9.81566 10.7649C9.87966 10.8259 9.97066 10.8644 10.0784 10.8621C10.1097 10.8614 10.1404 10.8579 10.1704 10.8519C10.1954 10.8699 10.2232 10.8856 10.2542 10.8986C10.3654 10.9451 10.4842 10.9416 10.5959 10.9074C10.6347 10.9184 10.6792 10.9241 10.7302 10.9229C10.8529 10.9199 10.9739 10.8686 11.0704 10.7916C11.0842 10.7861 11.0977 10.7801 11.1107 10.7726C11.2857 10.6754 11.3499 10.4774 11.3687 10.3136C11.3769 10.2416 11.3224 10.1766 11.2494 10.1401V10.1406Z" fill="#504F58"/>
<path d="M28.4008 26.6194C28.4983 26.7381 28.6311 26.8194 28.7463 26.9194C28.8471 27.0069 28.9408 27.1031 29.0223 27.2089C29.2076 27.4501 29.3338 27.7289 29.4113 28.0211C29.5051 28.3754 29.5193 28.7449 29.5028 29.1094C29.4843 29.5209 29.3933 29.9249 29.3726 30.3346C29.3551 30.6779 29.8921 30.7499 29.9718 30.4156C30.0268 30.1861 30.0476 29.9456 30.0726 29.7111C30.0976 29.4766 30.1141 29.2624 30.1176 29.0371C30.1243 28.6201 30.0846 28.1921 29.9563 27.7936C29.8446 27.4456 29.6741 27.1214 29.4411 26.8394C29.2308 26.5851 28.8858 26.2781 28.5321 26.3021C28.3638 26.3136 28.2976 26.4931 28.4008 26.6189V26.6194Z" fill="#236CBA"/>
</g>
<defs>
<clipPath id="clip0_8043_2704">
<rect width="50" height="50" fill="white"/>
</clipPath>
</defs>
</svg>
