<svg width="50" height="50" viewBox="0 0 50 50" fill="none" xmlns="http://www.w3.org/2000/svg">
<g clip-path="url(#clip0_8043_11983)">
<path d="M24.9998 43.3745C22.5192 43.3745 20.1128 42.8887 17.8473 41.9305C15.6593 41.005 13.694 39.6802 12.0067 37.9927C10.3195 36.3052 8.9945 34.3402 8.069 32.1522C7.11075 29.8867 6.625 27.4803 6.625 24.9998C6.625 22.5192 7.11075 20.1127 8.069 17.8472C8.9945 15.6592 10.3192 13.694 12.0067 12.0068C13.6942 10.3195 15.6593 8.9945 17.8473 8.069C20.1128 7.11075 22.5192 6.625 24.9998 6.625C27.4803 6.625 29.8867 7.11075 32.1522 8.069C34.3402 8.9945 36.3055 10.3193 37.9927 12.0068C39.68 13.6943 41.005 15.6592 41.9305 17.8472C42.8887 20.1127 43.3745 22.5192 43.3745 24.9998C43.3745 27.4803 42.8887 29.8867 41.9305 32.1522C41.005 34.3402 39.6802 36.3055 37.9927 37.9927C36.3052 39.68 34.3402 41.005 32.1522 41.9305C29.8867 42.8887 27.4803 43.3745 24.9998 43.3745ZM24.9998 7.1245C22.5865 7.1245 20.2455 7.597 18.042 8.529C15.9135 9.42925 14.0018 10.7183 12.3603 12.3598C10.7185 14.0015 9.42975 15.913 8.5295 18.0415C7.5975 20.245 7.125 22.586 7.125 24.9992C7.125 27.4125 7.5975 29.7535 8.5295 31.957C9.42975 34.0855 10.7188 35.9972 12.3603 37.6387C14.002 39.2805 15.9135 40.5693 18.042 41.4695C20.2455 42.4015 22.5865 42.874 24.9998 42.874C27.413 42.874 29.754 42.4015 31.9575 41.4695C34.086 40.5693 35.9977 39.2802 37.6392 37.6387C39.281 35.997 40.5698 34.0855 41.47 31.957C42.402 29.7535 42.8745 27.4125 42.8745 24.9992C42.8745 22.586 42.402 20.245 41.47 18.0415C40.5698 15.913 39.2807 14.0013 37.6392 12.3598C35.9975 10.718 34.086 9.42925 31.9575 8.529C29.754 7.597 27.413 7.1245 24.9998 7.1245Z" fill="#236CBA"/>
<path d="M41.9333 31.2776C40.8993 27.1696 39.4738 23.1601 37.6826 19.3213C36.6743 17.1603 35.5298 15.0246 33.8918 13.2918C32.2538 11.5588 30.0588 10.2496 27.6796 10.0938C25.0058 9.91884 22.3928 11.2241 20.4788 13.0993C20.1681 13.4038 19.7993 13.8248 19.4108 14.3226C19.3418 14.4108 19.2723 14.5013 19.2026 14.5941L19.2766 14.6483C18.8076 15.6878 17.4291 18.2286 16.6008 20.0286C15.7221 21.9378 15.5453 22.9053 15.2973 23.5403C15.0491 24.1761 14.7821 24.8066 14.4451 25.4001C13.3548 27.3201 11.5886 28.7616 10.3158 30.5656C9.34433 31.9426 8.66333 33.5548 8.55383 35.2366C8.44433 36.9183 8.94308 38.6678 10.0733 39.9181C10.2293 40.0908 11.2236 41.2393 12.5651 41.6111C12.8626 41.6936 13.6661 41.3883 14.1906 41.2863C15.0971 41.1098 15.8986 41.0696 17.0583 41.2963C18.6653 41.6106 20.3978 42.5476 22.2406 42.8258C25.2108 43.2743 28.3601 42.9028 30.9261 42.1351C34.6011 41.0356 38.4833 37.4798 40.1898 34.8961C41.6371 32.7048 41.9338 31.2776 41.9338 31.2776H41.9333Z" fill="#D2E8FC"/>
<path d="M19.4421 26.8085C19.2148 26.7502 18.9873 26.6917 18.7601 26.6335C18.4638 26.5575 18.3373 27.0155 18.6338 27.0915C18.8611 27.1497 19.0886 27.2082 19.3158 27.2665C19.6121 27.3425 19.7386 26.8845 19.4421 26.8085Z" fill="#BCD5EC"/>
<path d="M8.64196 34.5077C8.66671 34.5205 8.66221 34.4612 8.63521 34.4672C8.60821 34.4732 8.60071 34.508 8.59896 34.5357C8.49946 36.2432 9.34871 37.9757 10.7592 38.943C11.0605 39.1495 11.3832 39.3222 11.7007 39.5025C12.1972 39.7842 12.683 40.085 13.1562 40.404C13.465 40.612 13.7735 40.8325 13.9992 41.1285C13.7635 41.5002 13.304 41.6872 12.864 41.686C12.424 41.6847 12 41.52 11.6102 41.3157C10.546 40.7582 9.65221 39.8807 9.07496 38.827C8.49771 37.7732 8.23946 36.5477 8.34246 35.3507" fill="#BCD5EC"/>
<path d="M15.1546 26.337C14.9996 26.1447 14.7464 25.9997 14.4934 26.0217C14.1961 26.0475 13.9776 26.2375 13.8539 26.5012C13.6969 26.8362 13.5184 27.154 13.3051 27.4567C13.2546 27.5285 13.2024 27.5992 13.1494 27.6692C13.1456 27.6742 13.1324 27.6912 13.1241 27.702C13.1216 27.7052 13.1196 27.7077 13.1189 27.7087C13.0859 27.7502 13.0529 27.7917 13.0194 27.8327C12.9034 27.9747 12.7839 28.1137 12.6619 28.2507C12.4126 28.5307 12.1544 28.8025 11.8986 29.0762C11.3854 29.6262 10.8741 30.1925 10.4816 30.8375C10.2811 31.167 10.1146 31.521 9.99462 31.8877C9.84087 32.3572 9.77962 32.8562 9.75812 33.3482C9.74937 33.551 9.74387 33.756 9.74362 33.9612C9.70387 34.3352 9.71012 34.7132 9.77437 35.0882C9.84387 35.4927 9.99512 35.8892 10.2194 36.2365C10.3504 36.604 10.5681 36.9307 10.9371 37.1132C11.5721 37.4272 12.3401 37.203 12.8129 36.7052C13.2836 36.2095 13.5096 35.5132 13.6406 34.856C13.7421 34.3472 13.7811 33.8355 13.7609 33.3227C14.0011 33.3197 14.2451 33.2055 14.4121 32.9962C14.5701 32.7982 14.6654 32.5625 14.6439 32.305C14.6216 32.0375 14.5294 31.8087 14.4239 31.565C14.4129 31.5395 14.4016 31.514 14.3906 31.4885C14.3979 31.5055 14.4164 31.5537 14.3851 31.4747C14.3671 31.4295 14.3501 31.384 14.3349 31.3377C14.3191 31.2895 14.3054 31.2405 14.2936 31.191C14.2871 31.163 14.2816 31.135 14.2759 31.1067C14.2731 31.0937 14.2711 31.0842 14.2694 31.0772C14.2689 31.0705 14.2684 31.0617 14.2674 31.0505C14.2591 30.9515 14.2564 30.8522 14.2611 30.753C14.2636 30.6995 14.2681 30.646 14.2746 30.593C14.2759 30.5862 14.2774 30.578 14.2794 30.5675C14.2859 30.532 14.2924 30.4965 14.2999 30.461C14.3471 30.2365 14.4194 30.0177 14.5041 29.8047C14.5144 29.7792 14.5246 29.7535 14.5354 29.7282C14.5386 29.721 14.5431 29.711 14.5489 29.6977C14.5704 29.6492 14.5921 29.601 14.6144 29.553C14.6651 29.4435 14.7184 29.335 14.7726 29.227C14.9969 28.7807 15.2486 28.337 15.3711 27.849C15.4984 27.341 15.4974 26.7612 15.1551 26.337H15.1546ZM12.5321 31.745C12.4709 31.6837 12.4034 31.6287 12.3311 31.5817C12.3464 31.5617 12.3616 31.542 12.3769 31.522C12.3854 31.5275 12.3941 31.5327 12.4029 31.5385C12.4029 31.5375 12.4194 31.546 12.4306 31.555C12.4311 31.555 12.4316 31.5555 12.4319 31.5557C12.4314 31.5557 12.4311 31.5552 12.4309 31.5552C12.4321 31.5562 12.4334 31.5575 12.4346 31.5585C12.4529 31.5757 12.4709 31.5922 12.4881 31.6102C12.4871 31.6092 12.5174 31.6462 12.5304 31.6607C12.5374 31.6712 12.5449 31.6822 12.5471 31.6857C12.5571 31.7015 12.5669 31.7175 12.5761 31.7337C12.5611 31.7367 12.5464 31.7405 12.5319 31.745H12.5321Z" fill="#D9EFFF"/>
<path d="M12.4303 31.5556C12.4303 31.5556 12.4303 31.5556 12.4301 31.5556C12.4208 31.5506 12.4116 31.5448 12.4023 31.5391C12.4023 31.5398 12.4096 31.5443 12.4303 31.5556Z" fill="#D9EFFF"/>
<path d="M30.2741 29.6956C30.2723 29.6804 30.2703 29.6651 30.2676 29.6499C30.2658 29.6394 30.2636 29.6286 30.2613 29.6181C30.2596 29.6134 30.2573 29.6079 30.2546 29.6001C30.2488 29.5894 30.2371 29.5581 30.2293 29.5364C30.2158 29.5141 30.1956 29.4921 30.1781 29.4726C30.1621 29.4676 30.1461 29.4634 30.1303 29.4579C30.1268 29.4574 30.1226 29.4566 30.1173 29.4559C29.9711 29.4324 29.8531 29.3536 29.7878 29.2386C29.6671 29.2376 29.5466 29.2306 29.4263 29.2191C29.2181 29.1994 29.0726 29.1741 28.8428 29.1374C27.9783 28.9986 27.1101 28.8794 26.2376 28.8034C25.3806 28.7289 24.5188 28.6966 23.6588 28.7299C23.2361 28.7461 22.8131 28.7764 22.3933 28.8289C21.9803 28.8806 21.5666 28.9474 21.1768 29.0986C21.0543 29.1461 20.9351 29.2011 20.8203 29.2626C20.2421 29.2774 19.7258 29.6554 19.3531 30.0741C18.9731 30.5011 18.6416 31.1164 18.8041 31.7041C18.9873 32.3671 19.7103 32.6156 20.3291 32.4601C20.6296 32.3846 20.9018 32.2211 21.1613 32.0576C21.4206 31.8944 21.6848 31.7421 21.9618 31.6109C22.0211 31.5829 22.0808 31.5556 22.1408 31.5291C22.1493 31.5254 22.1851 31.5101 22.1971 31.5051C22.2251 31.4936 22.2531 31.4821 22.2813 31.4711C22.4236 31.4149 22.5678 31.3634 22.7133 31.3166C22.9976 31.2254 23.2881 31.1524 23.5816 31.0981C23.6533 31.0849 23.7251 31.0729 23.7971 31.0619C23.8078 31.0601 23.8491 31.0544 23.8596 31.0526C23.8806 31.0499 23.9013 31.0474 23.9223 31.0449C24.0816 31.0261 24.2413 31.0129 24.4013 31.0054C24.6961 30.9916 24.9916 30.9969 25.2856 31.0209C25.8868 31.0701 26.5033 31.2019 27.1451 31.2934C27.1921 31.3001 27.2391 31.3066 27.2861 31.3129C27.5698 31.2824 27.8528 31.2444 28.1351 31.2011C28.1856 31.1934 28.2361 31.1854 28.2863 31.1774C28.4781 31.1256 28.6701 31.0746 28.8606 31.0181C28.8606 31.0176 28.9536 30.9889 28.9651 30.9851C29.0136 30.9691 29.0616 30.9524 29.1096 30.9351C29.2041 30.9006 29.2978 30.8634 29.3896 30.8216C29.4796 30.7809 29.5656 30.7336 29.6523 30.6864C29.6593 30.6821 29.6648 30.6789 29.6696 30.6759C29.6828 30.6671 29.6961 30.6581 29.7091 30.6491C29.7433 30.6251 29.7768 30.5999 29.8096 30.5736C29.8421 30.5476 29.8738 30.5204 29.9043 30.4921C29.9171 30.4804 29.9293 30.4681 29.9416 30.4559C29.9448 30.4521 29.9486 30.4476 29.9528 30.4426C30.0156 30.3569 30.0751 30.2726 30.1276 30.1799C30.1513 30.1359 30.1531 30.1324 30.1331 30.1691C30.1446 30.1446 30.1558 30.1201 30.1666 30.0954C30.1876 30.0464 30.2068 29.9969 30.2241 29.9464C30.2376 29.9064 30.2498 29.8661 30.2606 29.8251C30.2536 29.8434 30.2716 29.7314 30.2733 29.7161C30.2733 29.7071 30.2733 29.7004 30.2736 29.6949L30.2741 29.6956Z" fill="#D9EFFF"/>
<path d="M29.3947 10.6369C28.7657 10.3217 28.0549 10.1869 27.3487 10.1552C27.2689 10.1219 27.1797 10.1209 27.0902 10.1482C26.9654 10.1469 26.8409 10.1482 26.7174 10.1527C25.8597 10.1817 25.0034 10.3482 24.1972 10.6422C22.6777 11.1959 21.3237 12.1659 20.3444 13.4524C20.2817 13.5134 20.2194 13.5747 20.1582 13.6374C19.2434 14.5732 18.5134 15.7009 18.1409 16.9614C18.0229 17.3604 18.5919 17.5887 18.8034 17.2407C19.2837 16.4512 19.7589 15.7169 20.4469 15.1014C20.7569 14.8242 21.1487 14.5669 21.5362 14.4004C21.9609 14.2177 22.4637 14.1022 22.8907 14.0569C23.3664 14.0067 23.8407 14.0132 24.3122 14.0562C24.3179 14.0612 24.3239 14.0659 24.3297 14.0709C24.4624 14.1844 24.6499 14.2112 24.7927 14.1122C25.1857 14.1672 25.5767 14.2429 25.9652 14.3277C27.0084 14.5559 28.1197 14.9564 29.1942 14.7072C29.6294 14.6062 30.0622 14.3869 30.3654 14.0537C30.6802 13.7077 30.8502 13.2594 30.8434 12.7914C30.8299 11.8544 30.2119 11.0464 29.3949 10.6369H29.3947ZM24.0774 13.1059C24.0862 13.1037 24.0949 13.1012 24.1037 13.0989C24.1032 13.1044 24.1029 13.1102 24.1027 13.1159C24.0942 13.1127 24.0857 13.1094 24.0772 13.1062L24.0774 13.1059ZM28.7632 11.2492C28.7837 11.2492 28.8064 11.2492 28.8279 11.2512C28.8299 11.2524 28.8574 11.2584 28.8619 11.2599C28.8784 11.2654 28.8952 11.2702 28.9119 11.2754C28.9154 11.2769 28.9192 11.2787 28.9232 11.2802C28.9002 11.2974 28.8782 11.3159 28.8569 11.3354C28.7932 11.3192 28.7279 11.3082 28.6619 11.3022C28.6567 11.2907 28.6509 11.2794 28.6444 11.2682C28.6429 11.2654 28.6409 11.2632 28.6394 11.2604C28.6422 11.2599 28.6447 11.2589 28.6474 11.2584C28.7264 11.2409 28.6947 11.2507 28.6779 11.2524C28.7057 11.2494 28.7349 11.2487 28.7632 11.2489V11.2492ZM26.9719 11.1919C26.9874 11.2049 27.0024 11.2187 27.0164 11.2327C27.0164 11.2327 27.0167 11.2329 27.0169 11.2332C26.9857 11.2272 26.9542 11.2257 26.9232 11.2294C26.9389 11.2164 26.9547 11.2039 26.9702 11.1907C26.9709 11.1912 26.9717 11.1914 26.9719 11.1917V11.1919ZM25.6164 13.5164C25.6754 13.4854 25.7342 13.4544 25.7927 13.4232C25.8297 13.4522 25.8712 13.4747 25.9157 13.4884C25.9602 13.5422 26.0204 13.5857 26.0934 13.6114C26.1017 13.6144 26.1102 13.6169 26.1187 13.6197C26.1159 13.6192 26.1132 13.6184 26.1104 13.6179C25.9464 13.5824 25.7817 13.5482 25.6162 13.5162L25.6164 13.5164Z" fill="#D9EFFF"/>
<path d="M21.831 42.371C21.6105 42.2018 21.4407 42.0538 21.2465 41.8598C21.0557 41.6693 20.8782 41.4675 20.715 41.256C20.4055 40.8555 20.1447 40.4043 19.947 39.9258C19.7795 39.52 19.6692 38.9103 19.1512 38.7598C18.8132 38.6615 18.5342 38.8288 18.2617 38.9885C17.9747 39.1568 17.6877 39.325 17.4007 39.4933C16.8295 39.828 16.1837 40.138 15.7865 40.664C15.7232 40.7478 15.7282 40.8653 15.7985 40.9458C15.9745 41.1473 16.2177 41.3005 16.488 41.3648C16.5722 41.3848 16.66 41.3763 16.725 41.3335C16.7895 41.3875 16.86 41.4358 16.933 41.4798C17.1235 41.5943 17.3242 41.6955 17.528 41.7875C18.3387 42.1538 19.2255 42.3413 20.1017 42.504C20.6227 42.6008 21.1445 42.6928 21.666 42.7865C21.7715 42.8055 21.8842 42.729 21.9197 42.6408C21.9597 42.5415 21.917 42.4368 21.8312 42.3708L21.831 42.371ZM20.439 41.7355C20.4407 41.7175 20.4422 41.6998 20.4432 41.6818C20.4737 41.719 20.5047 41.756 20.5362 41.7928C20.5045 41.7728 20.4722 41.7535 20.439 41.7355ZM18.9052 41.6978C18.9037 41.727 18.9077 41.754 18.9162 41.7783C18.8977 41.7733 18.879 41.7683 18.8605 41.7633C18.8762 41.7418 18.891 41.72 18.9052 41.6975V41.6978Z" fill="#BCD5EC"/>
<path d="M19.1307 33.4074C19.0994 33.0384 18.8054 32.8119 18.5937 32.5386C18.5947 32.5396 18.5702 32.5069 18.5699 32.5064C18.5464 32.4736 18.5227 32.4411 18.4997 32.4079C18.4577 32.3471 18.4174 32.2851 18.3789 32.2221C18.2982 32.0904 18.2252 31.9541 18.1597 31.8141C18.0984 31.6831 18.0447 31.5421 17.9927 31.3749C17.9447 31.2209 17.9057 31.0641 17.8759 30.9056C17.8559 30.7994 17.8507 30.7654 17.8417 30.6831C17.8329 30.6031 17.8267 30.5226 17.8229 30.4421C17.8144 30.2676 17.8184 30.0929 17.8322 29.9186C17.8447 29.7619 17.7107 29.6089 17.5659 29.5691C17.4079 29.5256 17.2422 29.5994 17.1564 29.7356C16.8659 30.1976 16.5569 30.6009 16.1839 30.9981C15.8049 31.4019 15.3789 31.7406 14.9572 32.0969C14.5354 32.4529 14.1442 32.9036 14.0557 33.4674C14.0079 33.7709 14.0414 34.0644 14.1777 34.3419C14.2999 34.5911 14.5014 34.7876 14.7202 34.9526C15.2189 35.3294 15.8554 35.5574 16.4667 35.6651C16.6592 35.6991 16.8572 35.6134 16.9127 35.4119C16.9607 35.2369 16.8534 35.0001 16.6594 34.9659C16.1647 34.8789 15.6984 34.7216 15.2759 34.4576C15.2269 34.4271 15.1792 34.3949 15.1324 34.3611C15.1279 34.3579 15.1249 34.3556 15.1224 34.3539C15.1204 34.3521 15.1179 34.3501 15.1147 34.3476C15.0949 34.3316 15.0757 34.3151 15.0567 34.2981C14.9639 34.2154 14.9007 34.1434 14.8577 34.0736C14.7704 33.9321 14.7329 33.7519 14.7652 33.6006C14.8237 33.3261 14.9672 33.1049 15.1542 32.9046C15.1469 33.1954 15.5317 33.4346 15.7724 33.1779C15.7914 33.1576 15.8109 33.1376 15.8302 33.1174C15.8502 33.1154 15.8702 33.1114 15.8902 33.1056C15.8892 33.1909 15.8974 33.2759 15.9187 33.3594C16.0019 33.6879 16.2757 33.9089 16.5737 34.0386C16.8649 34.1654 17.1767 34.2706 17.4889 34.3296C17.8642 34.4004 18.2434 34.3981 18.5942 34.2316C18.9059 34.0836 19.1617 33.7666 19.1312 33.4071L19.1307 33.4074ZM17.1559 30.9816C17.1769 31.1049 17.2029 31.2271 17.2339 31.3481C17.2294 31.3469 17.2247 31.3461 17.2202 31.3451C17.2172 31.3244 17.2144 31.3036 17.2119 31.2831C17.2002 31.1876 17.1712 31.1011 17.1119 31.0359C17.1267 31.0179 17.1414 30.9996 17.1559 30.9816ZM17.2577 33.5201C17.1384 33.4824 17.0189 33.4429 16.9024 33.3966C16.8964 33.3944 16.8929 33.3929 16.8902 33.3919C16.8854 33.3896 16.8802 33.3869 16.8737 33.3836C16.8524 33.3731 16.8309 33.3629 16.8099 33.3519C16.7839 33.3381 16.7587 33.3234 16.7339 33.3076C16.7237 33.3014 16.7137 33.2944 16.7037 33.2874C16.6994 33.2836 16.6932 33.2784 16.6847 33.2709C16.6749 33.2604 16.6649 33.2506 16.6552 33.2406C16.6567 33.2406 16.6444 33.2229 16.6337 33.2071C16.6319 33.1971 16.6164 33.1581 16.6172 33.1716C16.6159 33.1499 16.6129 33.0809 16.6187 33.0434C16.6344 32.9411 16.6904 32.7786 16.7382 32.6604C16.7512 32.6286 16.7654 32.5964 16.7809 32.5641C16.7919 32.5954 16.8034 32.6264 16.8152 32.6576C16.8787 32.8261 17.0244 32.9456 17.2129 32.9174C17.2204 32.9164 17.2277 32.9146 17.2349 32.9131C17.3319 33.1769 17.4832 33.4204 17.6727 33.6289C17.5379 33.6054 17.4034 33.5664 17.2579 33.5204L17.2577 33.5201ZM18.4004 33.4851C18.3579 33.5386 18.3647 33.5299 18.3149 33.5599C18.3082 33.5639 18.3019 33.5676 18.2959 33.5711C18.3317 33.4941 18.3382 33.4071 18.3174 33.3256C18.3274 33.3366 18.3372 33.3479 18.3467 33.3591C18.3482 33.3619 18.3752 33.3971 18.3799 33.4044C18.3837 33.4104 18.3962 33.4266 18.4047 33.4374C18.4034 33.4359 18.4024 33.4346 18.4009 33.4329C18.4039 33.4461 18.4064 33.4554 18.4082 33.4614C18.3984 33.4709 18.3869 33.4891 18.4044 33.4789C18.4067 33.4776 18.4084 33.4769 18.4094 33.4764C18.4094 33.4779 18.4094 33.4789 18.4094 33.4806C18.4102 33.4791 18.4107 33.4779 18.4112 33.4766C18.4144 33.4804 18.3699 33.5229 18.4002 33.4849L18.4004 33.4851Z" fill="#BCD5EC"/>
<path d="M33.8516 13.4792C33.8723 14.6852 43.8811 31.3887 36.7256 38.4269C35.5446 39.5887 36.3961 39.3079 37.1251 38.7554C37.9266 38.1479 40.2811 34.9989 40.6666 34.2879C41.3076 33.1062 41.9441 32.2372 41.8321 30.8277C41.7928 30.3347 41.6631 29.8602 41.5331 29.3909C41.0033 27.4787 40.4341 25.8497 39.8613 23.9559C39.4036 22.4424 38.7878 21.6947 38.1926 20.2519C37.8921 19.5229 37.6026 18.6282 37.2308 17.9494C36.8868 17.3217 36.0781 16.1727 35.7916 15.5169C35.5221 14.8999 33.8403 12.8252 33.8518 13.4797L33.8516 13.4792Z" fill="#BCD5EC"/>
<path d="M20.7644 34.3605C21.3279 34.5975 22.8861 35.404 22.9036 35.4797C22.9236 35.5662 22.7736 35.8775 22.7466 35.9617C22.4139 37.0037 22.0576 38.0382 21.6776 39.0642C21.6776 39.0642 17.6471 40.791 15.8356 41.5135C15.6199 41.5995 15.4036 41.7315 15.1754 41.6887C14.9829 41.6527 12.8646 40.2587 12.1996 39.8787C11.8689 39.6897 10.8964 39.0915 10.5841 38.8725C10.4236 38.76 10.2569 38.646 10.1111 38.5145C9.93913 38.3595 9.95713 38.3202 9.99113 38.088C10.2371 36.4125 10.6729 34.7745 11.2041 33.1685C11.2041 33.1685 13.6806 33.1777 14.7306 33.1582" fill="#D7D7D7"/>
<path d="M10.0002 38.088C9.97116 38.2472 9.94516 38.4242 10.0324 38.5607C10.0977 38.6625 10.2127 38.719 10.3219 38.771C10.8799 39.0367 11.4362 39.314 11.9364 39.6767C12.2309 39.8902 12.5044 40.1322 12.8047 40.3374C12.9992 40.4704 13.2042 40.5877 13.4089 40.7045C13.9324 41.0035 14.4559 41.3027 14.9794 41.6017C15.0632 41.6495 15.1549 41.699 15.2504 41.6865C15.4164 41.6645 15.4984 41.4772 15.5492 41.3177C16.0534 39.735 16.5574 38.152 17.0617 36.5692C16.8892 36.5235 16.7329 36.4322 16.5789 36.342C15.2594 35.568 13.9397 34.7939 12.6282 34.0062C12.2672 33.7894 11.5542 33.1842 11.1474 33.6219C10.9389 33.8464 10.8719 34.276 10.7852 34.5605C10.6769 34.9165 10.5812 35.2765 10.4944 35.6382C10.2999 36.4485 10.1499 37.2682 10.0002 38.0875V38.088Z" fill="#CCCCCC"/>
<path d="M17.1138 36.483C16.5335 38.1743 15.9813 39.8753 15.457 41.5848C16.175 41.5495 16.81 41.1345 17.484 40.8853C18.1143 40.6523 18.7975 40.5598 19.3945 40.2515C19.6953 40.0963 19.9665 39.89 20.254 39.7113C20.642 39.47 21.0608 39.2783 21.4973 39.1425C21.565 39.1215 21.635 39.1008 21.6905 39.0563C21.7478 39.0103 21.7838 38.9433 21.818 38.8783C22.3875 37.799 22.9728 36.655 22.9263 35.4355C21.1115 35.6433 19.31 35.9653 17.5358 36.3988" fill="#B2B2B2"/>
<path d="M42.1616 31.2144C41.4786 28.5064 40.6284 25.8414 39.6139 23.2396C39.1049 21.9344 38.5556 20.6449 37.9669 19.3736C37.4219 18.1971 36.8439 17.0329 36.1666 15.9261C34.8719 13.8096 33.1694 11.8789 30.9179 10.7596C29.8406 10.2241 28.6669 9.88989 27.4616 9.84514C26.2694 9.80089 25.0696 10.0356 23.9639 10.4769C22.8416 10.9246 21.8076 11.5699 20.9014 12.3684C20.1526 13.0279 19.5234 13.7969 18.9711 14.6256C17.8679 16.2809 17.0359 18.1124 16.2929 19.9524C15.7726 21.2409 15.3476 22.5659 14.8236 23.8521C14.5711 24.4716 14.2836 25.0771 13.9269 25.6439C13.5969 26.1684 13.2179 26.6589 12.8186 27.1321C12.0069 28.0944 11.1204 28.9919 10.3516 29.9906C8.83363 31.9629 7.87588 34.4564 8.32013 36.9654C8.52913 38.1451 9.05113 39.2619 9.86413 40.1459C10.6314 40.9799 11.6656 41.8436 12.8559 41.8769C13.4419 41.8931 13.9726 41.6621 14.4231 41.3006C14.5239 41.2196 14.5059 41.0494 14.4231 40.9646C14.3254 40.8646 14.1866 40.8849 14.0871 40.9646C13.6596 41.3076 13.1234 41.4739 12.5789 41.3741C12.0254 41.2731 11.5219 40.9804 11.0834 40.6374C10.1659 39.9199 9.43688 38.9834 9.04988 37.8801C8.23838 35.5674 8.87213 33.0714 10.1679 31.0669C11.4969 29.0106 13.5136 27.4794 14.6744 25.3026C15.3844 23.9714 15.8151 22.5036 16.3511 21.0984C17.0179 19.3501 17.7596 17.6199 18.6881 15.9929C19.1446 15.1931 19.6471 14.4111 20.2451 13.7089C20.9566 12.8734 21.8131 12.1606 22.7556 11.5996C24.7606 10.4061 27.1569 9.96039 29.4114 10.6604C31.6901 11.3679 33.5529 13.0184 34.9314 14.9226C36.4379 17.0036 37.5121 19.3956 38.5034 21.7544C39.5526 24.2509 40.4499 26.8116 41.1889 29.4169C41.3701 30.0556 41.5414 30.6969 41.7036 31.3406C41.7784 31.6369 42.2366 31.5114 42.1616 31.2144Z" fill="#236CBA"/>
<path d="M19.0338 32.8544C18.0368 32.5024 17.323 32.4144 16.4398 32.2899C16.1185 32.2446 15.6043 32.1634 15.337 32.3474C15.1473 32.4779 15.0435 32.7001 14.9698 32.9184C14.9033 33.1151 14.8538 33.3176 14.822 33.5229C14.809 33.6074 14.7993 33.6951 14.8233 33.7774C14.861 33.9064 14.9735 33.9966 15.0803 34.0786C15.3025 34.2491 16.1948 34.9139 17.4798 35.2204C18.9558 35.5724 19.3175 35.5331 19.8553 35.4219C19.9428 35.4039 20.1438 35.2911 20.2193 35.2434C20.32 35.1796 20.3723 35.0631 20.4145 34.9516C20.5545 34.5841 20.6485 34.1994 20.694 33.8089" fill="#EB6FA1"/>
<path d="M20.0798 33.6671C19.8281 33.5599 19.5863 33.4159 19.3731 33.2446C19.2731 33.1644 19.1348 33.1469 19.0371 33.2446C18.9541 33.3276 18.9366 33.4999 19.0371 33.5806C19.2291 33.7346 19.4303 33.8739 19.6493 33.9869C19.7551 34.0414 19.8641 34.0896 19.9746 34.1341C20.0208 34.1529 20.0676 34.1701 20.1146 34.1869C20.0456 34.2671 19.9528 34.3391 19.8848 34.3844C19.8773 34.3894 19.8696 34.3939 19.8621 34.3989C19.4976 34.4599 19.1228 34.4139 18.7566 34.3361C18.6393 34.3114 18.5226 34.2836 18.4063 34.2549C18.3546 34.2421 18.3058 34.2326 18.2596 34.2306C18.1713 34.0741 18.5646 34.1991 18.6303 34.4251C18.7623 34.8796 18.7183 35.0924 18.4323 35.3269C18.3266 35.4136 17.6676 35.3054 17.7983 35.3531C18.3193 35.5434 18.8783 35.4974 19.4146 35.4061C19.6528 35.3656 19.9463 35.3489 20.1376 35.1854C20.2943 35.0514 20.3171 34.8431 20.4493 34.6984C20.5078 34.6344 20.5201 34.5429 20.4988 34.4621C20.5773 34.3674 20.6413 34.2621 20.6643 34.1544C20.7388 33.8076 20.3063 33.7639 20.0801 33.6676L20.0798 33.6671Z" fill="#CD5C8A"/>
<path d="M17.0464 36.1496C16.3567 35.7961 15.6932 35.3918 15.0647 34.9383C14.7512 34.7123 14.4472 34.4738 14.1524 34.2236C14.0667 34.1508 13.4344 33.6883 13.6702 33.5528C13.8794 33.4326 13.6907 33.1086 13.4809 33.2291C13.4332 33.2566 13.3924 33.2918 13.3592 33.3321C13.3467 33.3246 13.3334 33.3178 13.3187 33.3131C13.1727 33.2663 13.0214 33.2506 12.8697 33.2708C12.8137 33.2783 12.7617 33.3013 12.7267 33.3396C12.4942 33.1931 12.2354 33.0943 12.0122 33.2528C11.8962 33.3353 11.8874 33.4958 12.0122 33.5766C12.0492 33.6006 12.0862 33.6243 12.1229 33.6483C12.4089 33.9616 12.7722 34.1898 13.1762 34.3196C13.2602 34.3466 13.3279 34.3146 13.3677 34.2593C13.5524 34.3941 13.7367 34.5298 13.9209 34.6651C14.5114 35.0988 15.1062 35.5298 15.7374 35.9031C16.0984 36.1166 16.4712 36.3093 16.8574 36.4731C16.9514 36.5128 17.0572 36.5006 17.1139 36.4058C17.1639 36.3226 17.1364 36.1953 17.0467 36.1493L17.0464 36.1496ZM13.2267 33.6976C13.2352 33.6956 13.2439 33.6938 13.2524 33.6916C13.2524 33.6933 13.2524 33.6948 13.2527 33.6966C13.2534 33.7038 13.2547 33.7111 13.2557 33.7183C13.2459 33.7113 13.2364 33.7046 13.2267 33.6976Z" fill="#F0F0F0"/>
<path d="M16.1324 34.4171C15.9584 34.2366 15.9519 33.9306 16.1237 33.7459C16.2052 33.6581 16.1932 33.5139 16.0857 33.4514C15.8322 33.3044 15.5977 33.1336 15.3814 32.9359C15.3039 32.8649 15.1944 32.8654 15.1162 32.9359C14.9012 33.1301 14.8507 33.4526 14.9414 33.7206C15.0364 34.0011 15.2537 34.1994 15.4824 34.3739C15.5094 34.3974 15.5382 34.4191 15.5692 34.4389C15.6217 34.4724 15.6717 34.4771 15.7144 34.4634C15.7527 34.5421 15.8034 34.6161 15.8669 34.6819C16.0349 34.8559 16.2999 34.5904 16.1322 34.4166L16.1324 34.4171Z" fill="#F47FB4"/>
<path d="M16.8731 36.3934C16.3679 38.1229 15.8391 39.8456 15.2874 41.5609C15.2124 41.7941 15.5791 41.8941 15.6539 41.6619C16.2056 39.9466 16.7344 38.2239 17.2396 36.4944C17.3084 36.2591 16.9416 36.1586 16.8731 36.3934Z" fill="#696969"/>
<path d="M16.0696 41.1862C15.9426 41.2375 15.8149 41.2872 15.6891 41.3415C15.5779 41.3897 15.4591 41.453 15.3359 41.458C15.3191 41.4587 15.2951 41.4527 15.2794 41.4552C15.2489 41.4597 15.2794 41.4485 15.3041 41.4665C15.2779 41.4477 15.2416 41.436 15.2131 41.4207C14.9949 41.3042 14.7851 41.1715 14.5749 41.0415C13.9884 40.679 13.4089 40.3052 12.8224 39.9427C12.2981 39.6187 11.7636 39.3122 11.2426 38.9827C10.9159 38.7762 10.5581 38.5712 10.2831 38.298C10.2664 38.2815 10.2526 38.2577 10.2626 38.2855C10.2474 38.2437 10.2629 38.2785 10.2609 38.2887C10.2644 38.2705 10.2616 38.2487 10.2634 38.2297C10.2724 38.1265 10.2994 37.983 10.3181 37.8662C10.3634 37.5825 10.4141 37.2997 10.4696 37.018C10.7226 35.7342 11.0774 34.4727 11.4874 33.2307C11.4111 33.2887 11.3346 33.347 11.2584 33.405C12.1454 33.4082 13.0326 33.409 13.9196 33.404C14.2081 33.4022 14.4964 33.4002 14.7849 33.395C15.0901 33.3895 15.0911 32.9145 14.7849 32.92C13.7169 32.9395 12.6484 32.9337 11.5804 32.9312C11.4731 32.931 11.3656 32.9307 11.2584 32.9302C11.1496 32.9297 11.0621 33.005 11.0294 33.1045C10.6494 34.2555 10.3169 35.4232 10.0686 36.6102C10.0066 36.907 9.94988 37.2047 9.89888 37.5035C9.87463 37.6452 9.85188 37.787 9.83038 37.9292C9.81288 38.0455 9.78088 38.1707 9.78563 38.2887C9.79588 38.5402 10.0016 38.6942 10.1851 38.8355C10.3489 38.9615 10.5189 39.08 10.6916 39.1932C11.2521 39.561 11.8321 39.8955 12.4046 40.2437C13.0034 40.6082 13.5919 40.9892 14.1869 41.3597C14.4439 41.5197 14.7004 41.6842 14.9674 41.8275C15.0666 41.8807 15.1584 41.922 15.2724 41.9312C15.5906 41.957 15.9096 41.7595 16.1959 41.644C16.3149 41.596 16.3986 41.4857 16.3619 41.3517C16.3309 41.239 16.1894 41.1375 16.0696 41.1857V41.1862Z" fill="#696969"/>
<path d="M20.6981 34.5662C21.3043 34.8227 21.8951 35.1332 22.4698 35.4529C22.5661 35.5064 22.6631 35.5599 22.7553 35.6204C22.7691 35.6294 22.7826 35.6404 22.7968 35.6487C22.7961 35.6482 22.7573 35.6034 22.7803 35.6369C22.8081 35.6772 22.7068 35.4669 22.7208 35.4944C22.7371 35.5264 22.7263 35.4759 22.7196 35.4999C22.7073 35.5444 22.6933 35.5879 22.6773 35.6312C22.5021 36.1042 22.3501 36.5847 22.1883 37.0629C21.9686 37.7124 21.7396 38.3589 21.5016 39.0019C21.5381 38.9547 21.5743 38.9074 21.6108 38.8599C20.7406 39.2327 19.8693 39.6027 18.9971 39.9707C18.5943 40.1407 18.1913 40.3099 17.7881 40.4784C17.6698 40.5279 17.5851 40.6357 17.6221 40.7707C17.6528 40.8822 17.7951 40.9864 17.9143 40.9367C18.7878 40.5717 19.6598 40.2032 20.5308 39.8329C20.8376 39.7024 21.1443 39.5719 21.4511 39.4409C21.5801 39.3859 21.7236 39.3407 21.8463 39.2719C21.9288 39.2257 21.9546 39.1424 21.9851 39.0592C22.0331 38.9289 22.0808 38.7987 22.1281 38.6682C22.2198 38.4149 22.3103 38.1612 22.3993 37.9069C22.5746 37.4062 22.7443 36.9034 22.9083 36.3987C22.9693 36.2109 23.0286 36.0247 23.1023 35.8417C23.1596 35.6992 23.2466 35.5064 23.1608 35.3582C23.0758 35.2112 22.8503 35.1212 22.7093 35.0427C22.1343 34.7229 21.5438 34.4124 20.9376 34.1559C20.8196 34.1059 20.6831 34.1204 20.6126 34.2412C20.5543 34.3407 20.5791 34.5159 20.6978 34.5662H20.6981Z" fill="#696969"/>
<path d="M17.7888 40.4776C17.2168 40.7166 16.644 40.9544 16.0693 41.1866C15.9505 41.2346 15.8665 41.3449 15.9033 41.4789C15.9343 41.5916 16.0758 41.6931 16.1955 41.6449C16.7705 41.4126 17.343 41.1749 17.915 40.9359C18.0333 40.8864 18.118 40.7786 18.081 40.6436C18.0503 40.5321 17.908 40.4279 17.7888 40.4776Z" fill="#696969"/>
<path d="M11.3482 33.5034C12.9997 34.3612 14.5732 35.3617 16.2112 36.2444C16.4417 36.3687 16.6754 36.5017 16.9222 36.5922C17.0664 36.6452 17.2162 36.6194 17.3654 36.6037C18.1689 36.5182 18.9692 36.3899 19.7664 36.2594C20.7604 36.0969 21.7657 35.9362 22.7387 35.6717C22.9619 35.6109 22.8672 35.2637 22.6429 35.3244C21.8002 35.5534 20.9324 35.6994 20.0724 35.8452C19.2382 35.9867 18.3952 36.1209 17.5624 36.2209C17.4457 36.2349 17.3287 36.2487 17.2114 36.2582C17.1784 36.2609 17.1452 36.2639 17.1122 36.2647C17.1007 36.2647 17.0877 36.2634 17.0762 36.2652C17.0352 36.2709 17.1124 36.2829 17.0887 36.2672C17.0697 36.2547 17.0309 36.2492 17.0092 36.2414C16.9999 36.2382 16.9909 36.2342 16.9817 36.2304C16.9457 36.2164 17.0217 36.2479 16.9844 36.2314C16.9594 36.2204 16.9347 36.2094 16.9102 36.1979C16.7912 36.1427 16.6747 36.0824 16.5584 36.0212C15.7799 35.6114 15.0214 35.1632 14.2592 34.7242C13.3557 34.2037 12.4557 33.6727 11.5299 33.1919C11.3247 33.0852 11.1424 33.3959 11.3482 33.5027V33.5034Z" fill="#696969"/>
<path d="M19.0817 32.6742C18.563 32.4925 18.0327 32.3547 17.4915 32.2602C17.0105 32.1762 16.519 32.0915 16.032 32.0537C15.8102 32.0365 15.5725 32.0375 15.364 32.1232C15.1337 32.218 14.9755 32.421 14.8755 32.6435C14.7577 32.9057 14.6825 33.1897 14.6392 33.4735C14.6192 33.6047 14.6065 33.734 14.6525 33.8617C14.6967 33.9855 14.7872 34.0837 14.8872 34.1657C15.4542 34.6307 16.13 34.9805 16.8192 35.2222C17.3225 35.3987 17.8532 35.512 18.3782 35.6025C18.688 35.656 19.0047 35.7 19.32 35.6852C19.6372 35.6702 19.943 35.6152 20.2217 35.4585C20.4767 35.315 20.5667 35.0912 20.6567 34.824C20.7677 34.494 20.8372 34.1542 20.8792 33.809C20.8915 33.7082 20.7842 33.6215 20.6917 33.6215C20.5802 33.6215 20.5165 33.708 20.5042 33.809C20.4712 34.081 20.412 34.3502 20.3312 34.612C20.2955 34.7275 20.26 34.8475 20.2085 34.9572C20.166 35.048 20.1172 35.087 20.0325 35.1347C19.9112 35.203 19.8015 35.2432 19.666 35.2685C19.5462 35.2907 19.5217 35.2952 19.4102 35.3045C19.1605 35.3252 18.9082 35.307 18.6607 35.2705C18.2215 35.2057 17.7812 35.1115 17.3527 34.9955C16.6235 34.7982 15.9297 34.4647 15.3162 34.0237C15.2257 33.9587 15.1302 33.8962 15.0565 33.8132C14.9827 33.7302 14.9907 33.6342 15.0082 33.5257C15.0312 33.384 15.0645 33.2435 15.105 33.1055C15.1647 32.9025 15.2377 32.6672 15.4072 32.527C15.5457 32.4125 15.7512 32.4152 15.9212 32.422C16.153 32.431 16.3827 32.4702 16.612 32.5025C16.8657 32.5382 17.1197 32.5745 17.3722 32.6182C17.9202 32.713 18.457 32.8517 18.9817 33.0355C19.21 33.1155 19.308 32.7532 19.0815 32.674L19.0817 32.6742Z" fill="#BB3A70"/>
<path d="M30.0005 29.0268C28.126 28.6116 26.1913 28.3621 24.2695 28.3713C23.3283 28.3758 22.3775 28.4456 21.4575 28.6526C21.0358 28.7476 20.6255 28.8778 20.2278 29.0476C19.746 29.2531 19.2688 29.5266 18.9298 29.9346C18.2738 30.7246 18.1618 31.8861 18.7078 32.7661C18.9578 33.1688 19.3268 33.5093 19.7588 33.7076C20.2138 33.9163 20.7123 33.9721 21.2085 33.9406C21.7133 33.9083 22.2098 33.8031 22.709 33.7268C23.1618 33.6578 23.6395 33.6103 24.0898 33.7186C24.6113 33.8441 24.9943 34.2098 25.4373 34.4878C25.9128 34.7863 26.4453 34.9913 26.9833 35.1463C28.5998 35.6123 30.391 35.8703 31.9663 35.1251C32.2075 35.0108 32.4363 34.8733 32.6528 34.7173C32.7568 34.6423 32.807 34.5106 32.738 34.3923C32.678 34.2896 32.5178 34.2318 32.413 34.3071C31.6505 34.8566 30.7483 35.1136 29.8138 35.1251C29.1423 35.1333 28.5145 35.0238 27.8613 34.8771C27.3523 34.7626 26.8438 34.6313 26.361 34.4306C26.1243 34.3321 25.8943 34.2138 25.677 34.0773C25.4505 33.9353 25.2418 33.7678 25.0188 33.6206C24.6013 33.3448 24.1375 33.2028 23.6383 33.1838C23.1605 33.1658 22.6833 33.2493 22.2138 33.3286C21.3393 33.4763 20.3708 33.6418 19.6088 33.0658C18.8888 32.5216 18.6345 31.5441 18.9958 30.7168C19.3698 29.8601 20.315 29.4581 21.161 29.2176C21.9948 28.9806 22.8635 28.8876 23.7278 28.8568C25.5853 28.7906 27.4583 28.9988 29.279 29.3596C29.478 29.3991 29.6763 29.4406 29.8743 29.4846C30.172 29.5506 30.2993 29.0928 30.0005 29.0266V29.0268Z" fill="#236CBA"/>
<path d="M14.9766 32.5708C14.9866 32.9055 15.3499 33.1448 15.5999 33.3065C15.9864 33.556 16.4096 33.7495 16.8344 33.9238C17.6494 34.2583 18.5319 34.461 19.4144 34.4828C19.8244 34.4928 20.3831 34.4823 20.6831 34.153C20.8129 34.0105 20.6014 33.7978 20.4709 33.9408C20.2514 34.1815 19.8249 34.184 19.5259 34.184C19.0681 34.184 18.6104 34.1193 18.1634 34.0245C17.4079 33.8643 16.6744 33.5763 16.0016 33.1978C15.8239 33.0978 15.6451 32.9908 15.4904 32.8573C15.4334 32.8083 15.3724 32.752 15.3304 32.6928C15.3219 32.681 15.3144 32.6688 15.3069 32.6563C15.3039 32.651 15.2824 32.6075 15.2904 32.6275C15.2776 32.5953 15.2766 32.5745 15.2766 32.5705C15.2709 32.378 14.9709 32.377 14.9766 32.5705V32.5708Z" fill="#BB3A70"/>
<path d="M12.9107 36.8302C11.0129 36.9525 9.12169 37.165 7.24368 37.4637C7.11693 37.484 7.04643 37.642 7.07768 37.756C7.11468 37.891 7.24268 37.942 7.36993 37.922C9.20618 37.63 11.0552 37.4252 12.9107 37.3055C13.0387 37.2972 13.1482 37.2022 13.1482 37.068C13.1482 36.9457 13.0394 36.8222 12.9107 36.8305V36.8302Z" fill="#696969"/>
<path d="M7.40681 37.6429C7.24031 37.3796 7.03381 37.1481 6.78581 36.9591C6.53906 36.7714 6.27056 36.6894 5.96156 36.6841C5.42106 36.6749 4.80306 36.7859 4.60081 37.3629C4.41206 37.9019 4.71006 38.4401 5.13606 38.7606C5.58731 39.1001 6.25206 39.3391 6.81231 39.1721C7.11631 39.0816 7.39831 38.8751 7.51731 38.5734C7.63881 38.2656 7.55431 37.9251 7.40706 37.6426C7.26581 37.3714 6.85556 37.6114 6.99681 37.8824C7.07706 38.0364 7.14506 38.2414 7.07331 38.4116C7.01056 38.5601 6.85181 38.6616 6.70406 38.7084C6.30056 38.8356 5.84406 38.6559 5.50306 38.4389C5.21906 38.2581 4.96106 37.9506 5.03006 37.5911C5.10406 37.2051 5.52906 37.1631 5.85381 37.1591C6.10531 37.1561 6.30981 37.1881 6.51381 37.3446C6.70606 37.4921 6.86781 37.6786 6.99681 37.8826C7.15981 38.1404 7.57106 37.9021 7.40706 37.6429H7.40681Z" fill="#696969"/>
<path d="M12.4227 36.6945L12.4107 36.7092L12.6417 36.6482L12.6207 36.6437C12.676 36.699 12.7312 36.7542 12.7867 36.8097L12.786 36.8057V36.932C12.7875 36.924 12.789 36.9102 12.7937 36.9035C12.802 36.892 12.7802 36.9287 12.7995 36.8905C12.8187 36.8522 12.841 36.8005 12.872 36.7675C12.86 36.7802 12.9057 36.7442 12.885 36.7557C12.8555 36.772 13.0057 36.726 12.929 36.746C12.9805 36.7325 13.0317 36.722 13.0855 36.7277C13.144 36.734 13.1905 36.7635 13.2255 36.7977C13.2547 36.8265 13.248 36.8172 13.277 36.865C13.2867 36.8812 13.2962 36.898 13.3047 36.915C13.2882 36.8817 13.3042 36.912 13.3095 36.9305C13.3455 37.0592 13.3837 37.2845 13.23 37.3592C13.0767 37.4337 12.8817 37.321 12.8667 37.1522C12.8555 37.0245 12.7657 36.9147 12.6292 36.9147C12.5095 36.9147 12.3802 37.0237 12.3917 37.1522C12.4327 37.6122 12.8512 37.9525 13.315 37.831C13.754 37.716 13.8825 37.2387 13.7785 36.8417C13.6915 36.51 13.4025 36.252 13.0522 36.252C12.83 36.252 12.6142 36.3242 12.4792 36.505C12.3875 36.628 12.3042 36.7795 12.3285 36.9365C12.3402 37.0125 12.4217 37.0865 12.4945 37.1025L12.5155 37.107C12.5927 37.1237 12.6927 37.1122 12.7465 37.046L12.7585 37.0312C12.8392 36.9317 12.8557 36.7927 12.7585 36.6952C12.675 36.6117 12.504 36.5952 12.4225 36.6952L12.4227 36.6945Z" fill="#696969"/>
<path d="M25.7298 19.6714C26.2055 16.9628 25.0229 14.4916 23.0884 14.1519C21.154 13.8122 19.2002 15.7326 18.7245 18.4413C18.2489 21.1499 19.4315 23.6211 21.3659 23.9608C23.3004 24.3005 25.2542 22.3801 25.7298 19.6714Z" fill="white"/>
<path d="M25.3135 19.7144C25.275 19.7571 25.2365 19.7999 25.198 19.8424C25.1575 19.8456 25.1187 19.8581 25.087 19.8824C24.8042 20.0979 24.5022 20.2826 24.1835 20.4334C24.1162 20.3849 24.03 20.3641 23.9455 20.3909C23.422 20.5559 22.8935 20.7034 22.3605 20.8341C22.298 20.8034 22.2235 20.7946 22.149 20.8074C22.0667 20.8214 21.986 20.8386 21.9057 20.8589C21.6082 20.9181 21.3087 20.9634 21.0077 20.9946C20.6677 20.9869 20.328 21.0049 19.9862 21.0481C19.9852 21.0481 19.9842 21.0481 19.9832 21.0481C19.9832 21.0481 19.9832 21.0481 19.9832 21.0484C19.9577 21.0516 19.9322 21.0549 19.9067 21.0584C19.8297 21.0691 19.7692 21.1261 19.7337 21.1961C19.7157 21.1759 19.6977 21.1556 19.6797 21.1354C19.624 21.0726 19.5545 21.0479 19.4852 21.0499C19.441 21.0169 19.3967 20.9841 19.3525 20.9511C19.1065 20.7684 18.7835 21.1561 18.9692 21.3691C18.9245 21.4806 18.948 21.6211 19.0812 21.7201C19.1632 21.7811 19.2455 21.8419 19.3275 21.9029C19.3377 21.9224 19.3482 21.9419 19.3592 21.9611C19.3557 22.0119 19.368 22.0651 19.401 22.1166C19.4612 22.2106 19.5292 22.2929 19.6065 22.3669C19.7075 22.6099 19.8622 22.8214 20.0595 22.9809C20.1392 23.1469 20.2377 23.3034 20.3565 23.4376C20.5385 23.6436 20.896 23.7756 21.1275 23.6171C21.1162 23.7521 21.1887 23.9014 21.3315 23.9386C21.698 24.0346 22.0515 23.9121 22.3805 23.7399C22.8057 23.6811 23.2185 23.5381 23.593 23.3116C23.7067 23.2426 23.7417 23.1196 23.7202 23.0084C23.756 22.9781 23.7912 22.9471 23.8257 22.9151C23.8767 22.9181 23.9292 22.9056 23.978 22.8716C24.217 22.7049 24.442 22.5206 24.6495 22.3171C24.7027 22.2679 24.754 22.2164 24.8017 22.1616C24.8867 22.0641 24.9097 21.9269 24.8485 21.8171C24.9685 21.6434 25.0857 21.4679 25.2 21.2904C25.266 21.1879 25.2492 21.0759 25.1897 20.9916C25.2215 20.9531 25.254 20.9156 25.2875 20.8786C25.3427 20.8176 25.3667 20.7509 25.3675 20.6871C25.5067 20.4831 25.6395 20.2749 25.7647 20.0621C25.9267 19.7864 25.5362 19.4664 25.3132 19.7136L25.3135 19.7144ZM20.378 21.8931C20.3655 21.8831 20.3535 21.8729 20.3412 21.8629C20.361 21.8634 20.3807 21.8636 20.4007 21.8639C20.3925 21.8734 20.385 21.8831 20.378 21.8931Z" fill="#D2E8FC"/>
<path d="M21.0395 22.3312C20.9302 22.0147 20.7452 21.7572 20.54 21.5002C20.541 21.4869 20.5415 21.4737 20.5407 21.4604C20.5297 21.2122 20.3535 21.0582 20.1157 21.0354C20.1087 21.0347 20.053 21.0284 20.0347 21.0267C20.0182 21.0239 19.9862 21.0187 19.9815 21.0179C19.907 21.0047 19.8332 20.9884 19.76 20.9694C19.6942 20.9522 19.629 20.9327 19.5645 20.9109C19.4895 20.8854 19.4507 20.8707 19.413 20.8539C19.2515 20.7827 19.0885 20.7732 18.941 20.8872C18.8167 20.9832 18.729 21.1764 18.7887 21.3339C18.8627 21.5287 18.9547 21.6919 19.0815 21.8519C19.0677 21.9524 19.0895 22.0399 19.132 22.1372C19.1662 22.2159 19.2345 22.2682 19.289 22.3312C19.3205 22.3677 19.3472 22.4082 19.3815 22.4424C19.48 22.5407 19.6072 22.6102 19.7487 22.6129C19.9045 22.6162 20.0185 22.5467 20.133 22.4517C20.1425 22.4437 20.1515 22.4347 20.1602 22.4249C20.1605 22.4257 20.161 22.4262 20.1615 22.4269C20.1777 22.4564 20.1932 22.4864 20.207 22.5172C20.2092 22.5249 20.2135 22.5374 20.2202 22.5569C20.2927 22.7667 20.515 22.9277 20.743 22.8537C20.9507 22.7864 21.1175 22.5559 21.0397 22.3309L21.0395 22.3312Z" fill="#D2E8FC"/>
<path d="M23.3128 20.7664C23.0195 20.4777 22.6333 20.6304 22.3358 20.8127C22.0765 20.9717 21.7638 21.0047 21.4668 21.0399C21.1225 21.0809 20.776 21.1042 20.4293 21.1094C20.2503 21.1122 20.0673 21.1172 19.8893 21.0949C19.8548 21.0907 19.8215 21.0842 19.7893 21.0764C19.7655 21.0609 19.739 21.0479 19.709 21.0387C19.638 21.0167 19.5603 20.9862 19.4805 20.9609C19.4703 20.9567 19.4603 20.9524 19.45 20.9487C19.391 20.9064 19.3265 20.8422 19.2693 20.7864C19.1798 20.6989 19.0428 20.6714 18.928 20.7219C18.8263 20.7667 18.7198 20.8854 18.736 21.0074C18.7603 21.1892 18.7998 21.3627 18.86 21.5304C18.921 21.9149 19.1475 22.2492 19.3898 22.5442C19.614 22.8174 19.8638 23.0879 20.133 23.3179C20.4135 23.5577 20.7243 23.7369 21.0935 23.7717C21.2655 23.8479 21.4458 23.9049 21.6313 23.9379C21.7893 23.9662 21.9258 23.8877 21.9885 23.7722C22.2605 23.6722 22.5073 23.4844 22.7245 23.2999C23.2063 22.8907 23.552 22.3119 23.577 21.6702C23.5885 21.3737 23.535 20.9849 23.3133 20.7667L23.3128 20.7664Z" fill="#D9EFFF"/>
<path d="M21.8162 24.1995C21.6539 24.1995 21.4919 24.1855 21.3307 24.1572C20.3297 23.9815 19.4879 23.2775 18.9602 22.1752C18.4434 21.0955 18.2894 19.757 18.5267 18.4062C18.7639 17.0555 19.3647 15.8495 20.2182 15.0105C21.0897 14.1537 22.1209 13.7787 23.1219 13.9545C24.1229 14.1302 24.9647 14.8342 25.4924 15.9365C26.0092 17.0162 26.1632 18.3547 25.9262 19.7055C25.6889 21.0562 25.0882 22.2622 24.2344 23.1012C23.5034 23.8197 22.6599 24.1995 21.8162 24.1995ZM22.6389 14.3122C21.8997 14.3122 21.1529 14.6522 20.4987 15.2955C19.7039 16.0767 19.1434 17.206 18.9207 18.4752C18.6977 19.7445 18.8399 20.9972 19.3212 22.0025C19.7914 22.985 20.5297 23.6105 21.3999 23.7632C22.2699 23.916 23.1772 23.5797 23.9542 22.816C24.7489 22.0347 25.3094 20.9055 25.5322 19.6362C25.7552 18.367 25.6129 17.1142 25.1317 16.1092C24.6614 15.1267 23.9232 14.5012 23.0529 14.3485C22.9157 14.3245 22.7774 14.3125 22.6389 14.3125V14.3122Z" fill="#236CBA"/>
<path d="M25.892 19.0413C25.794 18.9301 25.6487 18.9436 25.5497 19.0413C24.8817 19.7011 24.0492 20.0916 23.1985 20.3346C22.307 20.5893 21.357 20.7436 20.4367 20.7066C19.9182 20.6856 19.3945 20.5831 18.9207 20.3343C18.8022 20.2721 18.66 20.2961 18.5897 20.4331C18.5287 20.5518 18.5572 20.7468 18.6765 20.8093C19.6307 21.3101 20.6922 21.3191 21.7182 21.1841C22.6807 21.0573 23.637 20.8431 24.5292 20.4018C25.0245 20.1568 25.484 19.8331 25.892 19.4301C25.9907 19.3326 25.9797 19.1411 25.892 19.0411V19.0413Z" fill="#236CBA"/>
<path d="M21.7633 19.8041C21.7613 19.7366 21.7593 19.6691 21.757 19.6019C21.7553 19.5424 21.7393 19.4874 21.7093 19.4374C21.6875 19.3811 21.6525 19.3336 21.6045 19.2949C21.5595 19.2526 21.5078 19.2244 21.4493 19.2106C21.3955 19.1876 21.339 19.1794 21.2798 19.1856C21.1645 19.1984 21.0473 19.2446 20.9728 19.3381C20.897 19.4331 20.8598 19.5404 20.8635 19.6629C20.8655 19.7304 20.8675 19.7979 20.8698 19.8651C20.8715 19.9246 20.8875 19.9796 20.9175 20.0296C20.9393 20.0859 20.9743 20.1334 21.0223 20.1721C21.0673 20.2144 21.119 20.2426 21.1775 20.2564C21.2313 20.2794 21.2878 20.2876 21.347 20.2814C21.4623 20.2686 21.5795 20.2224 21.654 20.1289C21.7298 20.0339 21.767 19.9266 21.7633 19.8041Z" fill="#236CBA"/>
<path d="M20.6289 11.8872C21.0724 11.3049 21.7584 10.9192 22.4837 10.7904C23.1844 10.6662 23.9272 10.8422 24.5382 11.2364C24.8697 11.4504 25.1699 11.7467 25.3856 12.0767C25.4799 12.2207 25.6679 12.2809 25.8217 12.1909C25.9647 12.1072 26.0307 11.8994 25.9359 11.7549C25.4529 11.0167 24.7047 10.4689 23.8519 10.2377C22.9729 9.99919 22.0309 10.1274 21.2332 10.5604C20.7767 10.8082 20.3919 11.1537 20.0784 11.5652C19.9739 11.7022 20.0569 11.9219 20.1927 12.0012C20.3564 12.0969 20.5242 12.0242 20.6287 11.8869L20.6289 11.8872Z" fill="#236CBA"/>
<path d="M18.5198 26.6892C19.132 26.8942 20.654 26.8547 21.2998 26.8412C23.666 26.792 28.4553 22.3837 31.1533 21.8265C31.45 21.7652 31.5783 22.177 31.857 22.2957C32.049 22.3775 31.9158 25.199 31.417 25.9615C29.5278 28.851 29.97 27.9255 29.5695 28.982C26.539 28.3102 23.1925 28.0737 20.625 28.9527C20.7975 27.4462 19.634 27.17 18.5195 26.6892H18.5198Z" fill="#6890B6"/>
<path d="M18.4578 26.9188C19.0053 27.0981 19.5861 27.1446 20.1593 27.1443C20.6913 27.1443 21.2256 27.1178 21.7536 27.0498C22.4633 26.9586 23.1596 26.7926 23.7996 26.4643C24.1493 26.2851 24.4793 26.0666 24.7816 25.8158C25.2043 25.4651 25.6286 25.1161 26.0623 24.7791C26.7036 24.2808 27.3668 23.8028 28.0523 23.3648C28.7543 22.9163 29.4881 22.4928 30.2698 22.1988C30.4273 22.1396 30.5866 22.0823 30.7513 22.0466C30.7838 22.0396 30.8166 22.0336 30.8496 22.0278C30.8963 22.0198 30.8593 22.0261 30.8496 22.0273C30.8666 22.0251 30.8838 22.0233 30.9008 22.0218C30.9621 22.0163 31.0236 22.0143 31.0848 22.0173C31.0978 22.0181 31.1771 22.0258 31.1431 22.0213C31.1091 22.0168 31.1843 22.0291 31.1966 22.0318C31.2183 22.0366 31.2398 22.0423 31.2611 22.0488C31.2751 22.0531 31.3538 22.0838 31.3238 22.0703C31.2901 22.0553 31.3561 22.0876 31.3663 22.0931C31.3846 22.1033 31.4021 22.1146 31.4196 22.1256C31.4306 22.1326 31.4408 22.1406 31.4513 22.1481C31.4788 22.1673 31.4086 22.1088 31.4458 22.1448C31.4646 22.1628 31.4846 22.1796 31.5028 22.1983C31.5176 22.2136 31.5308 22.2298 31.5451 22.2453C31.5808 22.2846 31.5228 22.2133 31.5426 22.2416C31.5503 22.2528 31.5586 22.2633 31.5658 22.2748C31.5931 22.3178 31.6171 22.3611 31.6403 22.4061C31.6711 22.4656 31.6348 22.3821 31.6581 22.4466C31.6663 22.4696 31.6748 22.4923 31.6823 22.5153C31.7021 22.5763 31.7178 22.6386 31.7306 22.7013C31.7358 22.7278 31.7403 22.7546 31.7451 22.7811C31.7473 22.7946 31.7493 22.8083 31.7513 22.8221C31.7443 22.7723 31.7508 22.8198 31.7521 22.8323C31.7586 22.9023 31.7643 22.9723 31.7663 23.0426C31.7711 23.1933 31.7646 23.3441 31.7506 23.4941C31.6848 24.2093 31.4338 24.9831 31.1428 25.6693C30.7691 26.5513 30.2856 27.3893 29.7296 28.1686C29.5868 28.3686 29.4388 28.5643 29.2851 28.7558C29.2048 28.8558 29.1873 28.9941 29.2851 29.0918C29.3681 29.1748 29.5403 29.1923 29.6211 29.0918C30.2631 28.2918 30.8253 27.4288 31.2781 26.5081C31.6556 25.7406 31.9756 24.9281 32.1398 24.0863C32.2521 23.5108 32.3283 22.8463 32.1028 22.2868C31.9073 21.8011 31.4793 21.5136 30.9506 21.5431C30.6058 21.5623 30.2801 21.6828 29.9633 21.8111C29.5666 21.9718 29.1811 22.1586 28.8056 22.3638C28.0283 22.7886 27.2893 23.2823 26.5738 23.8036C25.9886 24.2301 25.4183 24.6773 24.8588 25.1373C24.7003 25.2676 24.5433 25.3996 24.3848 25.5298C24.3626 25.5481 24.3403 25.5663 24.3181 25.5843C24.2598 25.6321 24.3383 25.5723 24.3136 25.5883C24.2238 25.6463 24.1373 25.7098 24.0478 25.7683C23.5336 26.1033 23.0478 26.3091 22.4513 26.4483C22.0136 26.5506 21.5673 26.6056 21.1193 26.6363C20.5486 26.6756 19.9671 26.6938 19.3971 26.6341C19.1206 26.6051 18.8481 26.5468 18.5838 26.4603C18.2926 26.3651 18.1678 26.8236 18.4576 26.9183L18.4578 26.9188Z" fill="#236CBA"/>
<path d="M19.2413 27.0391C19.5275 27.3286 19.8013 27.6316 20.0138 27.9806C20.2258 28.3289 20.361 28.7069 20.4495 29.1039C20.516 29.4021 20.974 29.2759 20.9075 28.9776C20.8108 28.5436 20.6558 28.1216 20.4238 27.7409C20.1908 27.3584 19.8908 27.0206 19.577 26.7034C19.3618 26.4856 19.026 26.8216 19.241 27.0394L19.2413 27.0391Z" fill="#236CBA"/>
<path d="M21.8857 24.9723C21.8925 25.453 21.6532 25.926 21.299 26.132C20.4182 26.6438 19.4285 25.4945 18.4635 25.6643C17.8705 25.7685 17.406 26.3633 17.13 27.0155C16.854 27.6678 16.72 28.395 16.4897 29.0733C16.2595 29.7515 15.8982 30.4158 15.3452 30.6985C14.7922 30.9813 14.0315 30.718 13.8438 30.0203C14.1245 30.3335 14.6042 30.233 14.8677 29.898C15.1312 29.5628 15.2122 29.0665 15.1987 28.6013C15.1852 28.136 15.0902 27.6803 15.053 27.217C14.905 25.372 15.7805 23.4683 17.1442 22.669C18.5082 21.8698 20.869 22.9498 21.3432 23.531C21.8172 24.1123 21.8787 24.4915 21.8857 24.9723Z" fill="#828282"/>
<path d="M24.246 25.2377C23.7737 25.6732 22.9035 25.546 22.4612 25.1202C21.9915 24.668 21.8585 23.9345 22.0372 23.3077C22.2162 22.6807 22.6692 22.1582 23.206 21.7882C24.4495 20.9307 26.1957 20.8732 27.4932 21.6465C28.1822 22.0572 28.7287 22.6645 29.3575 23.1622C29.9862 23.66 30.7672 24.0625 31.5607 23.9457C32.3542 23.829 33.0612 22.997 32.795 22.2405C33.4575 23.4865 33.069 25.1915 31.9322 26.0277C30.7955 26.864 29.0522 26.727 28.0597 25.7237C27.6267 25.286 27.3227 24.708 26.7982 24.3852C26.1282 23.973 25.1805 24.1335 24.6482 24.7005C24.5632 24.7912 24.317 25.172 24.2457 25.2377H24.246Z" fill="#828282"/>
<path d="M32.7 23.1841C32.8757 24.0871 32.4502 24.9696 31.7255 25.5073C31.354 25.7828 30.9122 25.9778 30.4517 26.0363C30.002 26.0936 29.5675 25.9991 29.1737 25.7778C28.8087 25.5728 28.4967 25.2743 28.229 24.9558C27.9262 24.5958 27.659 24.1903 27.2592 23.9278C26.5437 23.4583 25.594 23.4651 24.898 23.9528C24.8737 23.9608 24.8497 23.9686 24.826 23.9763C24.7162 24.1226 24.589 24.2558 24.4432 24.3713C23.8855 24.8136 23.0347 24.9553 22.4585 24.4611C22.1857 24.2271 22.037 23.8928 21.9702 23.5393C21.9237 23.9948 22.053 24.4536 22.3307 24.8143C22.2435 24.8816 22.2065 25.0233 22.317 25.1153C22.6497 25.3921 23.0672 25.6343 23.5152 25.6033C23.6355 25.5951 23.745 25.5656 23.8457 25.5203C23.924 25.5576 24.0115 25.5271 24.0725 25.4653C24.505 25.0271 24.9097 24.5081 25.502 24.2803C25.7692 24.1776 26.06 24.1516 26.3345 24.2438C26.6175 24.3391 26.8705 24.5088 27.115 24.6766C27.376 24.8558 27.616 25.0563 27.839 25.2811C28.0687 25.5123 28.2867 25.7563 28.5372 25.9658C28.7562 26.1491 29.0035 26.3121 29.2747 26.4058C29.5705 26.5081 29.8762 26.5161 30.186 26.5106C30.3577 26.5076 30.5272 26.5086 30.6987 26.5158C30.8902 26.5241 31.0495 26.5003 31.2187 26.4058C31.559 26.2156 31.8885 26.0031 32.2222 25.8016C32.3302 25.7363 32.3192 25.6236 32.255 25.5486C32.89 24.9301 33.2472 24.0391 33.0732 23.1443C33.0275 22.9088 32.6542 22.9483 32.7005 23.1851L32.7 23.1841Z" fill="#696969"/>
<path d="M24.1497 25.1405C23.7787 25.4705 23.1809 25.4175 22.7749 25.1828C22.3039 24.9105 22.0892 24.3435 22.0997 23.8195C22.1229 22.644 23.2087 21.763 24.2464 21.4308C25.3367 21.0818 26.5657 21.2145 27.5344 21.8325C28.5997 22.512 29.3602 23.641 30.6202 24.0055C31.2324 24.1825 31.8839 24.123 32.3909 23.7168C32.8359 23.3603 33.1167 22.7685 32.9287 22.2035C32.8449 22.2388 32.7612 22.2743 32.6774 22.3095C33.0734 23.0665 33.0714 23.9923 32.7399 24.7728C32.3979 25.578 31.7137 26.168 30.8589 26.364C30.0269 26.5548 29.1002 26.3775 28.4187 25.8568C27.6844 25.2958 27.3354 24.2723 26.3522 24.0598C25.8719 23.956 25.3524 24.0448 24.9319 24.2985C24.7477 24.4098 24.5857 24.5505 24.4574 24.723C24.3564 24.859 24.2707 25.0205 24.1499 25.14C24.0242 25.2648 24.2184 25.4593 24.3444 25.3345C24.4562 25.2238 24.5399 25.0775 24.6309 24.95C24.7374 24.8008 24.8572 24.675 25.0117 24.573C25.3839 24.3273 25.8589 24.2293 26.2959 24.3285C26.7812 24.4388 27.1162 24.7953 27.4169 25.1695C27.7212 25.548 28.0114 25.923 28.4214 26.1943C29.1589 26.6823 30.1099 26.8278 30.9659 26.621C31.8304 26.4123 32.5459 25.8213 32.9282 25.02C33.3542 24.1273 33.3769 23.0538 32.9147 22.1705C32.8432 22.0338 32.6139 22.1278 32.6634 22.2765C32.8372 22.7985 32.5182 23.3255 32.0799 23.603C31.5467 23.941 30.8837 23.8555 30.3314 23.607C29.1432 23.072 28.4044 21.8933 27.2217 21.347C26.1437 20.849 24.8672 20.8423 23.7792 21.3145C22.7392 21.7658 21.7612 22.7585 21.8274 23.9675C21.8604 24.5683 22.1544 25.1793 22.7089 25.459C23.2222 25.7178 23.8972 25.732 24.3444 25.3345C24.4769 25.2168 24.2819 25.0228 24.1499 25.14L24.1497 25.1405Z" fill="#504F58"/>
<path d="M21.9789 24.9303C21.9189 24.5266 21.7669 24.0858 21.5064 23.7688C21.4889 23.7476 21.4697 23.7328 21.4497 23.7228C21.3644 23.5033 21.2459 23.2998 21.0722 23.1526C20.9949 23.0871 20.9027 23.0963 20.8359 23.1408C20.8404 23.1448 20.8449 23.1488 20.8492 23.1533C21.0507 23.3633 21.1677 23.6378 21.2699 23.9066C21.3694 24.1683 21.4437 24.4578 21.3667 24.7356C21.3027 24.9668 21.1252 25.1556 20.8904 25.1901C20.5359 25.2646 20.1809 25.0858 19.8417 25.0046C19.4342 24.9071 19.0104 24.9301 18.6079 25.0401C18.2189 25.1463 17.8264 25.3246 17.5017 25.5653C17.1692 25.8121 16.9622 26.1408 16.8107 26.5213C16.6489 26.9283 16.5304 27.3566 16.4307 27.7826C16.3279 28.2211 16.2632 28.6698 16.1267 29.1001C16.0024 29.4908 15.8037 29.8856 15.4727 30.1416C15.1557 30.3868 14.7019 30.4786 14.3429 30.2718C14.1334 30.1513 13.9442 30.4751 14.1537 30.5956C14.5147 30.8033 14.9529 30.8056 15.3334 30.6488C15.7117 30.4931 16.0057 30.1918 16.2102 29.8423C16.4372 29.4541 16.5532 29.0156 16.6449 28.5791C16.7207 28.2196 16.7954 27.8613 16.8889 27.5068C16.9482 27.4958 16.9989 27.4543 17.0139 27.3746C17.1892 26.4373 18.0699 25.4436 19.1077 25.7736C19.5592 25.9171 19.9497 26.2226 20.4204 26.3131C20.6627 26.3596 20.9244 26.3588 21.1504 26.2488C21.3334 26.1598 21.4602 26.0036 21.5419 25.8233C21.8452 25.6276 22.0337 25.2971 21.9789 24.9298V24.9303Z" fill="#696969"/>
<path d="M21.749 24.9725C21.749 25.3715 21.5797 25.8177 21.216 26.0215C20.9137 26.1907 20.571 26.1247 20.2602 26.016C19.6142 25.7897 18.9222 25.3172 18.2155 25.5917C17.4097 25.9047 17.0207 26.8122 16.7832 27.5785C16.5135 28.4485 16.3727 29.4445 15.7725 30.167C15.522 30.4685 15.1812 30.711 14.7722 30.6677C14.3865 30.627 14.082 30.3515 13.977 29.9835L13.7472 30.1172C14.1102 30.5 14.6907 30.3535 14.9872 29.967C15.3507 29.493 15.37 28.8345 15.315 28.2655C15.2545 27.637 15.1412 27.0265 15.1915 26.3922C15.235 25.8452 15.3665 25.3035 15.5745 24.7957C15.772 24.3137 16.0467 23.8552 16.3955 23.4672C16.7065 23.121 17.0937 22.7885 17.5417 22.6395C18.4067 22.3515 19.4182 22.6052 20.2237 22.9655C20.5635 23.1175 20.9335 23.2992 21.1955 23.571C21.3777 23.76 21.5355 24.0065 21.631 24.2512C21.7215 24.4832 21.7447 24.7252 21.749 24.9722C21.752 25.149 22.027 25.1495 22.024 24.9722C22.0202 24.7502 22.0037 24.526 21.9415 24.3117C21.8672 24.0562 21.7347 23.8217 21.5775 23.6087C21.3657 23.3222 21.1055 23.1212 20.7965 22.946C20.0122 22.5012 19.0577 22.2007 18.1495 22.2517C17.6862 22.2777 17.2592 22.4135 16.8767 22.677C16.4497 22.971 16.093 23.355 15.8042 23.7837C15.1932 24.6915 14.8812 25.8105 14.9012 26.902C14.9145 27.634 15.1475 28.368 15.0362 29.1007C14.9915 29.3965 14.8895 29.7282 14.6502 29.926C14.4387 30.1007 14.1395 30.131 13.942 29.9227C13.847 29.8227 13.675 29.926 13.7122 30.0565C13.9182 30.7787 14.7365 31.162 15.4157 30.817C16.2395 30.3987 16.5665 29.3612 16.7975 28.5382C16.9415 28.0255 17.0637 27.499 17.282 27.0112C17.456 26.6222 17.7022 26.2217 18.0627 25.9795C18.7712 25.5037 19.5305 26.0582 20.2182 26.2915C20.6072 26.4232 21.0367 26.4617 21.3987 26.2327C21.8172 25.9682 22.0245 25.4525 22.0245 24.972C22.0245 24.795 21.7495 24.7947 21.7495 24.972L21.749 24.9725Z" fill="#504F58"/>
<path d="M24.9998 43.3745C23.5645 43.3745 22.1352 43.2085 20.7512 42.8808C19.406 42.5623 18.095 42.0895 16.8548 41.4753L17.0768 41.0272C18.283 41.6247 19.558 42.0845 20.8665 42.3943C22.2125 42.713 23.6032 42.8745 24.9998 42.8745C27.413 42.8745 29.754 42.402 31.9575 41.47C34.086 40.5697 35.9977 39.2807 37.6392 37.6392C39.281 35.9975 40.5698 34.086 41.47 31.9575C42.402 29.754 42.8745 27.413 42.8745 24.9998C42.8745 22.5865 42.402 20.2455 41.47 18.042C40.5698 15.9135 39.2807 14.0018 37.6392 12.3603C35.9975 10.7185 34.086 9.42975 31.9575 8.5295C29.754 7.5975 27.413 7.125 24.9998 7.125C22.5865 7.125 20.2455 7.5975 18.042 8.5295C15.9135 9.42975 14.0018 10.7188 12.3603 12.3603C10.7185 14.002 9.42975 15.9135 8.5295 18.042C7.5975 20.2455 7.125 22.5865 7.125 24.9998C7.125 27.5355 7.645 29.9858 8.67075 32.282L8.21425 32.486C7.15975 30.125 6.625 27.6063 6.625 24.9998C6.625 22.3932 7.11075 20.1127 8.069 17.8472C8.9945 15.6592 10.3192 13.694 12.0067 12.0068C13.6942 10.3195 15.6593 8.9945 17.8473 8.069C20.1128 7.11075 22.5192 6.625 24.9998 6.625C27.4803 6.625 29.8867 7.11075 32.1522 8.069C34.3402 8.9945 36.3055 10.3193 37.9927 12.0068C39.68 13.6943 41.005 15.6592 41.9305 17.8472C42.8887 20.1127 43.3745 22.5192 43.3745 24.9998C43.3745 27.4803 42.8887 29.8867 41.9305 32.1522C41.005 34.3402 39.6802 36.3055 37.9927 37.9927C36.3052 39.68 34.3402 41.005 32.1522 41.9305C29.8867 42.8887 27.4803 43.3745 24.9998 43.3745Z" fill="#236CBA"/>
</g>
<defs>
<clipPath id="clip0_8043_11983">
<rect width="50" height="50" fill="white"/>
</clipPath>
</defs>
</svg>
