<svg width="50" height="50" viewBox="0 0 50 50" fill="none" xmlns="http://www.w3.org/2000/svg">
<g clip-path="url(#clip0_8043_4268)">
<path d="M24.9998 43.3745C22.5192 43.3745 20.1128 42.8887 17.8473 41.9305C15.6593 41.005 13.694 39.6802 12.0067 37.9927C10.3195 36.3052 8.9945 34.3402 8.069 32.1522C7.11075 29.8867 6.625 27.4803 6.625 24.9998C6.625 22.5192 7.11075 20.1127 8.069 17.8472C8.9945 15.6592 10.3192 13.694 12.0067 12.0068C13.6942 10.3195 15.6593 8.9945 17.8473 8.069C20.1128 7.11075 22.5192 6.625 24.9998 6.625C27.4803 6.625 29.8867 7.11075 32.1522 8.069C34.3402 8.9945 36.3055 10.3193 37.9927 12.0068C39.68 13.6943 41.005 15.6592 41.9305 17.8472C42.8887 20.1127 43.3745 22.5192 43.3745 24.9998C43.3745 27.4803 42.8887 29.8867 41.9305 32.1522C41.005 34.3402 39.6802 36.3055 37.9927 37.9927C36.3052 39.68 34.3402 41.005 32.1522 41.9305C29.8867 42.8887 27.4803 43.3745 24.9998 43.3745ZM24.9998 7.1245C22.5865 7.1245 20.2455 7.597 18.042 8.529C15.9135 9.42925 14.0018 10.7183 12.3603 12.3598C10.7185 14.0015 9.42975 15.913 8.5295 18.0415C7.5975 20.245 7.125 22.586 7.125 24.9992C7.125 27.4125 7.5975 29.7535 8.5295 31.957C9.42975 34.0855 10.7188 35.9972 12.3603 37.6387C14.002 39.2805 15.9135 40.5693 18.042 41.4695C20.2455 42.4015 22.5865 42.874 24.9998 42.874C27.413 42.874 29.754 42.4015 31.9575 41.4695C34.086 40.5693 35.9977 39.2802 37.6392 37.6387C39.281 35.997 40.5698 34.0855 41.47 31.957C42.402 29.7535 42.8745 27.4125 42.8745 24.9992C42.8745 22.586 42.402 20.245 41.47 18.0415C40.5698 15.913 39.2807 14.0013 37.6392 12.3598C35.9975 10.718 34.086 9.42925 31.9575 8.529C29.754 7.597 27.413 7.1245 24.9998 7.1245Z" fill="#236CBA"/>
<path d="M24.0408 43.0574C28.9148 43.4152 33.9563 41.6714 37.3923 38.1962C37.7403 37.8442 38.0801 37.4622 38.2421 36.9947C38.4468 36.4037 38.3421 35.7552 38.2213 35.1414C37.7316 32.6507 37.0156 30.2109 36.3006 27.7752C36.0046 26.7669 35.7051 25.7499 35.2051 24.8257C34.3376 23.2227 32.7203 21.9034 30.8976 21.8969C30.7196 21.8964 30.5346 21.9099 30.3798 21.9977C30.2188 22.0892 30.1068 22.2517 29.9443 22.3404C29.7231 22.4609 29.4528 22.4234 29.2043 22.3812C28.6958 22.2952 28.1838 22.2029 27.7068 22.0069C26.4708 21.4989 25.6148 20.3629 24.4981 19.6292C22.3653 18.2277 19.5948 18.4469 17.0573 18.7184C17.2491 19.0224 17.5611 19.2482 17.9096 19.3359C18.4226 18.9799 19.1291 19.1152 19.6983 19.3712C22.1113 20.4559 23.3176 23.3327 23.1841 25.9749C23.0686 28.2622 21.8743 30.7062 19.6928 31.4034C18.6973 31.7217 17.6241 31.6417 16.5821 31.5587C15.6991 31.4882 14.8071 31.4159 13.9633 31.1467C13.6548 31.3752 13.5616 31.7854 13.3988 32.1329C13.2361 32.4804 12.8743 32.8224 12.5141 32.6902C12.0343 32.5139 12.1571 31.8232 12.1386 31.3124C12.0941 30.0789 11.5043 29.0549 10.3598 29.5174C9.21534 29.9799 7.63934 31.5569 7.72609 32.7882C7.81459 34.0474 8.56859 35.2144 9.62209 35.8909C10.0743 36.1812 10.5528 36.0867 10.9903 36.4024C11.4248 36.7162 11.8281 37.3962 12.2186 37.7602C14.2796 39.6822 16.7416 41.1809 19.4081 42.0974C20.9036 42.6114 22.4633 42.9412 24.0408 43.0569V43.0574Z" fill="#D2E8FC"/>
<path d="M30.6719 35.0418C30.6602 34.711 30.6102 34.3765 30.5259 34.0563C30.1894 32.7775 29.3317 31.707 28.3364 30.8678C28.1409 30.7028 27.9394 30.539 27.7319 30.3805C27.6669 30.4088 27.5952 30.4238 27.5239 30.424C27.4804 30.424 27.3902 30.4258 27.3597 30.4263C27.3949 30.4063 27.4289 30.384 27.4614 30.3593C27.7487 30.141 27.5607 30.5305 27.7804 30.2595C28.2204 29.717 28.0149 27.4295 27.5459 27.0923C27.3022 26.917 27.1257 27.2053 27.3259 26.9603C27.4269 26.8368 27.4684 27.1295 27.2749 27.0955C26.1137 26.892 24.9302 27.1335 23.7702 26.94C23.6437 26.919 23.5144 26.9733 23.4779 27.106C23.4534 27.1953 23.4912 27.3108 23.5699 27.3668C23.2142 28.3565 23.6372 29.4488 24.4617 30.0603C24.3377 30.0025 24.2164 29.9408 24.0987 29.8758C23.7717 29.6953 23.4692 29.4588 23.2657 29.1618C22.4729 29.3888 21.7204 29.8115 21.0217 30.2218C20.2524 30.6735 19.5047 31.1625 18.7364 31.6163C18.5539 31.5893 18.3702 31.5693 18.1892 31.5505C17.4334 31.4728 16.6374 31.4983 15.9129 31.7468C14.5099 32.2275 13.5437 33.429 12.7159 34.5998C12.2682 35.233 11.8424 36.008 11.8904 36.81C11.9189 37.2843 12.1087 37.675 12.4094 38.035C12.6332 38.303 12.8959 38.5428 13.1489 38.7825C14.1654 39.746 15.2939 40.636 16.5902 41.189C16.9249 41.3318 17.2644 41.4575 17.6157 41.554C17.6439 41.5618 17.6729 41.5668 17.7022 41.5693C18.0469 41.7128 18.4012 41.8343 18.7602 41.942C19.5417 42.1765 20.3272 42.4008 21.1127 42.6213C21.8349 42.824 22.5522 43.1783 23.2639 42.943C23.9369 43.0348 24.5929 43.027 25.2727 43.0163C25.6232 43.0108 26.0529 43.0508 26.4017 43.0163C26.6867 42.988 27.0589 42.9935 27.3254 42.8843C27.6249 42.7615 29.9662 42.5118 30.1114 42.2098C30.2699 41.8798 28.0974 41.2213 27.8899 40.911C27.7239 40.663 27.4859 40.478 27.2217 40.3433C27.0814 40.2718 26.9347 40.2125 26.7889 40.1543C26.7274 40.1298 26.6659 40.105 26.6047 40.08C26.6034 40.0795 26.6024 40.079 26.6009 40.0783C26.5582 40.0593 26.5152 40.041 26.4727 40.0218C26.2047 39.9015 25.9424 39.7683 25.6899 39.6178C25.6629 39.6018 25.6362 39.5855 25.6094 39.569C25.5419 39.4518 25.4444 39.3465 25.3209 39.2608C25.2269 39.1955 25.1342 39.1285 25.0424 39.06C24.8637 38.915 24.6949 38.7588 24.5457 38.583C24.4859 38.4973 24.4322 38.4083 24.3852 38.3148C24.2977 38.056 24.2732 37.7833 24.1989 37.52C24.1472 37.3363 24.0742 37.147 23.9664 36.9875C24.0609 36.773 24.1004 36.5368 24.0662 36.3043C24.4584 35.8635 24.8874 35.4473 25.3434 35.082C25.5494 35.026 25.7589 34.9803 25.9657 34.93C26.2634 34.858 26.5614 34.777 26.8622 34.7125C27.1859 34.7893 27.4927 34.929 27.7994 35.0545L28.7822 35.456C28.9497 35.5245 29.1174 35.593 29.2849 35.6613C29.4344 35.7223 29.5869 35.8035 29.7442 35.842C29.9519 35.893 30.1704 35.8825 30.3557 35.767C30.6147 35.6053 30.6814 35.3253 30.6714 35.0408L30.6719 35.0418ZM25.6827 27.6863C25.6722 27.6783 25.6612 27.6705 25.6502 27.663C25.6847 27.6603 25.7189 27.6573 25.7532 27.6543C25.7292 27.6638 25.7057 27.6745 25.6827 27.6863ZM25.0649 27.775C25.0564 27.769 25.0484 27.763 25.0394 27.7573C24.9934 27.7275 24.9452 27.7043 24.8957 27.687C24.9782 27.6883 25.0607 27.6888 25.1432 27.6875C25.1142 27.713 25.0879 27.7425 25.0647 27.775H25.0649ZM26.8062 27.5983C26.7934 27.5645 26.7779 27.5323 26.7599 27.5015C26.7857 27.504 26.8117 27.5068 26.8374 27.5095C26.8259 27.5388 26.8154 27.5683 26.8062 27.598V27.5983ZM25.7772 30.0753C25.9264 30.1325 26.0967 30.15 26.2577 30.1553C26.2784 30.156 26.2977 30.1538 26.3157 30.1498C26.3272 30.1543 26.3387 30.1585 26.3502 30.1625C26.1444 30.1663 25.9364 30.147 25.7329 30.105C25.7484 30.0965 25.7634 30.0868 25.7769 30.075L25.7772 30.0753Z" fill="#D9EFFF"/>
<path d="M26.1981 21.5794C26.0764 21.3944 26.2246 21.6791 26.0156 21.5989C25.7696 21.5046 25.5001 21.5516 25.2656 21.6544C24.3549 22.0536 24.0106 23.1086 23.9489 24.0236C23.9286 24.3251 23.9324 24.6276 23.9384 24.9296C23.9434 25.1669 23.9536 25.4276 24.0851 25.6344C24.2494 25.8926 24.5246 25.9576 24.8126 25.9674C25.1279 25.9781 25.4431 25.9851 25.7586 25.9939C25.8326 25.9959 25.8884 25.9696 25.9266 25.9286C26.0531 25.9321 26.1799 25.9286 26.3054 25.9144C26.5366 25.8876 26.5996 26.0226 26.7846 25.8756C26.9866 25.7149 27.3191 26.1009 27.4004 25.8609C28.0161 24.0426 26.3194 21.7636 26.1981 21.5794ZM24.5174 23.4354C24.5099 23.4849 24.5036 23.5341 24.4984 23.5834C24.4911 23.5879 24.4841 23.5924 24.4774 23.5974C24.4926 23.5111 24.5106 23.4256 24.5326 23.3414C24.5266 23.3751 24.5216 23.4069 24.5174 23.4354ZM24.5061 25.4101C24.4571 25.3554 24.4369 25.2741 24.4271 25.1949C24.4486 25.2676 24.4741 25.3406 24.5061 25.4101Z" fill="#D9EFFF"/>
<path d="M23.6598 23.2455C23.5776 22.918 23.0711 23.0568 23.1536 23.385C23.3328 24.0993 23.3756 24.8485 23.2653 25.5775C23.2441 25.7175 23.3006 25.8598 23.4486 25.9005C23.5726 25.9345 23.7501 25.8583 23.7716 25.7173C23.8966 24.891 23.8636 24.057 23.6598 23.2455Z" fill="#BCD5EC"/>
<path d="M38.3445 36.1512C38.2475 35.5162 38.1108 34.8882 37.9738 34.2604C37.3323 31.3192 36.6822 28.3519 35.4347 25.6119C34.986 24.6264 34.4477 23.6567 33.65 22.9247C32.8522 22.1927 31.7552 21.7234 30.6855 21.8907C30.4297 21.9307 29.7505 22.1354 29.5685 22.3194C29.4878 22.4012 29.5035 22.5172 29.5752 22.6287C29.5697 22.6279 29.5643 22.6277 29.5585 22.6277C29.5468 22.5487 29.4903 22.4709 29.4143 22.4437C29.1535 22.3504 28.876 22.3447 28.6025 22.3314C28.3205 22.3177 28.062 22.2609 27.802 22.1492C27.373 21.9647 26.9467 21.7389 26.622 21.3989C26.676 21.3947 26.7303 21.3902 26.7843 21.3852C26.5925 21.0299 26.2577 20.7797 25.9502 20.5182C25.6775 20.2864 25.419 20.0372 25.1333 19.8217C24.4115 19.2769 23.5372 18.9629 22.6495 18.7917C21.7617 18.6204 20.8542 18.5852 19.9507 18.5502C19.1685 18.5199 18.3645 18.4927 17.625 18.7494C17.8307 18.7872 18.0365 18.8249 18.2423 18.8627C18.417 18.8947 18.5918 18.9272 18.7648 18.9677C18.776 19.1059 18.8912 19.1984 19.0262 19.2079C19.771 19.2609 20.4043 19.7342 20.9273 20.2309C21.4808 20.7567 22.011 21.3402 22.395 22.0034C22.61 22.3747 22.766 22.7692 22.8438 23.1919C22.8695 23.3314 23.0385 23.4104 23.1667 23.3752C23.292 23.3407 23.3557 23.2314 23.3555 23.1129C23.4867 23.0964 23.5763 22.9839 23.5845 22.8527C23.5925 22.7269 23.5927 22.6009 23.5867 22.4754C23.606 22.4532 23.6258 22.4312 23.6458 22.4097C23.6828 22.4157 23.72 22.4147 23.754 22.4052C23.8862 22.3689 23.9465 22.2527 23.942 22.1284C24.0095 22.0722 24.0795 22.0192 24.1515 21.9687C24.347 21.9194 24.534 21.8429 24.7242 21.7652C24.8737 21.7039 25.0323 21.6369 25.194 21.6099C25.2375 21.6227 25.2837 21.6232 25.3275 21.6064C25.335 21.6034 25.3425 21.6007 25.35 21.5977C25.401 21.5987 25.4523 21.6052 25.5035 21.6187C25.631 21.6519 25.7425 21.5812 25.799 21.4819C25.8005 21.4819 25.8017 21.4814 25.8032 21.4814C25.8612 21.4754 25.909 21.4567 25.9472 21.4299C25.978 21.4309 26.0093 21.4307 26.04 21.4299C26.032 21.4674 26.0327 21.5077 26.045 21.5484C26.0717 21.6372 26.1555 21.6962 26.2215 21.7552C26.2925 21.8184 26.3637 21.8814 26.4357 21.9434C26.718 22.1872 27.0127 22.4229 27.3377 22.6079C27.7095 22.8194 28.1255 22.9584 28.5442 22.9787C28.8715 23.0407 29.208 23.0589 29.5447 23.0279C29.6522 23.0179 29.7447 22.9432 29.7447 22.8279C29.7447 22.8207 29.7443 22.8134 29.7433 22.8059C29.8113 22.8584 29.889 22.9027 29.9703 22.9319C30.0898 22.9749 30.3075 22.8934 30.434 22.8844C30.6103 22.8722 30.7872 22.8757 30.963 22.8939C31.658 22.9659 32.332 23.2722 32.8255 23.7699C33.3085 24.2569 33.611 24.8904 33.8877 25.5179C34.91 27.8369 35.7007 30.2582 36.2445 32.7334C36.5682 34.2079 36.804 35.7459 36.4748 37.2192C36.3563 37.7497 36.1582 38.2762 35.8007 38.6859C35.7087 38.7912 35.608 38.8869 35.5007 38.9749C35.2957 39.2959 35.0077 39.5624 34.6882 39.7669C33.8612 40.2962 32.8647 40.4452 31.9227 40.6539C30.868 40.8877 29.8002 40.8442 28.7572 40.5767C27.8712 40.3494 27.0028 40.0477 26.239 39.5324C25.544 39.0637 24.9457 38.4554 24.3477 37.8637C24.7625 38.9424 25.845 39.6249 26.886 40.1494C27.7315 40.5754 28.6 40.9559 29.486 41.2892C30.1553 41.5409 30.8645 41.7689 31.573 41.6729C32.095 41.6022 32.5763 41.3604 33.0425 41.1154C34.116 40.5507 35.1735 39.9457 36.1343 39.2052C36.795 38.6959 37.4075 38.1244 37.9613 37.5004C38.1138 37.3284 38.2655 37.1464 38.3365 36.9277C38.4173 36.6789 38.3853 36.4092 38.3458 36.1507L38.3445 36.1512ZM23.9423 21.0179C23.9553 21.0194 23.9683 21.0212 23.9813 21.0227C23.968 21.0317 23.9555 21.0414 23.9443 21.0524C23.9438 21.0409 23.9428 21.0294 23.9423 21.0179ZM23.9705 21.4607C23.969 21.4522 23.9673 21.4437 23.9658 21.4352C23.972 21.4409 23.9787 21.4462 23.9855 21.4512C23.9805 21.4544 23.9755 21.4574 23.9705 21.4607Z" fill="#BCD5EC"/>
<path d="M26.8103 21.1164C25.3383 19.5546 23.3506 18.4059 21.1591 18.3946C20.5243 18.3914 19.8861 18.4874 19.2838 18.6889C19.2756 18.6916 19.2673 18.6951 19.2593 18.6986C18.9778 18.6496 18.6986 18.5864 18.4226 18.5094C18.0966 18.4184 17.9576 18.9249 18.2831 19.0156C18.6053 19.1054 18.9328 19.1766 19.2631 19.2299C19.5296 19.4849 19.8886 19.5829 20.2601 19.6349C20.7643 19.7059 21.2661 19.7816 21.7646 19.8884C22.7668 20.1031 23.7498 20.4081 24.6976 20.7984C25.2341 21.0191 25.7576 21.2719 26.2681 21.5476C26.3701 21.6029 26.4653 21.5899 26.5356 21.5416C26.6286 21.5766 26.7306 21.5676 26.8108 21.4876C26.9138 21.3846 26.9083 21.2199 26.8108 21.1164H26.8103Z" fill="#9CC1D8"/>
<path d="M33.739 23.0607C33.7842 23.1082 33.8282 23.1572 33.871 23.2072C33.8955 23.236 33.9195 23.265 33.9432 23.2945C33.9555 23.3095 33.9675 23.3247 33.9795 23.34C34.0197 23.3912 33.953 23.3045 33.9927 23.3572C34.0912 23.4877 34.184 23.6222 34.272 23.76C34.4785 24.0822 34.6617 24.4192 34.8325 24.7617C35.2517 25.603 35.5967 26.4802 35.9095 27.366C36.6492 29.4602 37.2165 31.622 37.6382 33.8022C37.853 34.9125 38.0292 36.032 38.1252 37.1592C38.1355 37.2802 38.2212 37.3842 38.3502 37.3842C38.464 37.3842 38.5857 37.281 38.5752 37.1592C38.392 35.0085 37.9567 32.8742 37.4157 30.7872C36.8882 28.752 36.2577 26.7122 35.3545 24.809C35.009 24.0812 34.6175 23.3312 34.0575 22.7427C33.8575 22.5325 33.5395 22.851 33.7392 23.061L33.739 23.0607Z" fill="#236CBA"/>
<path d="M33.6381 35.9821C33.1416 36.3636 32.4959 36.3431 31.8989 36.3066C31.5881 36.2876 31.2876 36.1996 30.9909 36.1098C30.6631 36.0108 30.3419 35.8921 30.0224 35.7693C29.6781 35.6371 29.3336 35.5066 28.9869 35.3813C28.6139 35.2463 28.2451 35.0973 27.8644 34.9853C27.1504 34.7753 26.3519 34.5858 25.6071 34.7216C25.1174 34.8108 24.6791 35.1048 24.3999 35.5146C24.1941 35.8166 24.0699 36.1948 24.0044 36.5518C23.9341 36.9346 23.9376 37.3278 24.0451 37.7038C24.2001 38.2461 24.5919 38.6841 24.9844 39.0733C25.3501 39.4361 25.7521 39.7848 26.1989 40.0448C26.6454 40.3048 27.1156 40.5263 27.5866 40.7378C28.1291 40.9816 28.6811 41.2123 29.2476 41.3948C29.3636 41.4321 29.4804 41.4668 29.5981 41.4981C29.8629 41.5678 29.9759 41.1581 29.7111 41.0883C29.1899 40.9508 28.6831 40.7511 28.1876 40.5401C27.6879 40.3273 27.1936 40.0983 26.7134 39.8438C26.3216 39.6361 25.9676 39.3923 25.6344 39.0991C25.2469 38.7583 24.8464 38.3761 24.5899 37.9231C24.2646 37.3483 24.3464 36.5536 24.6371 35.9546C24.8414 35.5336 25.2111 35.2433 25.6594 35.1441C25.9609 35.0773 26.2894 35.0963 26.5929 35.1368C26.9679 35.1871 27.3424 35.2786 27.7059 35.3823C28.0724 35.4868 28.4271 35.6276 28.7846 35.7588C29.1219 35.8826 29.4589 36.0058 29.7941 36.1351C30.4541 36.3896 31.1529 36.6806 31.8654 36.7301C32.5401 36.7768 33.2926 36.7803 33.8531 36.3498C33.9439 36.2801 33.9924 36.1671 33.9294 36.0591C33.8771 35.9696 33.7301 35.9126 33.6386 35.9828L33.6381 35.9821Z" fill="#236CBA"/>
<path d="M12.0777 30.7939C11.9367 30.7114 11.7079 30.7509 11.6329 30.9104C11.3934 31.4204 11.0782 31.9001 10.5892 32.1729C10.0507 32.4734 9.40341 32.4636 8.80291 32.4661C8.77466 32.4661 8.74866 32.4696 8.72416 32.4751C8.60516 32.4251 8.46016 32.4381 8.36691 32.5401C8.21966 32.7009 8.07241 32.8616 7.92516 33.0224C7.81041 33.1479 7.79191 33.3596 7.92516 33.4819C8.05016 33.5966 8.26216 33.6159 8.38466 33.4819C8.49866 33.3574 8.61266 33.2329 8.72666 33.1084C8.75016 33.1134 8.77566 33.1161 8.80266 33.1159C9.52016 33.1129 10.2742 33.0926 10.9169 32.7339C11.5034 32.4066 11.9134 31.8354 12.1939 31.2381C12.2684 31.0794 12.2384 30.8876 12.0774 30.7934L12.0777 30.7939Z" fill="#BCD5EC"/>
<path d="M12.7126 33.194C12.8296 33.0633 12.8416 32.8633 12.7126 32.7345C12.5936 32.6155 12.3704 32.6033 12.2531 32.7345C11.4234 33.6623 10.5391 34.5403 9.60564 35.3635C9.43014 35.5183 9.51339 35.8625 9.74914 35.9068C10.0921 35.971 10.4319 36.0655 10.7536 36.2015C10.8244 36.2313 10.8946 36.263 10.9631 36.2975C10.9664 36.2993 11.0009 36.3188 11.0171 36.3275C11.0181 36.33 11.0194 36.3328 11.0206 36.3358C11.0941 36.513 11.1564 36.6958 11.2241 36.8753C11.2861 37.0395 11.4436 37.1518 11.6239 37.1023C11.7814 37.059 11.9569 37.3795 11.8944 37.2145C11.8186 37.0135 11.7034 36.2983 11.6219 36.0995C11.5281 35.871 11.3646 35.7665 11.1469 35.6688C10.9374 35.5748 10.7239 35.4935 10.5061 35.4258C11.2781 34.7188 12.0149 33.9743 12.7129 33.194H12.7126Z" fill="#BCD5EC"/>
<path d="M30.7114 27.3107C30.6274 27.2614 30.4804 27.2824 30.4376 27.3824C30.1854 27.9737 29.9289 28.5699 29.5704 29.1062C29.2114 29.6432 28.7391 30.0759 28.1534 30.3539C27.0554 30.8752 25.7319 30.7969 24.6626 30.2432C24.3701 30.0917 24.0941 29.9079 23.8469 29.6902C23.5621 29.4394 23.3291 29.1472 23.1041 28.8434C23.1049 28.8377 23.1051 28.8319 23.1056 28.8259C23.1441 28.8007 23.1779 28.7674 23.2031 28.7267C23.2881 28.5894 23.3316 28.4107 23.3831 28.2584C23.4941 27.9304 23.5856 27.5962 23.6596 27.2577C23.7316 26.9284 23.2256 26.7877 23.1534 27.1182C23.1011 27.3567 23.0406 27.5929 22.9704 27.8267C22.9364 27.9397 22.9001 28.0522 22.8616 28.1637C22.8411 28.2232 22.8201 28.2824 22.7984 28.3417C22.7969 28.3454 22.7956 28.3492 22.7941 28.3532C22.7586 28.3659 22.7261 28.3854 22.7001 28.4117C22.6689 28.4429 22.6481 28.4787 22.6366 28.5162C22.5586 28.5569 22.4969 28.6297 22.4661 28.7189C22.1844 29.5434 21.5996 30.2887 20.8889 30.7949C20.0819 31.3699 19.1104 31.6842 18.1251 31.7507C17.5259 31.7912 16.9164 31.7592 16.3331 31.6104C15.9276 31.5069 15.4096 31.9329 15.8154 32.0364C16.9771 32.3327 18.3611 32.3382 19.6091 32.0007C20.6511 31.7189 21.5984 31.1984 22.2426 30.4089C22.5246 30.0632 22.7589 29.6887 22.9386 29.2847C23.0966 29.4904 23.2619 29.6897 23.4504 29.8689C23.6854 30.0922 23.9471 30.2904 24.2251 30.4572C24.7856 30.7932 25.4149 31.0009 26.0631 31.0767C27.4344 31.2372 28.8406 30.7097 29.6946 29.6122C30.1699 29.0014 30.4809 28.2912 30.7826 27.5839C30.8249 27.4847 30.8124 27.3697 30.7109 27.3102L30.7114 27.3107Z" fill="#BCD5EC"/>
<path d="M30.6626 26.0149C30.6123 25.8324 30.4363 25.7574 30.2628 25.7879C28.5121 26.0959 26.7268 26.2006 24.9518 26.1079C24.4421 26.0811 23.9336 26.0376 23.4266 25.9789C23.2518 25.9586 23.1016 26.1429 23.1016 26.3039C23.1016 26.4964 23.2513 26.6086 23.4266 26.6289C25.2296 26.8384 25.4321 27.2439 27.2358 27.0416C27.7638 26.9824 29.9123 26.5066 30.4356 26.4146C30.6086 26.3841 30.7058 26.1726 30.6626 26.0149Z" fill="white"/>
<path d="M24.0771 26.1003C23.9824 26.2388 23.9429 26.4138 23.9686 26.5796C23.9956 26.7523 24.0951 26.9146 24.2431 27.0073C24.3911 27.1001 24.5861 27.1183 24.7446 27.0443C24.8739 26.9841 24.9719 26.8686 25.0334 26.7401C25.1251 26.5481 25.1384 26.3116 25.0346 26.1258C24.8271 25.7546 24.3036 25.7691 24.0771 26.1003Z" fill="#236CBA"/>
<path d="M23.2749 23.6015C23.2837 23.642 23.2722 23.6177 23.2779 23.5945C23.2829 23.575 23.2767 23.6022 23.2762 23.6047C23.2779 23.5932 23.2804 23.5805 23.2837 23.5692C23.2987 23.5187 23.3137 23.469 23.3344 23.4205C23.3897 23.292 23.4619 23.1695 23.5369 23.0517C23.7212 22.7625 23.9452 22.4905 24.2129 22.2747C24.2207 22.2685 24.2619 22.2375 24.2964 22.214C24.3404 22.1837 24.3857 22.1552 24.4314 22.128C24.5342 22.0672 24.6412 22.0127 24.7509 21.9655C25.0192 21.8497 25.3062 21.7735 25.5934 21.723C26.0359 21.645 26.4894 21.6412 26.9362 21.6775C27.1767 21.697 27.1754 21.3217 26.9362 21.3025C26.1602 21.2397 25.3544 21.3082 24.6312 21.6122C24.0337 21.8635 23.5842 22.2912 23.2317 22.8332C23.0812 23.0647 22.8502 23.4075 22.9129 23.7007C22.9634 23.9367 23.3249 23.8367 23.2744 23.601L23.2749 23.6015Z" fill="#236CBA"/>
<path d="M29.0409 22.4775C30.5939 23.8812 30.9956 26.4202 30.0244 28.261C29.5871 29.0895 28.8721 29.7595 28.0159 30.1405C27.0779 30.5577 25.9824 30.5352 25.0186 30.2107C24.5401 30.0497 24.1259 29.7487 23.7619 29.404C23.3729 29.0355 23.1006 28.5912 22.9554 28.0747C22.8901 27.8427 22.5281 27.9412 22.5939 28.1745C22.7369 28.6832 22.9914 29.143 23.3549 29.5272C23.6759 29.8667 24.0681 30.185 24.4866 30.3935C24.9736 30.6362 25.5176 30.746 26.0554 30.8035C26.6336 30.8655 27.2239 30.8127 27.7771 30.6312C28.7474 30.3127 29.5884 29.647 30.1456 28.7942C30.7594 27.855 31.0001 26.6917 30.8989 25.581C30.7844 24.3232 30.2531 23.0685 29.3061 22.2125C29.1274 22.051 28.8614 22.3155 29.0409 22.4777V22.4775Z" fill="#236CBA"/>
<path d="M22.5117 32.4208C22.8887 31.5561 23.756 30.9258 24.6947 30.8343C24.8532 30.8188 25.015 30.8178 25.1697 30.8553C25.4575 30.9253 25.7007 31.1251 25.878 31.3623C26.0552 31.5996 26.1742 31.8743 26.289 32.1476" fill="#EB6FA1"/>
<path d="M22.6737 32.5152C22.9719 31.845 23.5554 31.323 24.2597 31.1112C24.6334 30.9987 25.0639 30.94 25.4074 31.164C25.7652 31.3975 25.9489 31.8185 26.1082 32.1975C26.1472 32.2905 26.2324 32.3582 26.3389 32.3285C26.4267 32.304 26.5094 32.192 26.4699 32.0977C26.3179 31.736 26.1594 31.3702 25.8859 31.0812C25.6207 30.8007 25.2739 30.6377 24.8859 30.6367C24.1999 30.635 23.5192 30.9445 23.0184 31.4022C22.7362 31.6602 22.5054 31.9767 22.3499 32.326C22.3084 32.4192 22.3237 32.5265 22.4172 32.5825C22.4967 32.63 22.6327 32.6075 22.6737 32.5152Z" fill="#BB3A70"/>
<path d="M18.3223 33.9204C19.3213 33.4491 20.3976 33.2016 21.4698 32.9584C22.5573 32.7116 23.6586 32.5087 24.7741 32.4524C25.3976 32.4209 26.0228 32.4364 26.6428 32.5109C26.7571 32.5246 26.8553 32.4034 26.8553 32.2984C26.8553 32.1721 26.7573 32.0996 26.6428 32.0859C25.5068 31.9496 24.3623 32.0189 23.2338 32.1874C22.1068 32.3557 20.9881 32.6132 19.8871 32.9057C19.2748 33.0684 18.6806 33.2832 18.1076 33.5534C18.0038 33.6024 17.9771 33.7514 18.0313 33.8442C18.0936 33.9504 18.2178 33.9696 18.3221 33.9204H18.3223Z" fill="#236CBA"/>
<path d="M23.1055 25.9757C23.9042 26.1132 24.7202 26.1415 25.5292 26.1462C26.568 26.1525 27.6067 26.1102 28.644 26.0547C29.2947 26.02 29.9452 25.9787 30.5957 25.935C30.8832 25.9157 30.8852 25.4655 30.5957 25.485C28.549 25.6227 26.48 25.777 24.4282 25.6655C24.025 25.6435 23.6217 25.61 23.2252 25.5417C23.1057 25.5212 22.983 25.5737 22.9485 25.699C22.9187 25.8072 22.9852 25.955 23.1057 25.9757H23.1055Z" fill="#236CBA"/>
<path d="M23.1172 27.0361C23.9412 27.1536 24.7682 27.2506 25.6005 27.2826C26.6222 27.3218 27.6437 27.2648 28.656 27.1203C29.3382 27.0228 30.0135 26.8833 30.6802 26.7098C30.9602 26.6371 30.8415 26.2028 30.5605 26.2758C28.5782 26.7911 26.5467 26.9543 24.5085 26.7576C24.08 26.7163 23.658 26.6621 23.2367 26.6018C23.1165 26.5846 22.995 26.6313 22.96 26.7591C22.931 26.8646 22.996 27.0186 23.1172 27.0358V27.0361Z" fill="#236CBA"/>
<path d="M36.9258 15.2396C36.6433 13.8978 36.2988 12.5371 35.5486 11.3893C34.7653 10.1911 33.5953 9.3078 32.4493 8.44955C31.3891 7.65555 30.2821 6.8403 28.9841 6.5758C29.3296 6.60005 29.6796 6.55855 30.0098 6.45405C30.1888 6.39755 30.3706 6.3163 30.4823 6.16555C30.5943 6.0148 30.6091 5.7788 30.4706 5.65205C30.3421 5.5348 30.1433 5.5513 29.9733 5.5878C29.5373 5.68155 29.1198 5.8608 28.7513 6.1118C29.0081 5.8973 28.6676 5.34755 28.3538 5.2313C28.0401 5.11505 27.4636 5.1698 27.6501 5.66055C27.7691 5.9733 28.0153 6.4303 28.3326 6.53605C25.9236 6.7833 23.6833 6.9068 21.6198 8.17455C20.7708 8.6963 19.8921 9.59505 19.1968 10.3088C18.2338 11.2973 17.1748 12.4868 16.7188 14.1358C16.5283 14.8251 16.5083 15.8376 16.6463 16.3711L16.9241 16.4671C18.1733 16.4311 19.6251 16.5088 21.1471 16.7863C20.7751 16.7253 20.4018 16.6723 20.0276 16.6276C18.1501 16.4033 16.1101 16.4123 14.3553 17.1383C14.2743 17.0336 14.1298 16.9608 14.0001 17.0141C13.4763 17.2293 13.0018 17.5101 12.5631 17.8686C12.4428 17.9668 12.4353 18.1091 12.4911 18.2278C12.3621 18.3586 12.2246 18.4968 12.1376 18.6566C12.0646 18.7911 12.0388 18.9241 12.0498 19.0493C12.0471 19.0701 12.0451 19.0911 12.0436 19.1123C12.0368 19.2136 12.0883 19.3063 12.1651 19.3688C12.2626 19.5161 12.4131 19.6376 12.5903 19.7168C12.8943 19.8526 13.2206 19.8898 13.5456 19.852C13.6483 19.9148 13.7813 19.9163 13.8958 19.8588C16.2413 18.6798 18.9106 18.2218 21.5186 18.4991C22.2366 18.5753 22.9653 18.7193 23.6726 18.9163C23.8011 18.9521 23.9136 18.9088 23.9906 18.8296C24.1486 18.9121 24.3033 19.0023 24.4533 19.1026C25.4836 19.7903 26.2736 20.7856 27.3196 21.4606C27.8451 21.7998 28.4311 22.0593 29.0543 22.1428C29.3498 22.1823 29.7041 22.2201 29.9788 22.0773C30.1446 21.9911 30.2633 21.8283 30.2733 21.6388C30.2776 21.5581 30.2633 21.4791 30.2398 21.4018C30.4138 21.5591 30.5281 21.6653 30.5758 21.7016C31.2503 22.2148 33.1638 22.1806 34.0951 23.0066C34.3031 23.1911 34.9031 23.4615 35.1363 23.31C35.2473 23.238 35.3148 23.1168 35.3781 23.0005C36.2658 21.3688 37.1758 19.6596 37.2356 17.8028C37.2633 16.9403 37.1043 16.0833 36.9266 15.2388L36.9258 15.2396Z" fill="#E3AF5F"/>
<path d="M30.9931 10.4495C31.5393 11.8537 31.7923 13.353 31.9883 14.847C32.1366 15.978 32.2543 17.1187 32.1991 18.2582C32.1711 18.8355 32.0971 19.417 31.8908 19.957C31.6536 20.5777 31.2416 21.1302 30.7143 21.5347C30.5336 21.3945 30.2786 21.429 30.0513 21.4545C28.6171 21.6157 27.1211 21.1 26.0908 20.0892C25.6268 19.634 23.4213 18.3685 22.7773 18.281C23.2168 19.0115 24.4021 19.385 25.5273 20.1132C26.5041 20.7452 27.4073 21.762 28.0868 22.0547C28.4238 22.1997 28.7846 22.3225 29.1501 22.29C29.5801 22.2517 29.9681 22.003 30.3968 21.9532C30.7298 21.9145 31.0636 21.9982 31.3886 22.0812C32.3653 22.331 33.3581 22.5875 34.2213 23.1085C34.3618 23.1932 34.5106 23.2882 34.6746 23.2802C34.8583 23.2712 35.0091 23.1352 35.1288 22.9957C35.5521 22.5027 36.2163 21.5022 36.4476 20.8947C37.0803 19.2327 37.2703 17.8635 37.0578 16.0977C36.9778 15.4322 36.7818 14.786 36.5588 14.154C35.9271 12.3635 34.8726 10.638 33.5398 9.28545C32.5868 8.31845 31.5876 7.5607 30.3113 7.0997C30.0096 6.9907 28.8961 6.4692 28.8206 6.95695C28.7783 7.2307 29.0878 7.4562 29.2468 7.6217C29.4868 7.8717 29.7071 8.1402 29.9093 8.42145C30.3578 9.0457 30.7146 9.7337 30.9933 10.4492L30.9931 10.4495Z" fill="#E09F4A"/>
<path d="M22.9321 18.4163C21.9636 18.2038 21.1336 17.5895 20.1514 17.4228C20.1374 17.4203 20.1234 17.419 20.1094 17.4183C19.7734 17.2738 19.4006 17.2068 19.0306 17.138C19.0314 17.0183 18.9554 16.881 18.8306 16.8633C18.1744 16.77 17.5139 16.7238 16.8509 16.7393C16.5281 16.7468 16.2059 16.7678 15.8851 16.8025C15.7691 16.815 15.6546 16.829 15.5419 16.8485C15.2996 16.8455 15.0581 16.861 14.8221 16.9248C14.5091 17.0093 14.2134 17.1605 13.9211 17.2983C13.6399 17.4308 13.3601 17.5703 13.1014 17.7433C12.5469 18.1143 12.0519 18.6568 11.9469 19.3388C11.9201 19.512 11.9909 19.6883 12.1739 19.7385C12.2704 19.765 12.3924 19.7378 12.4766 19.6705C12.6201 19.7445 12.7984 19.7715 12.9474 19.801C13.1969 19.8505 13.4441 19.8723 13.6964 19.8318C13.9159 19.7965 14.1196 19.6973 14.3081 19.5828C14.4869 19.4745 14.6596 19.3545 14.8539 19.2748C15.0354 19.2003 15.2271 19.148 15.4174 19.1003C16.3236 18.8735 17.2431 18.6718 18.1651 18.5213C18.6639 18.4398 19.1664 18.3798 19.6711 18.3538C19.7859 18.3478 19.9006 18.3443 20.0151 18.344C20.1886 18.3893 20.3649 18.426 20.5459 18.4493C20.6069 18.457 20.6696 18.4343 20.7226 18.3965C20.7691 18.4043 20.8154 18.4128 20.8616 18.4228C20.9546 18.4475 21.0476 18.4725 21.1409 18.4968C21.2564 18.5268 21.3521 18.4995 21.4211 18.442C21.8654 18.64 22.3089 18.842 22.7859 18.9468C22.9309 18.9785 23.0834 18.9033 23.1241 18.7548C23.1619 18.6173 23.0779 18.4485 22.9321 18.4165V18.4163Z" fill="#E09F4A"/>
<path d="M23.3987 18.5818C23.1402 18.283 22.7909 18.0615 22.4097 17.9568C22.1714 17.8913 21.9204 17.8633 21.6682 17.846C21.3139 17.6913 20.9597 17.5368 20.6057 17.382C20.1652 17.1898 19.7249 16.9918 19.2667 16.845C18.8029 16.6965 18.3214 16.614 17.8339 16.6173C17.3587 16.6205 16.8867 16.6915 16.4172 16.7595C15.8847 16.8365 15.3504 16.9078 14.8112 16.8765C14.7204 16.8713 14.6509 16.915 14.6072 16.9788C14.4817 16.9685 14.3557 16.9613 14.2297 16.9573C14.0954 16.953 14.0149 17.0333 13.9872 17.1323C13.7372 17.1558 13.4869 17.1998 13.2364 17.2683C12.9109 17.3573 13.0492 17.8638 13.3759 17.7745C14.6667 17.422 15.9672 17.7878 17.1897 18.2533C17.3507 18.3403 17.5067 18.435 17.6672 18.524C17.7627 18.577 17.8622 18.5715 17.9647 18.5603C17.9762 18.565 17.9879 18.5698 17.9994 18.5743C18.0729 18.604 18.1544 18.5823 18.2179 18.5355C18.3167 18.5268 18.4152 18.5178 18.5139 18.509C19.0602 18.4603 19.6067 18.4118 20.1532 18.3643C20.4249 18.3405 20.6999 18.3173 20.9719 18.3235C20.9927 18.3293 21.0142 18.3335 21.0362 18.335C21.1147 18.3405 21.1944 18.3448 21.2747 18.3485C21.3544 18.3838 21.4334 18.4218 21.5109 18.464C21.5789 18.501 21.6487 18.504 21.7107 18.4848C21.7704 18.5175 21.8292 18.5528 21.8869 18.591C22.0052 18.6695 22.1774 18.6143 22.2462 18.4968C22.2529 18.485 22.2584 18.473 22.2632 18.461C22.5652 18.544 22.8227 18.7155 23.0277 18.9525C23.1204 19.0598 23.3037 19.0478 23.3989 18.9525C23.5052 18.8463 23.4919 18.6888 23.3989 18.5813L23.3987 18.5818Z" fill="#CC9048"/>
<path d="M36.9783 15.5328C36.7905 14.2048 36.339 12.8993 35.6345 11.7558C34.8808 10.5326 33.7613 9.63208 32.6613 8.73433C31.4848 7.77383 30.2108 6.86558 28.7125 6.49883C28.5573 6.46083 28.4443 6.55433 28.4028 6.67158C28.3953 6.67758 28.388 6.68408 28.381 6.69108C28.2903 6.78183 28.2688 6.97458 28.381 7.06233C29.8493 8.21108 30.561 10.0083 31.004 11.7643C31.5493 13.9256 31.7925 16.1678 31.691 18.3956C31.6633 19.0073 31.6193 19.6283 31.5253 20.2316C31.462 20.6378 31.3578 21.1233 30.965 21.3313C30.757 21.4413 30.8223 21.6941 30.982 21.7846C31.0318 21.9131 31.1645 21.9631 31.296 21.9411C32.5133 21.7371 33.7973 22.2106 34.6183 23.1228C34.715 23.2303 34.8905 23.2161 34.9895 23.1228C35.4905 22.6503 35.8398 22.0401 36.128 21.4211C36.4128 20.8098 36.6383 20.1713 36.796 19.5156C37.1093 18.2121 37.1653 16.8591 36.978 15.5328H36.9783ZM36.3948 18.8881C36.263 19.5858 36.061 20.2766 35.7775 20.9283C35.5263 21.5061 35.2308 22.0891 34.8055 22.5601C33.9768 21.7546 32.8238 21.3331 31.6748 21.3808C31.8173 21.1748 31.911 20.9311 31.9703 20.6866C32.098 20.1608 32.1335 19.6033 32.1753 19.0656C32.2653 17.9018 32.2583 16.7313 32.1628 15.5683C32.0655 14.3811 31.8795 13.2003 31.6108 12.0398C31.3895 11.0848 31.106 10.1423 30.6933 9.25133C30.3585 8.52858 29.926 7.84208 29.3783 7.26308C30.3033 7.62858 31.1423 8.19633 31.923 8.81108C32.446 9.22308 32.9565 9.65283 33.46 10.0886C33.9793 10.5378 34.4813 11.0131 34.883 11.5728C36.3725 13.6476 36.865 16.3978 36.3945 18.8881H36.3948Z" fill="#CC9048"/>
<path d="M30.328 21.4367C30.2332 21.1455 29.9095 20.949 29.6612 20.8005C29.3997 20.644 29.0175 20.4085 28.755 20.6862C28.6792 20.7662 28.6312 20.8487 28.5265 20.8955C28.4277 20.9395 28.3137 20.9552 28.2067 20.9625C27.9365 20.9807 27.6415 20.9857 27.3747 20.9357C27.075 20.8792 26.8685 20.7312 26.6635 20.5127C26.4512 20.2865 26.2557 20.0502 25.9897 19.8832C25.7027 19.7032 25.4387 20.1572 25.7247 20.3365C26.1215 20.5852 26.3422 21.0345 26.755 21.2692C26.8935 21.348 27.0422 21.3992 27.1955 21.4325C27.1892 21.5315 27.2445 21.616 27.3247 21.677C27.7867 22.0282 28.3907 22.1262 28.9512 22.2042C29.2465 22.2452 29.5577 22.2705 29.8437 22.1655C30.1455 22.0547 30.4435 21.7902 30.3282 21.4365L30.328 21.4367Z" fill="#CC9048"/>
<path d="M33.5315 11.6822C33.5032 11.2384 33.3152 10.8219 32.9825 10.5232C32.7317 10.2979 32.3592 10.6682 32.6112 10.8944C32.839 11.0989 32.9867 11.3739 33.0065 11.6822C33.0155 11.8237 33.1207 11.9447 33.269 11.9447C33.404 11.9447 33.5405 11.8244 33.5315 11.6822Z" fill="#BF7F3A"/>
<path d="M33.992 13.2174C33.8292 12.9212 33.3757 13.1859 33.5387 13.4824C33.696 13.7687 33.7567 14.0812 33.7327 14.4059C33.7222 14.5474 33.861 14.6684 33.9952 14.6684C34.146 14.6684 34.2472 14.5479 34.2577 14.4059C34.2885 13.9917 34.1917 13.5807 33.992 13.2174Z" fill="#BF7F3A"/>
<path d="M34.2963 15.7851C34.198 15.4629 33.6913 15.6001 33.79 15.9246C33.8633 16.1654 33.8923 16.4181 33.8543 16.6684C33.833 16.8084 33.8895 16.9506 34.0375 16.9914C34.1615 17.0254 34.339 16.9491 34.3605 16.8081C34.413 16.4626 34.3985 16.1211 34.2963 15.7851Z" fill="#BF7F3A"/>
<path d="M34.0348 18.1934C33.8838 18.1934 33.7831 18.3139 33.7723 18.4559C33.7546 18.6904 33.7371 18.9246 33.7193 19.1591C33.7086 19.3006 33.8476 19.4216 33.9818 19.4216C34.1328 19.4216 34.2336 19.3011 34.2443 19.1591C34.2621 18.9246 34.2796 18.6904 34.2973 18.4559C34.3081 18.3144 34.1691 18.1934 34.0348 18.1934Z" fill="#BF7F3A"/>
<path d="M33.6673 20.6238C33.5371 20.588 33.3736 20.6678 33.3443 20.807C33.2663 21.1808 33.1561 21.5455 33.0136 21.8998C32.9606 22.0313 33.0713 22.1883 33.1968 22.2228C33.3466 22.264 33.4666 22.1715 33.5198 22.0395C33.6623 21.6853 33.7726 21.3205 33.8506 20.9468C33.8796 20.808 33.8101 20.663 33.6673 20.6238Z" fill="#BF7F3A"/>
<path d="M18.242 14.592C18.1783 14.8618 18.1148 15.1313 18.051 15.401C17.9735 15.7295 18.4795 15.8698 18.5573 15.5405C18.621 15.2708 18.6845 15.0013 18.7483 14.7315C18.8258 14.403 18.3198 14.2628 18.242 14.592Z" fill="#BF7F3A"/>
<path d="M19.4384 12.594C19.3236 12.8007 19.2089 13.0072 19.0939 13.214C18.9296 13.5095 19.3829 13.7747 19.5471 13.479C19.6619 13.2722 19.7766 13.0657 19.8916 12.859C20.0559 12.5635 19.6026 12.2982 19.4384 12.594Z" fill="#BF7F3A"/>
<path d="M21.2264 10.8441C20.9907 10.9916 20.7962 11.2026 20.6862 11.4596C20.6304 11.5899 20.6474 11.7409 20.7804 11.8189C20.8909 11.8834 21.0834 11.8559 21.1397 11.7246C21.2182 11.5411 21.3287 11.3994 21.4914 11.2974C21.7772 11.1184 21.5139 10.6641 21.2264 10.8441Z" fill="#BF7F3A"/>
<path d="M23.6036 9.43137C23.5246 9.29662 23.3753 9.28112 23.2443 9.33712C22.9671 9.45562 22.7341 9.68387 22.6056 9.95612C22.5451 10.0844 22.5698 10.2394 22.6998 10.3154C22.8138 10.3821 22.9983 10.3499 23.0591 10.2211C23.1561 10.0156 23.2998 9.88012 23.5096 9.79037C23.6401 9.73462 23.6688 9.54262 23.6038 9.43112L23.6036 9.43137Z" fill="#BF7F3A"/>
<path d="M25.8834 7.92995C25.5904 8.1062 25.2972 8.28245 25.0042 8.4587C24.7149 8.6327 24.9787 9.0867 25.2692 8.91195L26.1484 8.38321C26.4377 8.20921 26.1739 7.7552 25.8834 7.92995Z" fill="#BF7F3A"/>
<path d="M28.1859 9.52245C28.0679 9.2587 27.9502 8.9952 27.8322 8.73145C27.7742 8.60195 27.5859 8.5712 27.4729 8.6372C27.3397 8.7152 27.3207 8.86645 27.3787 8.99645C27.4967 9.2602 27.6144 9.5237 27.7324 9.78745C27.7904 9.91695 27.9787 9.9477 28.0917 9.8817C28.2249 9.8037 28.2439 9.65245 28.1859 9.52245Z" fill="#BF7F3A"/>
<path d="M28.7349 12.0517C28.6647 11.8144 28.6267 11.5772 28.6227 11.3297C28.6172 10.9922 28.0922 10.9912 28.0977 11.3297C28.1024 11.6212 28.1457 11.9117 28.2287 12.1912C28.3244 12.5144 28.8314 12.3767 28.7349 12.0517Z" fill="#BF7F3A"/>
<path d="M28.7572 14.8483C28.7245 14.5555 28.6917 14.2625 28.659 13.9695C28.6432 13.8285 28.5497 13.707 28.3965 13.707C28.2667 13.707 28.1182 13.8278 28.134 13.9695C28.1667 14.2625 28.1995 14.5553 28.2322 14.8483C28.248 14.9893 28.3415 15.1108 28.4947 15.1108C28.6245 15.1108 28.773 14.99 28.7572 14.8483Z" fill="#BF7F3A"/>
<path d="M28.2188 16.4332V17.1369C28.2188 17.4747 28.7437 17.4752 28.7437 17.1369V16.4332C28.7437 16.0954 28.2188 16.0949 28.2188 16.4332Z" fill="#BF7F3A"/>
<path d="M28.547 17.9374C28.4 17.8971 28.2737 17.9874 28.224 18.1206C28.1365 18.3554 28.049 18.5901 27.9617 18.8251C27.9122 18.9581 28.017 19.1129 28.145 19.1481C28.292 19.1884 28.4182 19.0981 28.468 18.9649C28.5555 18.7301 28.643 18.4954 28.7302 18.2604C28.7797 18.1274 28.675 17.9726 28.547 17.9374Z" fill="#BF7F3A"/>
<path d="M31.2434 14.2168C31.1794 13.9245 30.7269 13.994 30.7279 14.2865C30.7301 15.1353 30.7139 15.9875 30.6504 16.8343C30.5989 17.5225 30.4759 18.2678 30.0056 18.8048C29.9474 18.8713 29.8859 18.933 29.8206 18.9895C29.8034 18.996 29.7859 19.0023 29.7684 19.0083C29.3866 19.1355 29.0021 19.0743 28.6291 18.9408C28.1831 18.781 27.7586 18.5513 27.3311 18.3485C26.8271 18.1093 26.3231 17.8703 25.8189 17.631C25.6909 17.5703 25.5356 17.5955 25.4596 17.7253C25.3929 17.8395 25.4251 18.0233 25.5539 18.0845C25.6649 18.1373 25.7759 18.1898 25.8866 18.2425C25.8554 18.3865 25.9466 18.4965 26.0734 18.55C26.8346 18.871 27.6304 19.1565 28.3491 19.5675C28.6959 19.766 29.0104 20.009 29.3196 20.2605C29.3441 20.2805 29.3686 20.3005 29.3931 20.3203C29.2884 20.372 29.2351 20.5188 29.2646 20.6258C29.3061 20.7765 29.4466 20.8295 29.5876 20.809C29.6769 20.796 29.7654 20.7775 29.8524 20.7543C29.8296 20.836 29.8449 20.9245 29.9191 20.995C30.2871 21.3438 30.8641 21.232 31.1954 20.8865C31.5524 20.514 31.5484 19.9825 31.4871 19.4965C31.7029 17.7365 31.6231 15.9523 31.2434 14.217V14.2168ZM29.6306 19.8403C29.6369 19.8393 29.6429 19.8383 29.6491 19.8373C29.6726 19.8338 29.6959 19.83 29.7194 19.826C29.7146 19.8565 29.7154 19.8855 29.7199 19.9128C29.6981 19.895 29.6764 19.8773 29.6546 19.8598C29.6466 19.8533 29.6386 19.8468 29.6306 19.8405V19.8403ZM29.9819 20.1258C30.0284 20.1243 30.0761 20.1098 30.1204 20.0798C30.1239 20.0788 30.1271 20.0778 30.1306 20.0765C30.0884 20.0995 30.0454 20.1213 30.0011 20.1413C29.9946 20.136 29.9884 20.1308 29.9819 20.1255V20.1258Z" fill="#E09F4A"/>
<path d="M30.3518 21.8016C30.3813 21.8186 30.3068 21.7068 30.3173 21.7043C30.3123 21.7056 30.2836 21.7511 30.2761 21.7606C30.2211 21.8288 30.1528 21.8898 30.0891 21.9496C29.9691 22.0621 29.8013 22.0866 29.6426 22.0931C29.2378 22.1096 28.8313 22.0516 28.4431 21.9383C28.0496 21.8236 27.6778 21.6473 27.3386 21.4171C26.9853 21.1773 26.6828 20.8723 26.3756 20.5781C25.2216 19.4733 23.8948 18.5553 22.4508 17.8708C21.0041 17.1851 19.4586 16.7316 17.8703 16.5313C16.2491 16.3271 14.4151 16.3078 13.0096 17.2646C12.7001 17.4753 12.4166 17.7256 12.1838 18.0193C11.9633 18.2976 11.7486 18.6208 11.6908 18.9781C11.6296 19.3578 11.7513 19.7246 12.1331 19.8701C12.2938 19.9313 12.4718 19.9571 12.6388 19.9973C12.8301 20.0433 13.0211 20.0906 13.2121 20.1373C13.3888 20.1806 13.5656 20.2233 13.7428 20.2636C14.0248 20.3278 14.1451 19.8941 13.8626 19.8296C13.4933 19.7456 13.1266 19.6518 12.7583 19.5633C12.6011 19.5256 12.4198 19.5066 12.2706 19.4436C12.1473 19.3916 12.1188 19.2771 12.1218 19.1531C12.1301 18.8391 12.3463 18.5273 12.5376 18.2931C12.7631 18.0173 13.0328 17.7813 13.3326 17.5896C14.0251 17.1468 14.8366 16.9471 15.6501 16.8916C16.4768 16.8353 17.3181 16.8956 18.1366 17.0178C19.6923 17.2503 21.2101 17.7353 22.6116 18.4498C23.3148 18.8083 23.9893 19.2228 24.6261 19.6893C25.2818 20.1696 25.8588 20.7246 26.4546 21.2741C27.0821 21.8528 27.8126 22.2818 28.6556 22.4541C29.0543 22.5356 29.4886 22.5846 29.8928 22.5166C30.0876 22.4838 30.2626 22.4026 30.4071 22.2673C30.5283 22.1538 30.6618 22.0311 30.7301 21.8768C30.8103 21.6958 30.7503 21.5118 30.5791 21.4123C30.3281 21.2666 30.1013 21.6553 30.3521 21.8008L30.3518 21.8016Z" fill="#8C5A2F"/>
<path d="M16.9764 19.1548C17.9836 18.745 19.0939 18.6328 20.1734 18.6755C21.2869 18.7195 22.3806 18.951 23.4294 19.3218C23.9284 19.4982 24.4284 19.6818 24.9096 19.9033C25.0199 19.954 25.1519 19.9345 25.2174 19.8225C25.2741 19.7255 25.2476 19.5658 25.1366 19.5148C23.1386 18.5948 20.9199 18.0255 18.7109 18.276C18.0771 18.348 17.4491 18.48 16.8569 18.721C16.7444 18.7668 16.6649 18.8708 16.6996 18.9978C16.7289 19.1043 16.8631 19.201 16.9764 19.155V19.1548Z" fill="#8C5A2F"/>
<path d="M16.8647 16.3124C16.7509 15.8574 16.7667 15.3609 16.8117 14.8976C16.8627 14.3709 17.0142 13.8579 17.2279 13.3744C17.6467 12.4269 18.2834 11.6084 18.9869 10.8561C19.3524 10.4654 19.7282 10.0826 20.1112 9.70912C20.5269 9.30362 20.9572 8.90562 21.4324 8.57012C22.3464 7.92462 23.4159 7.52562 24.5004 7.27737C25.7597 6.98912 27.0519 6.89362 28.3342 6.76237C28.5869 6.73662 28.6394 6.41062 28.3939 6.32037C28.1634 6.23562 28.0167 5.93137 27.9204 5.72462C27.8972 5.67462 27.8742 5.62337 27.8574 5.57062C27.8572 5.56962 27.8389 5.50512 27.8414 5.51687C27.8407 5.51337 27.8437 5.44162 27.8389 5.48162C27.8442 5.43762 27.8257 5.49037 27.8474 5.45787C27.8239 5.49362 27.8544 5.44887 27.8647 5.44212C27.8274 5.46587 27.8812 5.43437 27.8892 5.43137C27.8517 5.44512 27.9217 5.42162 27.9299 5.41962C28.0669 5.38387 28.2549 5.40137 28.3872 5.51137C28.4742 5.58362 28.5524 5.68512 28.5934 5.79112C28.6092 5.83187 28.6164 5.86412 28.6177 5.89512C28.6194 5.93287 28.6229 5.92687 28.5934 5.95412C28.4082 6.12512 28.6519 6.45137 28.8662 6.30762C29.1132 6.14162 29.3777 6.00412 29.6602 5.90912C29.8044 5.86062 29.9574 5.81162 30.1089 5.79212C30.1784 5.78312 30.3014 5.76937 30.3382 5.84587C30.4352 6.04762 30.1022 6.18937 29.9694 6.23262C29.6502 6.33687 29.3202 6.37262 28.9857 6.35212C28.7344 6.33662 28.6769 6.74212 28.9259 6.79412C30.3702 7.09537 31.5627 8.05712 32.7122 8.92662C33.8594 9.79437 34.9829 10.7381 35.6652 12.0301C36.0139 12.6904 36.2497 13.4029 36.4379 14.1236C36.6359 14.8819 36.8049 15.6554 36.9212 16.4304C37.0382 17.2106 37.0514 18.0004 36.9014 18.7769C36.7589 19.5141 36.5039 20.2261 36.1957 20.9094C35.8834 21.6016 35.5299 22.2804 35.1557 22.9411C35.1209 23.0026 35.0859 23.0644 35.0317 23.1106C35.0052 23.1331 34.9944 23.1309 34.9594 23.1309C34.8414 23.1314 34.7189 23.0916 34.6057 23.0461C34.3547 22.9454 34.2254 22.8056 34.0084 22.6579C33.5457 22.3431 32.9839 22.1864 32.4459 22.0559C31.9612 21.9384 31.4249 21.8551 30.9762 21.6691C30.9077 21.6406 30.8064 21.5891 30.7322 21.5386C30.7209 21.5309 30.6659 21.4879 30.7094 21.5234C30.7469 21.5539 30.7247 21.5361 30.7172 21.5289C30.7057 21.5181 30.6929 21.5084 30.6812 21.4979C30.5997 21.4269 30.5204 21.3531 30.4404 21.2804C30.1387 21.0071 29.8317 20.7399 29.5164 20.4821C28.4687 19.6246 27.3442 18.8561 26.1422 18.2309C24.7887 17.5269 23.3349 17.0211 21.8452 16.6974C20.5182 16.4089 19.1594 16.2574 17.8019 16.2371C17.5099 16.2329 17.2177 16.2349 16.9257 16.2431C16.6337 16.2514 16.6354 16.7011 16.9257 16.6931C18.2469 16.6564 19.5734 16.7439 20.8764 16.9666C22.3732 17.2224 23.8484 17.6491 25.2294 18.2839C26.5349 18.8839 27.7609 19.6629 28.8887 20.5516C29.2567 20.8416 29.6147 21.1439 29.9639 21.4559C30.1427 21.6156 30.3137 21.7991 30.5139 21.9329C30.9122 22.1989 31.4344 22.2844 31.8924 22.3889C32.4362 22.5129 33.0014 22.6276 33.5022 22.8824C33.6249 22.9449 33.7459 23.0151 33.8554 23.0989C33.9492 23.1706 34.0347 23.2501 34.1362 23.3116C34.3732 23.4554 34.6652 23.5776 34.9462 23.5806C35.3214 23.5844 35.4899 23.2699 35.6479 22.9784C35.8337 22.6364 36.0179 22.2934 36.1942 21.9464C36.9024 20.5524 37.4974 19.0521 37.4632 17.4629C37.4449 16.6204 37.2762 15.7871 37.0987 14.9661C36.9382 14.2231 36.7547 13.4821 36.4854 12.7704C36.2149 12.0554 35.8599 11.3861 35.3884 10.7831C34.9347 10.2029 34.3937 9.69812 33.8259 9.23137C33.2424 8.75187 32.6347 8.29937 32.0239 7.85562C31.4182 7.41537 30.7889 6.99612 30.0984 6.69987C29.7579 6.55387 29.4089 6.43537 29.0457 6.35962C29.0257 6.50687 29.0057 6.65437 28.9859 6.80162C29.4159 6.82812 29.8704 6.77062 30.2677 6.59787C30.6097 6.44912 30.8954 6.10587 30.7679 5.71337C30.6249 5.27262 30.1279 5.31312 29.7684 5.40712C29.3672 5.51212 28.9834 5.68762 28.6397 5.91862C28.7307 6.03637 28.8214 6.15412 28.9124 6.27212C29.1499 6.05287 29.0777 5.69987 28.9239 5.45437C28.7719 5.21187 28.5444 5.02362 28.2579 4.97537C28.0137 4.93412 27.7177 4.95212 27.5322 5.13787C27.2972 5.37312 27.4114 5.69212 27.5322 5.95162C27.6874 6.28512 27.9167 6.62262 28.2747 6.75412C28.2947 6.60687 28.3147 6.45937 28.3344 6.31212C25.9827 6.55287 23.5332 6.71287 21.4747 8.00212C20.4887 8.61962 19.6674 9.49487 18.8674 10.3289C18.1302 11.0976 17.4357 11.9264 16.9617 12.8869C16.6757 13.4666 16.4637 14.0786 16.3822 14.7211C16.3112 15.2794 16.2939 15.8819 16.4314 16.4319C16.5017 16.7126 16.9357 16.5936 16.8654 16.3121L16.8647 16.3124Z" fill="#8C5A2F"/>
<path d="M27.833 6.91122C28.6825 7.80972 29.4452 8.77222 29.9252 9.92147C30.4465 11.1695 30.7785 12.5125 30.9835 13.8472C31.1447 14.8987 31.2132 15.961 31.3042 17.0202C31.379 17.891 31.4455 18.7725 31.3735 19.6455C31.3412 20.035 31.272 20.4825 31.1062 20.81C31.0857 20.8505 31.0635 20.8905 31.0392 20.929C31.0155 20.9667 30.9885 21.0045 30.9845 21.0092C30.962 21.0367 30.9382 21.0635 30.913 21.0885C30.9005 21.1007 30.8875 21.1122 30.875 21.1242C30.8665 21.132 30.8575 21.1392 30.8487 21.1467C30.8667 21.1332 30.8667 21.1332 30.8485 21.1467C30.8182 21.1682 30.7867 21.1865 30.7545 21.205C30.7422 21.212 30.729 21.218 30.7162 21.2237C30.7582 21.2042 30.6922 21.2322 30.6837 21.235C30.5812 21.2687 30.5705 21.2682 30.4665 21.2692C30.2092 21.2717 30.2085 21.6717 30.4665 21.6692C31.2672 21.6615 31.5905 20.8647 31.706 20.1895C31.8612 19.2815 31.8082 18.3432 31.738 17.4297C31.6592 16.4027 31.5847 15.3717 31.4545 14.35C31.274 12.9335 30.9572 11.5345 30.46 10.1942C30.2297 9.57372 29.945 8.97597 29.5817 8.42197C29.1572 7.77522 28.6467 7.18922 28.1162 6.62797C27.939 6.44047 27.6565 6.72372 27.8335 6.91072L27.833 6.91122Z" fill="#8C5A2F"/>
<path d="M7.66029 33.3655C7.86879 34.6855 8.81454 35.7775 10.0495 36.2578C10.3878 36.3893 10.744 36.464 11.1055 36.49C11.3785 36.5095 11.3773 36.0845 11.1055 36.065C10.3925 36.0138 9.70204 35.7095 9.16604 35.239C8.57404 34.7193 8.19279 34.0313 8.07004 33.2528C8.05204 33.1393 7.91029 33.0763 7.80854 33.1043C7.68754 33.1375 7.64204 33.2518 7.66004 33.3658L7.66029 33.3655Z" fill="#236CBA"/>
<path d="M16.4651 18.9839C17.9353 18.8201 19.4743 19.0801 20.6893 19.9239C21.9046 20.7676 22.7696 22.1001 23.0458 23.5536C23.1543 24.1249 23.1753 24.7091 23.1788 25.2906C23.1821 25.8394 23.1153 26.5479 22.9973 27.0839C22.2736 30.3726 20.4503 31.4001 19.4628 31.5939C18.0136 31.8784 17.1443 31.7486 15.9443 31.6294C14.9363 31.5294 13.3773 30.7459 12.6451 29.3126C11.6911 27.4449 11.6281 25.2129 12.0806 23.1649C12.2686 22.3144 12.4903 21.6091 13.0011 20.9034C13.5118 20.1976 14.9618 19.1511 16.4648 18.9836L16.4651 18.9839Z" fill="#D7D7D7"/>
<path d="M18.4246 19.4829C16.9413 19.2241 15.3411 19.8986 14.3506 21.0326C14.1041 21.3146 13.8943 21.6276 13.7118 21.9546C13.0696 23.1049 12.7646 24.4409 12.8446 25.7559C12.9246 27.0709 13.3246 28.5594 14.1251 29.6059C14.9931 30.7409 16.1193 31.4974 17.5951 31.6414C19.4616 31.5939 21.0893 28.9136 21.2201 25.9214C21.3508 22.9291 20.2306 19.5979 18.4248 19.4829H18.4246Z" fill="#AEF0FF"/>
<path d="M21.8376 20.9689C21.5271 20.6442 21.1591 20.4077 20.7713 20.2009C20.4403 19.9519 20.0838 19.7369 19.7073 19.5619C19.6461 19.5334 19.5871 19.5387 19.5388 19.5629C19.3993 19.4834 19.2578 19.4077 19.1138 19.3367C19.0678 19.3139 19.0236 19.3097 18.9843 19.3182C18.4466 19.0154 17.8538 18.8224 17.2423 19.0467C17.2293 19.0514 17.2173 19.0572 17.2066 19.0639C17.1848 19.0562 17.1596 19.0527 17.1311 19.0547C16.9816 19.0657 16.8326 19.0824 16.6848 19.1042C16.3921 19.1269 16.1061 19.1934 15.8316 19.2937C14.8226 19.5942 13.8943 20.1509 13.1611 20.9174C13.1111 20.9697 13.0983 21.0332 13.1131 21.0904C13.0828 21.0869 13.0526 21.0837 13.0223 21.0802C12.9216 21.0687 12.8348 21.1744 12.8348 21.2677C12.8348 21.3784 12.9213 21.4437 13.0223 21.4552C13.1881 21.4739 13.3613 21.5082 13.5306 21.5197C12.7091 22.7627 12.3618 24.2827 12.4406 25.7637C12.5213 27.2887 13.0316 28.8114 13.9808 30.0169C14.4913 30.6654 15.1453 31.2074 15.9058 31.5362C15.9996 31.5767 16.1058 31.5632 16.1623 31.4689C16.2096 31.3902 16.1878 31.2524 16.0951 31.2124C14.7866 30.6469 13.8583 29.4602 13.3411 28.1587C12.7953 26.7854 12.6491 25.2399 12.9743 23.7954C13.1583 22.9782 13.4936 22.2054 13.9816 21.5234C14.0238 21.4642 14.0238 21.4059 13.9996 21.3587C14.0383 21.3234 14.0758 21.2857 14.1146 21.2494C14.3933 20.9869 14.6818 20.7327 14.9871 20.5014C15.5893 20.0449 16.2518 19.6667 16.9833 19.4639C17.0053 19.4579 17.0243 19.4487 17.0406 19.4374C17.0708 19.4347 17.1011 19.4319 17.1313 19.4297C17.1626 19.4274 17.1896 19.4189 17.2128 19.4062C17.2483 19.4234 17.2921 19.4269 17.3423 19.4084C18.1898 19.0974 19.0116 19.7419 19.6576 20.2132C19.9628 20.4359 20.2618 20.6879 20.4481 21.0227C20.5006 21.1172 20.5486 21.2142 20.6486 21.2679C20.7458 21.3202 20.8591 21.3102 20.9651 21.3074C21.2118 21.3012 21.4588 21.2952 21.7056 21.2889C21.8691 21.2849 21.9513 21.0874 21.8381 20.9689H21.8376Z" fill="#BCBCBC"/>
<path d="M21.9581 21.1089C21.8544 20.8651 20.4001 21.0421 20.5064 21.2849C22.0166 24.7306 20.8896 28.5959 20.7384 28.7476C20.6756 28.8104 20.6459 28.8929 20.6099 28.9716C20.5661 29.0674 20.5196 29.1616 20.4704 29.2546C20.3779 29.4289 20.2761 29.5981 20.1654 29.7611C19.9454 30.0854 19.6876 30.3831 19.4019 30.6511C19.2601 30.7841 19.1116 30.9104 18.9556 31.0261C18.8711 31.0889 18.7849 31.1489 18.6966 31.2064C18.6526 31.2351 18.6084 31.2636 18.5634 31.2906C18.5436 31.3031 18.5234 31.3151 18.5026 31.3261C18.3299 31.2214 18.1081 31.4629 18.2726 31.6181C18.3749 31.7146 18.4879 31.7189 18.5984 31.6839C18.6371 31.7126 18.6899 31.7254 18.7541 31.7086C19.5274 31.5091 20.2626 31.1589 20.9006 30.6779C21.2176 30.4389 21.5154 30.1736 21.7786 29.8759C22.0461 29.5736 22.2144 29.2091 22.3489 28.8206C23.6004 25.1996 23.0579 23.6894 21.9581 21.1086V21.1089ZM19.7199 30.9441C19.7226 30.9474 19.7254 30.9506 19.7284 30.9539C19.7179 30.9589 19.7076 30.9641 19.6974 30.9691C19.7049 30.9609 19.7124 30.9524 19.7199 30.9441Z" fill="#BCBCBC"/>
<path d="M22.7377 22.9119C22.3222 22.4587 21.7932 22.1244 21.1817 21.9964C20.9592 21.9499 20.7705 22.1744 20.8852 22.3819C21.2952 23.1237 21.3797 23.9777 21.3627 24.8114C21.354 25.2424 21.3187 25.6722 21.2805 26.1012C21.2432 26.5189 21.2047 26.9374 21.119 27.3487C21.0242 27.8044 20.8725 28.2387 20.608 28.6247C20.5685 28.6824 20.5622 28.7474 20.5782 28.8084C20.318 28.9434 20.4565 29.3949 20.7627 29.2957C21.3272 29.1124 22.2332 29.2404 22.503 28.6889C22.601 28.4884 22.796 27.3424 22.9185 26.7624C23.1775 25.5369 23.06 23.2637 22.7375 22.9117L22.7377 22.9119Z" fill="#A8A8A8"/>
<path d="M12.4106 32.8004C12.6648 32.8217 12.9196 32.8397 13.1743 32.8539C13.2813 32.8599 13.3858 32.8679 13.4706 32.7894C13.5413 32.7239 13.5671 32.6234 13.5996 32.5357C13.7281 32.1882 13.8401 31.8342 13.9491 31.4802C14.0298 31.2182 13.6198 31.1062 13.5393 31.3672C13.4788 31.5637 13.4163 31.7597 13.3518 31.9549C13.3181 32.0569 13.2836 32.1587 13.2481 32.2602C13.2326 32.3042 13.2171 32.3479 13.2011 32.3917C13.1921 32.4167 13.1808 32.4417 13.1731 32.4672C13.1666 32.4884 13.1363 32.5244 13.1701 32.4889C13.2013 32.4707 13.2326 32.4524 13.2638 32.4342C13.2421 32.4409 13.1466 32.4274 13.1028 32.4249C13.0233 32.4204 12.9436 32.4154 12.8641 32.4099C12.7128 32.3997 12.5618 32.3882 12.4108 32.3754C12.1383 32.3527 12.1398 32.7777 12.4108 32.8004H12.4106Z" fill="#236CBA"/>
<path d="M13.916 30.8394C13.654 30.5419 13.36 30.2799 13.0412 30.0451C13.04 30.0249 13.0362 30.0046 13.0282 29.9849C12.9517 29.7976 12.7705 29.7059 12.5795 29.7976C12.431 29.8689 12.334 30.0279 12.2965 30.1851C12.2275 30.4749 12.3255 30.7676 12.2835 31.0591C12.1882 31.7174 11.6717 32.2081 11.1762 32.6004C10.6722 32.9994 10.0997 33.2376 9.42472 33.2196C9.25022 33.2149 9.04097 33.1019 8.86747 33.0909C8.69372 33.0799 8.54972 33.3919 8.40547 33.4866C8.10647 33.6834 7.84197 33.9521 7.57097 34.1849C7.29622 34.4209 7.01522 34.6516 6.74797 34.8964C6.49122 35.1314 6.26772 35.3974 6.13847 35.7236C6.01522 36.0344 6.01072 36.3854 6.15947 36.6876C6.29972 36.9726 6.57347 37.1774 6.89122 37.2089C7.24697 37.2441 7.57497 37.0576 7.84297 36.8439C8.12372 36.6199 8.37947 36.3606 8.64297 36.1169C9.20297 35.5981 9.76297 35.0796 10.323 34.5609C10.6277 34.2786 10.9367 34.0004 11.233 33.7094C11.517 33.4306 11.771 33.1261 12.0405 32.8336C12.5987 32.2274 13.2812 31.7321 13.916 31.2099C14.0302 31.1159 14.0022 30.9366 13.916 30.8386V30.8394Z" fill="#E3AF5F"/>
<path d="M13.7525 30.9661C13.4585 30.5834 13.137 30.2274 12.7788 29.9034C12.6605 29.7964 12.4405 29.8284 12.4028 30.0026C12.3878 30.0714 12.3793 30.1404 12.376 30.2094C12.2115 30.1589 12.0828 30.3209 12.1085 30.4719C12.079 30.5224 12.0678 30.5821 12.0893 30.6376C12.1305 30.7436 12.1775 30.8494 12.23 30.9521C12.0985 31.3249 11.9378 31.6861 11.7075 32.0106C11.4083 32.4324 10.9795 32.7394 10.5638 33.0364C9.61001 33.7171 8.75501 34.5036 7.92101 35.3244C7.43276 35.8049 6.95401 36.2949 6.48401 36.7931C6.41951 36.8616 6.39201 36.9826 6.44876 37.0659C6.55351 37.2189 6.70826 37.2594 6.86501 37.2329C6.90851 37.3341 7.01851 37.4121 7.13376 37.3739C7.64476 37.2041 8.03001 36.8099 8.41501 36.4514C8.83226 36.0629 9.24226 35.6661 9.64451 35.2619C10.036 34.8684 10.414 34.4639 10.788 34.0554C11.1723 33.6779 11.555 33.2994 11.939 32.9229C12.279 32.5896 12.6135 32.2494 12.8988 31.8684C12.9575 31.8211 13.017 31.7749 13.0775 31.7301C13.1363 31.7186 13.195 31.6929 13.252 31.6506C13.4178 31.5279 13.57 31.3829 13.717 31.2389C13.7808 31.1764 13.8115 31.0434 13.7523 30.9661H13.7525Z" fill="#E09F4A"/>
<path d="M12.2071 30.3574C12.4059 30.1749 12.6046 29.9921 12.8034 29.8096C13.0051 29.6241 12.7041 29.3244 12.5029 29.5091C12.3016 29.6939 12.1054 29.8744 11.9066 30.0569C11.7049 30.2424 12.0059 30.5421 12.2071 30.3574Z" fill="#8C5A2F"/>
<path d="M8.61727 32.9395C8.03177 33.4538 7.46202 33.9855 6.91002 34.5355C6.63402 34.8105 6.35602 35.0865 6.09477 35.3758C5.87127 35.6233 5.66627 35.9193 5.68927 36.2693C5.71202 36.6178 5.93027 36.9508 6.17252 37.1913C6.39752 37.4148 6.69927 37.5743 7.02427 37.5388C7.36927 37.5008 7.64802 37.2848 7.89627 37.058C8.19727 36.7828 8.49227 36.5008 8.79027 36.222C9.45452 35.6005 10.119 34.9788 10.7845 34.3588C10.985 34.172 10.684 33.8718 10.484 34.0583C9.94552 34.56 9.40777 35.0628 8.87027 35.5658C8.59827 35.8203 8.32652 36.0745 8.05452 36.329C7.81877 36.5495 7.59002 36.8055 7.31802 36.982C7.08327 37.1343 6.84077 37.168 6.60352 37.0028C6.39077 36.8545 6.18902 36.5898 6.12752 36.3365C6.05777 36.0498 6.26902 35.8118 6.45077 35.6173C6.68777 35.3635 6.93177 35.1158 7.17727 34.8705C7.73977 34.3085 8.32077 33.7653 8.91827 33.2408C9.12427 33.06 8.82252 32.7603 8.61777 32.9403L8.61727 32.9395Z" fill="#8C5A2F"/>
<path d="M10.7846 34.3586C11.9088 33.3114 13.0368 32.2679 14.1741 31.2349C14.3771 31.0506 14.0758 30.7506 13.8736 30.9344C12.7361 31.9674 11.6083 33.0109 10.4841 34.0581C10.2836 34.2449 10.5846 34.5451 10.7846 34.3586Z" fill="#8C5A2F"/>
<g style="mix-blend-mode:multiply" opacity="0.2">
<path d="M21.3281 26.0216C20.1844 29.5993 17.5744 32.7078 14.7169 29.0219C14.0706 28.1884 13.7161 27.1141 13.6264 26.0516C13.5791 25.4916 13.6426 24.9429 13.7764 24.3986C13.9116 23.8489 14.0821 23.2989 14.3254 22.7869C14.7694 21.8519 15.4836 21.0239 16.4044 20.5344C16.7156 20.3689 17.0611 20.2501 17.4154 20.1906C17.6901 20.1046 17.9766 20.0544 18.2686 20.0441C18.8511 20.0241 19.3999 20.2059 19.8681 20.5246C19.8939 20.4339 19.8789 20.3279 19.8036 20.2686C19.2334 19.8209 18.5329 19.6131 17.8279 19.6246C17.7991 19.5991 17.7621 19.5794 17.7154 19.5684C16.7309 19.3389 15.8309 19.8651 15.1429 20.5256C15.1064 20.5384 15.0711 20.5581 15.0394 20.5839C14.6521 20.8996 14.3221 21.2781 14.0549 21.6999C14.0406 21.7224 14.0309 21.7444 14.0239 21.7664C14.0164 21.7759 14.0089 21.7851 14.0014 21.7946C13.6694 22.2204 13.4201 22.6856 13.2284 23.1896C12.5239 25.0424 12.7239 27.1851 13.7566 28.8751C14.1791 29.5666 14.7286 30.1764 15.3696 30.6699C15.4941 30.7739 15.6251 30.8671 15.7616 30.9493C15.8034 30.9768 15.8454 31.0043 15.8879 31.0311C15.9176 31.0498 15.9471 31.0613 15.9759 31.0673C16.1589 31.1588 16.5931 31.5186 16.7924 31.5736C17.4786 31.7863 17.9886 31.4961 18.6701 31.2581C18.7166 31.2418 18.7574 31.2148 18.7896 31.1808C18.7031 31.1951 20.9751 28.3608 20.8884 28.3673C20.6559 28.4461 21.4069 25.7753 21.3284 26.0213L21.3281 26.0216Z" fill="#504F58"/>
</g>
<path d="M17.194 28.9841C18.6193 28.9841 19.7748 27.3035 19.7748 25.2303C19.7748 23.1572 18.6193 21.4766 17.194 21.4766C15.7687 21.4766 14.6133 23.1572 14.6133 25.2303C14.6133 27.3035 15.7687 28.9841 17.194 28.9841Z" fill="#C0F6FF"/>
<path d="M16.104 24.4158C15.9397 24.7758 15.871 25.2305 15.9157 25.6613C15.9625 26.11 16.1355 26.5318 16.3922 26.773C16.6492 27.0143 16.9875 27.0613 17.2622 26.869C17.4865 26.7123 17.6565 26.4125 17.7632 26.078C17.9222 25.579 17.9455 24.9645 17.7655 24.4818C17.4055 23.5165 16.497 23.5543 16.104 24.4155V24.4158Z" fill="#236CBA"/>
<path d="M16.4629 19.209C17.8449 19.059 19.2919 19.2737 20.4696 20.0482C21.5499 20.7587 22.3541 21.8817 22.7096 23.1217C22.9201 23.8557 22.9576 24.6262 22.9514 25.386C22.9456 26.0832 22.8539 26.774 22.6759 27.4477C22.3966 28.5045 21.9339 29.5487 21.1676 30.3407C20.8916 30.626 20.6374 30.832 20.2999 31.0277C20.2304 31.068 20.1596 31.1062 20.0874 31.1417C20.0519 31.1592 20.0159 31.1762 19.9799 31.1927C19.9636 31.2 19.9474 31.2072 19.9311 31.2145C19.9074 31.225 19.9429 31.2097 19.9446 31.209C19.9339 31.2135 19.9234 31.218 19.9126 31.2222C19.7896 31.271 19.6649 31.314 19.5366 31.3467C18.3519 31.6495 17.0699 31.5582 15.8704 31.3967C15.4464 31.3397 14.9496 31.1485 14.5461 30.9227C14.0394 30.6392 13.5829 30.264 13.2231 29.8067C12.8101 29.2815 12.5499 28.635 12.3631 27.999C12.1604 27.3085 12.0571 26.594 12.0359 25.8752C12.0144 25.1512 12.0714 24.4252 12.1984 23.7122C12.3181 23.0392 12.4721 22.3475 12.7694 21.7282C13.0269 21.192 13.3484 20.778 13.8071 20.4015C14.3061 19.992 14.8889 19.6605 15.4969 19.444C15.8089 19.333 16.1334 19.2475 16.4626 19.209C16.5834 19.195 16.6876 19.1157 16.6876 18.984C16.6876 18.8732 16.5841 18.7447 16.4626 18.759C15.7261 18.845 15.0239 19.1015 14.3811 19.468C13.8564 19.7672 13.3396 20.1415 12.9486 20.606C12.5061 21.1315 12.2189 21.778 12.0296 22.4335C11.8181 23.1652 11.6851 23.925 11.6204 24.6837C11.4909 26.2025 11.6809 27.7615 12.3179 29.1552C12.8506 30.3212 13.8441 31.203 15.0449 31.644C15.5771 31.8392 16.1331 31.8772 16.6931 31.93C17.3654 31.9932 18.0366 32.0145 18.7089 31.9372C19.1594 31.8855 19.6176 31.8245 20.0404 31.6525C20.3921 31.5092 20.7134 31.3175 21.0126 31.0842C21.8419 30.4377 22.4096 29.5175 22.7906 28.5492C23.3451 27.1405 23.5036 25.6062 23.3484 24.1047C23.1999 22.669 22.5699 21.3212 21.5231 20.319C20.4479 19.2895 19.0281 18.771 17.5516 18.7175C17.1881 18.7042 16.8246 18.72 16.4631 18.7592C16.3424 18.7722 16.2381 18.8532 16.2381 18.9842C16.2381 19.0957 16.3416 19.2225 16.4631 19.2092L16.4629 19.209Z" fill="#696969"/>
<path d="M18.468 19.3284C17.3155 19.1337 16.1238 19.4499 15.1643 20.1042C14.1103 20.8229 13.4178 21.9312 13.0255 23.1304C12.621 24.3672 12.5885 25.6764 12.8388 26.9477C13.07 28.1224 13.5445 29.2312 14.3505 30.1262C15.202 31.0719 16.3263 31.6722 17.596 31.8009C17.8008 31.8217 17.7993 31.5014 17.596 31.4809C16.5445 31.3744 15.5865 30.9049 14.8335 30.1677C14.0275 29.3784 13.522 28.3907 13.2463 27.3032C12.9518 26.1412 12.9003 24.9189 13.1828 23.7494C13.466 22.5759 14.049 21.4179 14.9875 20.6357C15.913 19.8642 17.1803 19.4337 18.383 19.6372C18.5845 19.6712 18.671 19.3629 18.468 19.3287V19.3284Z" fill="#696969"/>
<path d="M16.5726 19.1849C17.0671 19.1697 17.5538 19.2502 18.0138 19.4344C18.5446 19.6469 19.0146 19.9957 19.4176 20.3972C19.8581 20.8359 20.2808 21.3524 20.5453 21.9187C20.7791 22.4192 20.9131 22.9709 21.0148 23.5114C21.2406 24.7094 21.2776 25.9337 20.9826 27.1222C20.8201 27.7772 20.5796 28.4124 20.2638 29.0089C20.0123 29.4836 19.7171 29.9447 19.3483 30.3377C19.0528 30.6524 18.7051 30.9534 18.2986 31.1129C17.8058 31.3062 17.2653 31.2897 16.7523 31.1972C16.5736 31.1649 16.3968 31.1237 16.2211 31.0782C15.9718 31.0134 15.8653 31.3989 16.1148 31.4639C16.7376 31.6259 17.3973 31.7352 18.0366 31.6062C18.5256 31.5074 18.9508 31.2469 19.3208 30.9202C20.2293 30.1179 20.8251 28.9614 21.1973 27.8244C21.4176 27.1521 21.5633 26.4452 21.5923 25.7372C21.6176 25.1209 21.5681 24.5026 21.4813 23.8929C21.3946 23.2844 21.2656 22.6744 21.0498 22.0976C20.8218 21.4879 20.4536 20.9617 20.0303 20.4699C19.2401 19.5519 18.1868 18.8709 16.9556 18.7909C16.8281 18.7827 16.7003 18.7814 16.5728 18.7854C16.3161 18.7934 16.3148 19.1934 16.5728 19.1854L16.5726 19.1849Z" fill="#696969"/>
<path d="M8.64712 33.1483C9.47337 33.4251 10.4424 33.4508 11.1776 32.9241C11.5346 32.6683 11.8366 32.3398 12.0544 31.9576C12.1654 31.7628 12.2579 31.5518 12.3196 31.3361C12.3916 31.0843 12.3949 30.8403 12.3636 30.5826C12.3186 30.2126 12.1886 29.9076 11.8811 29.6898C11.5689 29.4688 11.1644 29.3806 10.7866 29.3871C10.4124 29.3936 10.0196 29.5106 9.67787 29.6573C9.27262 29.8316 8.88837 30.0896 8.57962 30.4048C7.80987 31.1911 7.50512 32.2881 7.66037 33.3661C7.67687 33.4798 7.82112 33.5421 7.92187 33.5146C8.04387 33.4811 8.08662 33.3673 8.07037 33.2531C7.95337 32.4421 8.15937 31.5936 8.66737 30.9466C9.12362 30.3653 9.79012 29.9898 10.5094 29.8461C10.8154 29.7848 11.1441 29.8041 11.4341 29.9251C11.5466 29.9721 11.6546 30.0403 11.7266 30.1066C11.7574 30.1351 11.7869 30.1653 11.8129 30.1983C11.7779 30.1541 11.8274 30.2243 11.8384 30.2438C11.8631 30.2871 11.8809 30.3318 11.8954 30.3793C12.1264 31.1478 11.6921 31.9373 11.1189 32.4338C10.4511 33.0121 9.56387 33.0076 8.76037 32.7383C8.50037 32.6513 8.38887 33.0616 8.64737 33.1481L8.64712 33.1483Z" fill="#236CBA"/>
<path opacity="0.87" d="M15.4394 27.2254C15.3749 27.1194 15.3182 27.0104 15.2652 26.8981C15.2574 26.8819 15.2529 26.8744 15.2509 26.8724C15.2452 26.8554 15.2404 26.8374 15.2364 26.8264C15.2147 26.7686 15.1947 26.7101 15.1764 26.6511C15.1417 26.5389 15.1132 26.4246 15.0912 26.3094C15.0854 26.2794 15.0809 26.2491 15.0754 26.2191C15.0754 26.2181 15.0754 26.2174 15.0752 26.2164C15.0692 26.1546 15.0622 26.0934 15.0584 26.0314C15.0512 25.9139 15.0502 25.7961 15.0557 25.6786C15.0584 25.6179 15.0647 25.5579 15.0694 25.4974C15.0694 25.4971 15.0694 25.4969 15.0694 25.4964C15.0734 25.4719 15.0769 25.4474 15.0812 25.4231C15.1022 25.3014 15.1302 25.1806 15.1654 25.0621C15.1814 25.0089 15.1987 24.9559 15.2177 24.9036C15.2214 24.8931 15.2249 24.8814 15.2287 24.8696C15.2382 24.8471 15.2479 24.8249 15.2582 24.8029C15.3637 24.5676 15.3327 24.2589 15.0792 24.1264C14.8624 24.0131 14.5167 24.0534 14.4034 24.3061C13.9122 25.4024 13.9572 26.6904 14.5859 27.7246C14.7204 27.9459 15.0342 28.0486 15.2617 27.9024C15.4834 27.7596 15.5832 27.4616 15.4397 27.2256L15.4394 27.2254Z" fill="white"/>
<path opacity="0.87" d="M15.6668 21.92C15.1938 21.8613 14.7638 22.2458 14.7541 22.723C14.7488 22.9838 14.8798 23.2483 15.1078 23.3808C15.2938 23.4888 15.5108 23.4948 15.6988 23.4163C15.9236 23.3865 16.1348 23.2583 16.2601 23.039C16.5228 22.579 16.1683 21.9823 15.6668 21.92Z" fill="white"/>
<path d="M7.629 31.0066C6.96275 29.0796 6.625 27.0589 6.625 25.0009C6.625 22.9429 6.96375 20.9164 7.63175 18.9869C8.2775 17.1214 9.218 15.3789 10.4268 13.8074C11.6228 12.2526 13.0507 10.9046 14.6712 9.80164C16.3162 8.68164 18.1185 7.84214 20.0277 7.30664L20.1628 7.78814C18.3058 8.30889 16.5527 9.12539 14.9525 10.2149C13.376 11.2881 11.9868 12.5994 10.823 14.1124C9.64725 15.6409 8.7325 17.3361 8.10425 19.1506C7.4545 21.0276 7.125 22.9959 7.125 25.0011C7.125 27.0064 7.4535 28.9689 8.1015 30.8434L7.629 31.0066Z" fill="#236CBA"/>
<path d="M25.0009 43.3758C23.5819 43.3758 22.1684 43.2136 20.7994 42.8933C19.4684 42.5821 18.1702 42.1193 16.9407 41.5183C15.7334 40.9281 14.5877 40.2023 13.5349 39.3606C12.4889 38.5243 11.5322 37.5718 10.6914 36.5296L11.0807 36.2156C11.8987 37.2296 12.8297 38.1563 13.8472 38.9701C14.8712 39.7888 15.9859 40.4951 17.1602 41.0691C18.3559 41.6536 19.6184 42.1036 20.9132 42.4063C22.2449 42.7178 23.6202 42.8758 25.0007 42.8758C27.4139 42.8758 29.7549 42.4033 31.9584 41.4713C34.0869 40.5711 35.9987 39.2821 37.6402 37.6406C39.2819 35.9988 40.5707 34.0873 41.4709 31.9588C42.4029 29.7553 42.8754 27.4143 42.8754 25.0011C42.8754 22.3791 42.3209 19.8531 41.2269 17.4931C40.7024 16.3616 40.0557 15.2803 39.3047 14.2798C38.5592 13.2871 37.7074 12.3683 36.7729 11.5498L37.1024 11.1738C38.0629 12.0151 38.9384 12.9593 39.7044 13.9798C40.4764 15.0083 41.1414 16.1196 41.6807 17.2828C42.8052 19.7091 43.3754 22.3061 43.3754 25.0011C43.3754 27.4816 42.8897 29.8881 41.9314 32.1536C41.0059 34.3416 39.6812 36.3068 37.9937 37.9941C36.3062 39.6813 34.3412 41.0063 32.1529 41.9318C29.8874 42.8901 27.4809 43.3758 25.0004 43.3758H25.0009Z" fill="#236CBA"/>
</g>
<defs>
<clipPath id="clip0_8043_4268">
<rect width="50" height="50" fill="white"/>
</clipPath>
</defs>
</svg>
