<svg width="44" height="44" viewBox="0 0 44 44" fill="none" xmlns="http://www.w3.org/2000/svg">
<path d="M21.2949 1.29492C21.76 1.19849 22.24 1.19849 22.7051 1.29492C23.0641 1.36938 23.4569 1.54664 24.0459 1.96387C24.6509 2.3925 25.3726 3.00615 26.415 3.89453C27.1879 4.55316 27.7115 5.0094 28.3242 5.33105C28.6411 5.49741 28.9727 5.63474 29.3145 5.74121C29.9751 5.94703 30.6676 5.99541 31.6797 6.07617C33.0453 6.18515 33.9897 6.26101 34.7207 6.38574C35.4325 6.5072 35.836 6.65909 36.1426 6.86035C36.5396 7.12101 36.879 7.4604 37.1396 7.85742C37.3409 8.16397 37.4928 8.56755 37.6143 9.2793C37.739 10.0103 37.8149 10.9547 37.9238 12.3203C38.0046 13.3324 38.053 14.0249 38.2588 14.6855C38.3653 15.0273 38.5026 15.3589 38.6689 15.6758C38.9906 16.2885 39.4468 16.8121 40.1055 17.585C40.9939 18.6274 41.6075 19.3491 42.0361 19.9541C42.4534 20.5431 42.6306 20.9359 42.7051 21.2949C42.8015 21.76 42.8015 22.24 42.7051 22.7051C42.6306 23.0641 42.4534 23.4569 42.0361 24.0459C41.6075 24.6509 40.9939 25.3726 40.1055 26.415C39.4468 27.1879 38.9906 27.7115 38.6689 28.3242C38.5026 28.6411 38.3653 28.9727 38.2588 29.3145C38.053 29.9751 38.0046 30.6676 37.9238 31.6797C37.8149 33.0453 37.739 33.9897 37.6143 34.7207C37.4928 35.4325 37.3409 35.836 37.1396 36.1426C36.879 36.5396 36.5396 36.879 36.1426 37.1396C35.836 37.3409 35.4325 37.4928 34.7207 37.6143C33.9897 37.739 33.0453 37.8149 31.6797 37.9238C30.6676 38.0046 29.9751 38.053 29.3145 38.2588C28.9727 38.3653 28.6411 38.5026 28.3242 38.6689C27.7115 38.9906 27.1879 39.4468 26.415 40.1055C25.3726 40.9939 24.6509 41.6075 24.0459 42.0361C23.4569 42.4534 23.0641 42.6306 22.7051 42.7051C22.24 42.8015 21.76 42.8015 21.2949 42.7051C20.9359 42.6306 20.5431 42.4534 19.9541 42.0361C19.3491 41.6075 18.6274 40.9939 17.585 40.1055C16.8121 39.4468 16.2885 38.9906 15.6758 38.6689C15.3589 38.5026 15.0273 38.3653 14.6855 38.2588C14.0249 38.053 13.3324 38.0046 12.3203 37.9238C10.9547 37.8149 10.0103 37.739 9.2793 37.6143C8.56755 37.4928 8.16397 37.3409 7.85742 37.1396C7.4604 36.879 7.12101 36.5396 6.86035 36.1426C6.65909 35.836 6.5072 35.4325 6.38574 34.7207C6.26101 33.9897 6.18515 33.0453 6.07617 31.6797C5.99541 30.6676 5.94703 29.9751 5.74121 29.3145C5.63474 28.9727 5.49741 28.6411 5.33105 28.3242C5.0094 27.7115 4.55316 27.1879 3.89453 26.415C3.00615 25.3726 2.3925 24.6509 1.96387 24.0459C1.54664 23.4569 1.36938 23.0641 1.29492 22.7051C1.19849 22.24 1.19849 21.76 1.29492 21.2949C1.36938 20.9359 1.54664 20.5431 1.96387 19.9541C2.3925 19.3491 3.00615 18.6274 3.89453 17.585C4.55316 16.8121 5.0094 16.2885 5.33105 15.6758C5.49741 15.3589 5.63474 15.0273 5.74121 14.6855C5.94703 14.0249 5.99541 13.3324 6.07617 12.3203C6.18515 10.9547 6.26101 10.0103 6.38574 9.2793C6.5072 8.56755 6.65909 8.16398 6.86035 7.85742C7.12101 7.4604 7.4604 7.12101 7.85742 6.86035C8.16398 6.65909 8.56755 6.5072 9.2793 6.38574C10.0103 6.26101 10.9547 6.18515 12.3203 6.07617C13.3324 5.99541 14.0249 5.94703 14.6855 5.74121C15.0273 5.63474 15.3589 5.49741 15.6758 5.33105C16.2885 5.0094 16.8121 4.55316 17.585 3.89453C18.6274 3.00615 19.3491 2.3925 19.9541 1.96387C20.5431 1.54664 20.9359 1.36938 21.2949 1.29492Z" fill="#1890EB"/>
<path d="M21.2949 1.29492C21.76 1.19849 22.24 1.19849 22.7051 1.29492C23.0641 1.36938 23.4569 1.54664 24.0459 1.96387C24.6509 2.3925 25.3726 3.00615 26.415 3.89453C27.1879 4.55316 27.7115 5.0094 28.3242 5.33105C28.6411 5.49741 28.9727 5.63474 29.3145 5.74121C29.9751 5.94703 30.6676 5.99541 31.6797 6.07617C33.0453 6.18515 33.9897 6.26101 34.7207 6.38574C35.4325 6.5072 35.836 6.65909 36.1426 6.86035C36.5396 7.12101 36.879 7.4604 37.1396 7.85742C37.3409 8.16397 37.4928 8.56755 37.6143 9.2793C37.739 10.0103 37.8149 10.9547 37.9238 12.3203C38.0046 13.3324 38.053 14.0249 38.2588 14.6855C38.3653 15.0273 38.5026 15.3589 38.6689 15.6758C38.9906 16.2885 39.4468 16.8121 40.1055 17.585C40.9939 18.6274 41.6075 19.3491 42.0361 19.9541C42.4534 20.5431 42.6306 20.9359 42.7051 21.2949C42.8015 21.76 42.8015 22.24 42.7051 22.7051C42.6306 23.0641 42.4534 23.4569 42.0361 24.0459C41.6075 24.6509 40.9939 25.3726 40.1055 26.415C39.4468 27.1879 38.9906 27.7115 38.6689 28.3242C38.5026 28.6411 38.3653 28.9727 38.2588 29.3145C38.053 29.9751 38.0046 30.6676 37.9238 31.6797C37.8149 33.0453 37.739 33.9897 37.6143 34.7207C37.4928 35.4325 37.3409 35.836 37.1396 36.1426C36.879 36.5396 36.5396 36.879 36.1426 37.1396C35.836 37.3409 35.4325 37.4928 34.7207 37.6143C33.9897 37.739 33.0453 37.8149 31.6797 37.9238C30.6676 38.0046 29.9751 38.053 29.3145 38.2588C28.9727 38.3653 28.6411 38.5026 28.3242 38.6689C27.7115 38.9906 27.1879 39.4468 26.415 40.1055C25.3726 40.9939 24.6509 41.6075 24.0459 42.0361C23.4569 42.4534 23.0641 42.6306 22.7051 42.7051C22.24 42.8015 21.76 42.8015 21.2949 42.7051C20.9359 42.6306 20.5431 42.4534 19.9541 42.0361C19.3491 41.6075 18.6274 40.9939 17.585 40.1055C16.8121 39.4468 16.2885 38.9906 15.6758 38.6689C15.3589 38.5026 15.0273 38.3653 14.6855 38.2588C14.0249 38.053 13.3324 38.0046 12.3203 37.9238C10.9547 37.8149 10.0103 37.739 9.2793 37.6143C8.56755 37.4928 8.16397 37.3409 7.85742 37.1396C7.4604 36.879 7.12101 36.5396 6.86035 36.1426C6.65909 35.836 6.5072 35.4325 6.38574 34.7207C6.26101 33.9897 6.18515 33.0453 6.07617 31.6797C5.99541 30.6676 5.94703 29.9751 5.74121 29.3145C5.63474 28.9727 5.49741 28.6411 5.33105 28.3242C5.0094 27.7115 4.55316 27.1879 3.89453 26.415C3.00615 25.3726 2.3925 24.6509 1.96387 24.0459C1.54664 23.4569 1.36938 23.0641 1.29492 22.7051C1.19849 22.24 1.19849 21.76 1.29492 21.2949C1.36938 20.9359 1.54664 20.5431 1.96387 19.9541C2.3925 19.3491 3.00615 18.6274 3.89453 17.585C4.55316 16.8121 5.0094 16.2885 5.33105 15.6758C5.49741 15.3589 5.63474 15.0273 5.74121 14.6855C5.94703 14.0249 5.99541 13.3324 6.07617 12.3203C6.18515 10.9547 6.26101 10.0103 6.38574 9.2793C6.5072 8.56755 6.65909 8.16398 6.86035 7.85742C7.12101 7.4604 7.4604 7.12101 7.85742 6.86035C8.16398 6.65909 8.56755 6.5072 9.2793 6.38574C10.0103 6.26101 10.9547 6.18515 12.3203 6.07617C13.3324 5.99541 14.0249 5.94703 14.6855 5.74121C15.0273 5.63474 15.3589 5.49741 15.6758 5.33105C16.2885 5.0094 16.8121 4.55316 17.585 3.89453C18.6274 3.00615 19.3491 2.3925 19.9541 1.96387C20.5431 1.54664 20.9359 1.36938 21.2949 1.29492Z" fill="url(#paint0_linear_8007_18317)" fill-opacity="0.2"/>
<path d="M21.2949 1.29492C21.76 1.19849 22.24 1.19849 22.7051 1.29492C23.0641 1.36938 23.4569 1.54664 24.0459 1.96387C24.6509 2.3925 25.3726 3.00615 26.415 3.89453C27.1879 4.55316 27.7115 5.0094 28.3242 5.33105C28.6411 5.49741 28.9727 5.63474 29.3145 5.74121C29.9751 5.94703 30.6676 5.99541 31.6797 6.07617C33.0453 6.18515 33.9897 6.26101 34.7207 6.38574C35.4325 6.5072 35.836 6.65909 36.1426 6.86035C36.5396 7.12101 36.879 7.4604 37.1396 7.85742C37.3409 8.16397 37.4928 8.56755 37.6143 9.2793C37.739 10.0103 37.8149 10.9547 37.9238 12.3203C38.0046 13.3324 38.053 14.0249 38.2588 14.6855C38.3653 15.0273 38.5026 15.3589 38.6689 15.6758C38.9906 16.2885 39.4468 16.8121 40.1055 17.585C40.9939 18.6274 41.6075 19.3491 42.0361 19.9541C42.4534 20.5431 42.6306 20.9359 42.7051 21.2949C42.8015 21.76 42.8015 22.24 42.7051 22.7051C42.6306 23.0641 42.4534 23.4569 42.0361 24.0459C41.6075 24.6509 40.9939 25.3726 40.1055 26.415C39.4468 27.1879 38.9906 27.7115 38.6689 28.3242C38.5026 28.6411 38.3653 28.9727 38.2588 29.3145C38.053 29.9751 38.0046 30.6676 37.9238 31.6797C37.8149 33.0453 37.739 33.9897 37.6143 34.7207C37.4928 35.4325 37.3409 35.836 37.1396 36.1426C36.879 36.5396 36.5396 36.879 36.1426 37.1396C35.836 37.3409 35.4325 37.4928 34.7207 37.6143C33.9897 37.739 33.0453 37.8149 31.6797 37.9238C30.6676 38.0046 29.9751 38.053 29.3145 38.2588C28.9727 38.3653 28.6411 38.5026 28.3242 38.6689C27.7115 38.9906 27.1879 39.4468 26.415 40.1055C25.3726 40.9939 24.6509 41.6075 24.0459 42.0361C23.4569 42.4534 23.0641 42.6306 22.7051 42.7051C22.24 42.8015 21.76 42.8015 21.2949 42.7051C20.9359 42.6306 20.5431 42.4534 19.9541 42.0361C19.3491 41.6075 18.6274 40.9939 17.585 40.1055C16.8121 39.4468 16.2885 38.9906 15.6758 38.6689C15.3589 38.5026 15.0273 38.3653 14.6855 38.2588C14.0249 38.053 13.3324 38.0046 12.3203 37.9238C10.9547 37.8149 10.0103 37.739 9.2793 37.6143C8.56755 37.4928 8.16397 37.3409 7.85742 37.1396C7.4604 36.879 7.12101 36.5396 6.86035 36.1426C6.65909 35.836 6.5072 35.4325 6.38574 34.7207C6.26101 33.9897 6.18515 33.0453 6.07617 31.6797C5.99541 30.6676 5.94703 29.9751 5.74121 29.3145C5.63474 28.9727 5.49741 28.6411 5.33105 28.3242C5.0094 27.7115 4.55316 27.1879 3.89453 26.415C3.00615 25.3726 2.3925 24.6509 1.96387 24.0459C1.54664 23.4569 1.36938 23.0641 1.29492 22.7051C1.19849 22.24 1.19849 21.76 1.29492 21.2949C1.36938 20.9359 1.54664 20.5431 1.96387 19.9541C2.3925 19.3491 3.00615 18.6274 3.89453 17.585C4.55316 16.8121 5.0094 16.2885 5.33105 15.6758C5.49741 15.3589 5.63474 15.0273 5.74121 14.6855C5.94703 14.0249 5.99541 13.3324 6.07617 12.3203C6.18515 10.9547 6.26101 10.0103 6.38574 9.2793C6.5072 8.56755 6.65909 8.16398 6.86035 7.85742C7.12101 7.4604 7.4604 7.12101 7.85742 6.86035C8.16398 6.65909 8.56755 6.5072 9.2793 6.38574C10.0103 6.26101 10.9547 6.18515 12.3203 6.07617C13.3324 5.99541 14.0249 5.94703 14.6855 5.74121C15.0273 5.63474 15.3589 5.49741 15.6758 5.33105C16.2885 5.0094 16.8121 4.55316 17.585 3.89453C18.6274 3.00615 19.3491 2.3925 19.9541 1.96387C20.5431 1.54664 20.9359 1.36938 21.2949 1.29492Z" stroke="#1890EB" stroke-width="2.44444"/>
<path d="M18.0788 29.2227C17.5573 29.2227 17.1744 29.1086 16.9299 28.8804C16.7018 28.636 16.5877 28.2856 16.5877 27.8293C16.5877 27.5523 16.661 27.2834 16.8077 27.0227C16.9544 26.7619 17.1662 26.4849 17.4432 26.1915L22.3566 20.9604C23.1062 20.1782 23.644 19.4693 23.9699 18.8338C24.2958 18.1819 24.4588 17.5301 24.4588 16.8782C24.4588 16.0634 24.1981 15.4441 23.6766 15.0204C23.1714 14.5967 22.4299 14.3849 21.4521 14.3849C20.8981 14.3849 20.344 14.4664 19.7899 14.6293C19.2358 14.776 18.6736 15.0367 18.1032 15.4115C17.8099 15.6071 17.5329 15.6886 17.2721 15.656C17.0277 15.6234 16.8077 15.5175 16.6121 15.3382C16.4329 15.159 16.3107 14.939 16.2455 14.6782C16.1803 14.4175 16.1884 14.1567 16.2699 13.896C16.3677 13.619 16.5632 13.3827 16.8566 13.1871C17.5573 12.7145 18.3395 12.356 19.2032 12.1115C20.0832 11.8671 20.9632 11.7449 21.8432 11.7449C23.0818 11.7449 24.1247 11.9323 24.9721 12.3071C25.8195 12.6819 26.4632 13.2278 26.9032 13.9449C27.3432 14.6619 27.5632 15.5338 27.5632 16.5604C27.5632 17.2449 27.4492 17.913 27.221 18.5649C27.0092 19.2167 26.6751 19.8767 26.2188 20.5449C25.7788 21.213 25.2003 21.9219 24.4832 22.6715L19.8877 27.4627V26.6315H27.0744C27.5144 26.6315 27.8484 26.7375 28.0766 26.9493C28.3047 27.1612 28.4188 27.479 28.4188 27.9027C28.4188 28.3264 28.3047 28.6523 28.0766 28.8804C27.8484 29.1086 27.5144 29.2227 27.0744 29.2227H18.0788Z" fill="white"/>
<defs>
<linearGradient id="paint0_linear_8007_18317" x1="0" y1="0" x2="28.2867" y2="53.4705" gradientUnits="userSpaceOnUse">
<stop stop-color="white" stop-opacity="0"/>
<stop offset="1" stop-color="white"/>
</linearGradient>
</defs>
</svg>
