<svg width="50" height="50" viewBox="0 0 50 50" fill="none" xmlns="http://www.w3.org/2000/svg">
<path d="M17.7096 28.1243C19.091 28.1243 20.4157 27.5756 21.3925 26.5989C22.3692 25.6221 22.918 24.2973 22.918 22.916C22.918 20.041 21.8763 18.7493 20.8346 16.666C18.6013 12.2014 20.368 8.22018 25.0013 4.16602C26.043 9.37435 29.168 14.3743 33.3346 17.7077C37.5013 21.041 39.5846 24.9993 39.5846 29.166C39.5846 31.0811 39.2074 32.9775 38.4745 34.7468C37.7417 36.5161 36.6675 38.1238 35.3133 39.478C33.9591 40.8322 32.3514 41.9064 30.5821 42.6393C28.8128 43.3721 26.9164 43.7493 25.0013 43.7493C23.0862 43.7493 21.1898 43.3721 19.4205 42.6393C17.6512 41.9064 16.0435 40.8322 14.6893 39.478C13.3351 38.1238 12.2609 36.5161 11.5281 34.7468C10.7952 32.9775 10.418 31.0811 10.418 29.166C10.418 26.7639 11.3201 24.3868 12.5013 22.916C12.5013 24.2973 13.05 25.6221 14.0268 26.5989C15.0035 27.5756 16.3283 28.1243 17.7096 28.1243Z" fill="#FDC04E"/>
<path d="M17.7096 28.1243C19.091 28.1243 20.4157 27.5756 21.3925 26.5989C22.3692 25.6221 22.918 24.2973 22.918 22.916C22.918 20.041 21.8763 18.7493 20.8346 16.666C18.6013 12.2014 20.368 8.22018 25.0013 4.16602C26.043 9.37435 29.168 14.3743 33.3346 17.7077C37.5013 21.041 39.5846 24.9993 39.5846 29.166C39.5846 31.0811 39.2074 32.9775 38.4745 34.7468C37.7417 36.5161 36.6675 38.1238 35.3133 39.478C33.9591 40.8322 32.3514 41.9064 30.5821 42.6393C28.8128 43.3721 26.9164 43.7493 25.0013 43.7493C23.0862 43.7493 21.1898 43.3721 19.4205 42.6393C17.6512 41.9064 16.0435 40.8322 14.6893 39.478C13.3351 38.1238 12.2609 36.5161 11.5281 34.7468C10.7952 32.9775 10.418 31.0811 10.418 29.166C10.418 26.7639 11.3201 24.3868 12.5013 22.916C12.5013 24.2973 13.05 25.6221 14.0268 26.5989C15.0035 27.5756 16.3283 28.1243 17.7096 28.1243Z" fill="url(#paint0_linear_8007_18179)" fill-opacity="0.2"/>
<path d="M17.7096 28.1243C19.091 28.1243 20.4157 27.5756 21.3925 26.5989C22.3692 25.6221 22.918 24.2973 22.918 22.916C22.918 20.041 21.8763 18.7493 20.8346 16.666C18.6013 12.2014 20.368 8.22018 25.0013 4.16602C26.043 9.37435 29.168 14.3743 33.3346 17.7077C37.5013 21.041 39.5846 24.9993 39.5846 29.166C39.5846 31.0811 39.2074 32.9775 38.4745 34.7468C37.7417 36.5161 36.6675 38.1238 35.3133 39.478C33.9591 40.8322 32.3514 41.9064 30.5821 42.6393C28.8128 43.3721 26.9164 43.7493 25.0013 43.7493C23.0862 43.7493 21.1898 43.3721 19.4205 42.6393C17.6512 41.9064 16.0435 40.8322 14.6893 39.478C13.3351 38.1238 12.2609 36.5161 11.5281 34.7468C10.7952 32.9775 10.418 31.0811 10.418 29.166C10.418 26.7639 11.3201 24.3868 12.5013 22.916C12.5013 24.2973 13.05 25.6221 14.0268 26.5989C15.0035 27.5756 16.3283 28.1243 17.7096 28.1243Z" stroke="#FDC04E" stroke-width="3.40909" stroke-linecap="round" stroke-linejoin="round"/>
<path d="M32.7096 35.0007C36.7121 28.8149 32.9296 25.0124 28.9931 20.8181C28.5785 20.3764 27.7621 20.8164 27.8734 21.4118C30.0012 32.7902 21.715 34.2687 16.4885 33.4511C16.1432 33.3971 15.8185 33.6534 15.8812 33.9973C16.7298 38.6481 28.3315 41.7668 32.7096 35.0007Z" fill="#FEDFA7"/>
<defs>
<linearGradient id="paint0_linear_8007_18179" x1="10.418" y1="4.16602" x2="39.5846" y2="44.791" gradientUnits="userSpaceOnUse">
<stop stop-color="white" stop-opacity="0"/>
<stop offset="1" stop-color="white"/>
</linearGradient>
</defs>
</svg>
